ply
format ascii 1.0
comment Created by Blender 2.79 (sub 0) - www.blender.org, source file: ''
element vertex 8
property float x
property float y
property float z
element face 12
property list uchar uint vertex_indices
end_header
1.000000 1.000000 -1.000000
1.000000 -1.000000 1.000000
1.000000 -1.000000 -1.000000
1.000000 1.000000 1.000000
-1.000000 -1.000000 1.000000
-1.000000 1.000000 1.000000
-1.000000 -1.000000 -1.000000
-1.000000 1.000000 -1.000000
3 0 1 2
3 3 4 1
3 5 6 4
3 7 2 6
3 4 2 1
3 3 7 5
3 0 3 1
3 3 5 4
3 5 7 6
3 7 0 2
3 4 6 2
3 3 0 7
