ply
format ascii 1.0
comment Created by Blender 2.79 (sub 0) - www.blender.org, source file: 'BlenderBall.blend'
element vertex 354
property float x
property float y
property float z
property float nx
property float ny
property float nz
element face 704
property list uchar uint vertex_indices
end_header
-2.217677 1.225274 2.642913 0.000000 1.000000 0.000000
0.000000 1.225274 -0.000000 0.000000 0.999969 0.000000
-2.690671 1.225274 2.159484 0.000000 1.000000 0.000000
-2.334396 1.225274 2.782013 -0.467849 0.685690 0.557573
-2.832285 1.225274 2.273139 -0.567644 0.685690 0.455580
-3.060265 1.225274 1.593066 0.000000 1.000000 0.000000
-3.221331 1.225274 1.676910 -0.645619 0.685690 0.336100
-3.312255 1.225274 0.965427 0.000000 1.000000 0.000000
-3.486583 1.225274 1.016238 -0.698782 0.685690 0.203681
-3.436956 1.225274 0.300688 0.000000 1.000000 0.000000
-3.617848 1.225274 0.316512 -0.725089 0.685690 0.063417
-3.429577 1.225274 -0.375605 0.000000 1.000000 0.000000
-3.610080 1.225274 -0.395375 -0.723533 0.685690 -0.079226
-3.290402 1.225274 -1.037464 0.000000 1.000000 0.000000
-3.463580 1.225274 -1.092069 -0.694174 0.685690 -0.218879
-3.024779 1.225274 -1.659454 0.000000 1.000000 0.000000
-3.183977 1.225274 -1.746795 -0.638142 0.685690 -0.350078
-2.642917 1.225274 -2.217672 0.000000 0.999969 0.000000
-2.782017 1.225274 -2.334393 -0.557573 0.685690 -0.467849
-2.159488 1.225274 -2.690666 0.000000 1.000000 0.000000
-2.273144 1.225274 -2.832281 -0.455580 0.685690 -0.567644
-1.593072 1.225274 -3.060261 0.000000 1.000000 0.000000
-1.676917 1.225274 -3.221328 -0.336100 0.685690 -0.645619
-0.965436 1.225274 -3.312251 0.000000 1.000000 0.000000
-1.016247 1.225274 -3.486581 -0.203681 0.685690 -0.698782
-0.300698 1.225274 -3.436954 0.000000 1.000000 0.000000
-0.316524 1.225274 -3.617847 -0.063417 0.685690 -0.725089
0.375595 1.225274 -3.429577 0.000000 1.000000 0.000000
0.395364 1.225274 -3.610082 0.079226 0.685690 -0.723533
1.037454 1.225274 -3.290404 0.000000 1.000000 0.000000
1.092058 1.225274 -3.463584 0.218848 0.685690 -0.694174
1.659445 1.225274 -3.024783 0.000000 1.000000 0.000000
1.746784 1.225274 -3.183983 0.350078 0.685690 -0.638142
2.217664 1.225274 -2.642922 0.000000 0.999969 0.000000
2.334384 1.225274 -2.782025 0.467849 0.685690 -0.557573
2.690660 1.225274 -2.159495 0.000000 1.000000 0.000000
2.832274 1.225274 -2.273154 0.567644 0.685690 -0.455580
3.060256 1.225274 -1.593080 0.000000 1.000000 0.000000
3.221323 1.225274 -1.676928 0.645619 0.685690 -0.336100
3.312248 1.225274 -0.965445 0.000000 1.000000 0.000000
3.486578 1.225274 -1.016259 0.698782 0.685690 -0.203681
3.436953 1.225274 -0.300708 0.000000 1.000000 0.000000
3.617846 1.225274 -0.316536 0.725089 0.685690 -0.063417
3.429579 1.225274 0.375585 0.000000 1.000000 0.000000
3.610084 1.225274 0.395352 0.723533 0.685690 0.079226
3.290408 1.225274 1.037445 0.000000 1.000000 0.000000
3.463588 1.225274 1.092046 0.694174 0.685690 0.218848
3.024789 1.225274 1.659436 0.000000 1.000000 0.000000
3.183989 1.225274 1.746774 0.638142 0.685690 0.350078
2.642929 1.225274 2.217657 0.000000 1.000000 0.000000
2.782032 1.225274 2.334374 0.557573 0.685690 0.467849
2.159504 1.225274 2.690654 0.000000 1.000000 0.000000
2.273163 1.225274 2.832267 0.455580 0.685690 0.567644
1.593091 1.225274 3.060252 0.000000 1.000000 0.000000
1.676938 1.225274 3.221317 0.336100 0.685690 0.645619
0.965456 1.225274 3.312247 0.000000 1.000000 0.000000
1.016270 1.225274 3.486574 0.203681 0.685690 0.698782
0.300719 1.225274 3.436954 0.000000 1.000000 0.000000
0.316547 1.225274 3.617845 0.063417 0.685690 0.725089
-0.375574 1.225274 3.429581 0.000000 1.000000 0.000000
-0.395340 1.225274 3.610084 -0.079226 0.685690 0.723533
-1.037434 1.225274 3.290412 0.000000 1.000000 0.000000
-1.092035 1.225274 3.463591 -0.218848 0.685690 0.694174
-1.659426 1.225274 3.024796 0.000000 1.000000 0.000000
-1.746764 1.225274 3.183994 -0.350078 0.685690 0.638142
-2.963562 0.015274 2.378510 0.000000 -1.000000 0.000000
-0.000001 0.015274 0.000002 0.000000 -1.000000 0.000000
-2.442594 0.015274 2.910970 0.000000 -1.000000 0.000000
-2.571151 0.015274 3.064178 -0.467849 -0.685690 0.557573
-3.370642 0.015274 1.754646 0.000000 -1.000000 0.000000
-3.119538 0.015274 2.503694 -0.567644 -0.685690 0.455580
-3.548043 0.015274 1.846995 -0.645619 -0.685690 0.336100
-3.648190 0.015274 1.063352 0.000000 -1.000000 0.000000
-3.840199 0.015274 1.119316 -0.698782 -0.685690 0.203681
-3.785541 0.015274 0.331194 0.000000 -1.000000 0.000000
-3.984779 0.015274 0.348624 -0.725089 -0.685690 0.063417
-3.777415 0.015274 -0.413692 0.000000 -1.000000 0.000000
-3.976226 0.015274 -0.435467 -0.723533 -0.685690 -0.079226
-3.624125 0.015274 -1.142680 0.000000 -1.000000 0.000000
-3.814868 0.015274 -1.202822 -0.694174 -0.685690 -0.218879
-3.331563 0.015274 -1.827756 0.000000 -1.000000 0.000000
-3.506907 0.015274 -1.923955 -0.638142 -0.685690 -0.350078
-2.910970 0.015274 -2.442591 0.000000 -1.000000 0.000000
-3.064178 0.015274 -2.571150 -0.557573 -0.685690 -0.467849
-2.378510 0.015274 -2.963560 0.000000 -1.000000 0.000000
-2.503694 0.015274 -3.119538 -0.455580 -0.685690 -0.567644
-1.754645 0.015274 -3.370640 0.000000 -1.000000 0.000000
-1.846994 0.015274 -3.548044 -0.336100 -0.685690 -0.645619
-1.063350 0.015274 -3.648188 0.000000 -1.000000 0.000000
-1.119315 0.015274 -3.840199 -0.203681 -0.685690 -0.698782
-0.331191 0.015274 -3.785539 0.000000 -1.000000 0.000000
-0.348622 0.015274 -3.984779 -0.063417 -0.685690 -0.725089
0.413695 0.015274 -3.777412 0.000000 -1.000000 0.000000
0.435469 0.015274 -3.976225 0.079226 -0.685690 -0.723533
1.142683 0.015274 -3.624122 0.000000 -1.000000 0.000000
1.202825 0.015274 -3.814867 0.218879 -0.685690 -0.694174
1.827758 0.015274 -3.331559 0.000000 -1.000000 0.000000
1.923957 0.015274 -3.506906 0.350078 -0.685690 -0.638142
2.442594 0.015274 -2.910966 0.000000 -1.000000 0.000000
2.571153 0.015274 -3.064176 0.467849 -0.685690 -0.557573
2.963562 0.015274 -2.378506 0.000000 -1.000000 0.000000
3.119540 0.015274 -2.503691 0.567644 -0.685690 -0.455580
3.370642 0.015274 -1.754640 0.000000 -1.000000 0.000000
3.548045 0.015274 -1.846991 0.645619 -0.685690 -0.336100
3.648189 0.015274 -1.063345 0.000000 -1.000000 0.000000
3.840200 0.015274 -1.119312 0.698782 -0.685690 -0.203681
3.785539 0.015274 -0.331187 0.000000 -1.000000 0.000000
3.984779 0.015274 -0.348619 0.725089 -0.685690 -0.063417
3.777413 0.015274 0.413700 0.000000 -1.000000 0.000000
3.976225 0.015274 0.435472 0.723533 -0.685690 0.079226
3.624122 0.015274 1.142688 0.000000 -1.000000 0.000000
3.814867 0.015274 1.202828 0.694174 -0.685690 0.218879
3.331559 0.015274 1.827763 0.000000 -1.000000 0.000000
3.506905 0.015274 1.923960 0.638142 -0.685690 0.350078
2.910965 0.015274 2.442598 0.000000 -1.000000 0.000000
3.064174 0.015274 2.571155 0.557573 -0.685690 0.467849
2.378504 0.015274 2.963566 0.000000 -0.999969 0.000000
2.503690 0.015274 3.119542 0.455580 -0.685690 0.567644
1.754639 0.015274 3.370645 0.000000 -1.000000 0.000000
1.846989 0.015274 3.548047 0.336070 -0.685690 0.645619
1.063344 0.015274 3.648192 0.000000 -1.000000 0.000000
1.119310 0.015274 3.840201 0.203681 -0.685690 0.698782
0.331185 0.015274 3.785542 0.000000 -1.000000 0.000000
0.348616 0.015274 3.984780 0.063417 -0.685690 0.725089
-0.413701 0.015274 3.777415 0.000000 -1.000000 0.000000
-0.435474 0.015274 3.976225 -0.079226 -0.685690 0.723533
-1.142689 0.015274 3.624124 0.000000 -1.000000 0.000000
-1.202830 0.015274 3.814866 -0.218879 -0.685690 0.694174
-1.827765 0.015274 3.331560 0.000000 -0.999969 0.000000
-1.923962 0.015274 3.506904 -0.350078 -0.685690 0.638142
-2.571154 0.649753 3.064175 -0.468551 0.684530 0.558397
-3.119540 0.541602 2.503692 -0.779870 0.000000 0.625904
-2.571153 0.541602 3.064176 -0.642781 0.000000 0.766015
-3.119541 0.649753 2.503690 -0.568499 0.684530 0.456252
-3.548045 0.541602 1.846992 -0.886990 0.000000 0.461745
-3.548046 0.649753 1.846990 -0.646596 0.684530 0.336589
-3.840200 0.541602 1.119314 -0.960021 0.000000 0.279824
-3.840201 0.649753 1.119311 -0.699850 0.684530 0.203986
-3.984779 0.541602 0.348620 -0.996185 0.000000 0.087130
-3.984779 0.649753 0.348617 -0.726188 0.684530 0.063509
-3.976225 0.541602 -0.435469 -0.994049 0.000000 -0.108860
-3.976225 0.649753 -0.435472 -0.724631 0.684530 -0.079348
-3.814867 0.541602 -1.202824 -0.953703 0.000000 -0.300699
-3.814867 0.649753 -1.202826 -0.695212 0.684530 -0.219184
-3.506906 0.541602 -1.923956 -0.876705 0.000000 -0.480972
-3.506906 0.649753 -1.923957 -0.639088 0.684530 -0.350627
-3.064177 0.541602 -2.571151 -0.766015 0.000000 -0.642781
-3.064177 0.649753 -2.571151 -0.558397 0.684530 -0.468551
-2.503693 0.541602 -3.119538 -0.625904 0.000000 -0.779870
-1.846995 0.649753 -3.548043 -0.336589 0.684530 -0.646596
-1.846994 0.541602 -3.548043 -0.461745 0.000000 -0.886990
-1.119317 0.649753 -3.840199 -0.203986 0.684530 -0.699850
-1.119316 0.541602 -3.840199 -0.279824 0.000000 -0.960021
-0.348625 0.649753 -3.984778 -0.063509 0.684530 -0.726188
-0.348623 0.541602 -3.984779 -0.087130 0.000000 -0.996185
0.435465 0.649753 -3.976226 0.079348 0.684530 -0.724631
0.435467 0.541602 -3.976225 0.108860 0.000000 -0.994049
1.202820 0.649753 -3.814869 0.219184 0.684530 -0.695212
1.202822 0.541602 -3.814868 0.300699 0.000000 -0.953703
1.923951 0.649753 -3.506909 0.350597 0.684530 -0.639088
1.923954 0.541602 -3.506907 0.480972 0.000000 -0.876705
2.571146 0.649753 -3.064182 0.468551 0.684530 -0.558428
2.571149 0.541602 -3.064179 0.642781 0.000000 -0.766015
3.119534 0.649753 -2.503699 0.568499 0.684530 -0.456282
3.119537 0.541602 -2.503695 0.779870 0.000000 -0.625904
3.548040 0.649753 -1.847001 0.646596 0.684530 -0.336589
3.548043 0.541602 -1.846996 0.886990 0.000000 -0.461745
3.840197 0.649753 -1.119324 0.699820 0.684530 -0.203986
3.840199 0.541602 -1.119318 0.960021 0.000000 -0.279824
3.984778 0.649753 -0.348632 0.726188 0.684530 -0.063509
3.984779 0.541602 -0.348625 0.996185 0.000000 -0.087130
3.976227 0.649753 0.435457 0.724631 0.684530 0.079348
3.976226 0.541602 0.435465 0.994049 0.000000 0.108860
3.814871 0.649753 1.202813 0.695212 0.684530 0.219184
3.814869 0.541602 1.202820 0.953703 0.000000 0.300699
3.506913 0.649753 1.923944 0.639088 0.684530 0.350597
3.506909 0.541602 1.923952 0.876705 0.000000 0.480972
3.064187 0.649753 2.571140 0.558428 0.684530 0.468551
3.064181 0.541602 2.571148 0.766015 0.000000 0.642781
2.503705 0.649753 3.119529 0.456282 0.684530 0.568499
2.503697 0.541602 3.119535 0.625904 0.000000 0.779870
1.847008 0.649753 3.548037 0.336589 0.684530 0.646596
1.846999 0.541602 3.548042 0.461745 0.000000 0.886990
1.119332 0.649753 3.840195 0.203986 0.684530 0.699820
1.119321 0.541602 3.840198 0.279824 0.000000 0.960021
0.348640 0.649753 3.984778 0.063540 0.684530 0.726188
0.348628 0.541602 3.984779 0.087130 0.000000 0.996185
-0.435449 0.649753 3.976228 -0.079348 0.684530 0.724631
-0.435462 0.541602 3.976226 -0.108860 0.000000 0.994049
-1.202805 0.649753 3.814874 -0.219184 0.684530 0.695212
-1.202818 0.541602 3.814870 -0.300699 0.000000 0.953703
-1.923938 0.649753 3.506917 -0.350597 0.684530 0.639088
-1.923950 0.541602 3.506910 -0.480972 0.000000 0.876705
-2.334395 0.653800 2.782014 -0.443709 0.723502 0.528794
-2.989269 0.650316 2.399136 -0.007721 0.999939 0.006195
-2.463783 0.650316 2.936214 -0.006348 0.999939 0.007569
-2.832284 0.653800 2.273140 -0.538347 0.723502 0.432051
-3.399879 0.650316 1.769859 -0.008759 0.999939 0.004547
-3.221330 0.653800 1.676911 -0.612293 0.723502 0.318735
-3.679834 0.650316 1.072568 -0.009491 0.999939 0.002747
-3.486583 0.653800 1.016239 -0.662709 0.723502 0.193152
-3.818375 0.650316 0.334059 -0.009857 0.999939 0.000855
-3.617848 0.653800 0.316514 -0.687674 0.723502 0.060152
-3.810178 0.650316 -0.417287 -0.009827 0.999939 -0.001068
-3.610081 0.653800 -0.395374 -0.686178 0.723502 -0.075137
-3.655558 0.650316 -1.152597 -0.009430 0.999939 -0.002960
-3.463580 0.653800 -1.092068 -0.658345 0.723502 -0.207556
-3.360457 0.650316 -1.843613 -0.008667 0.999939 -0.004761
-3.183978 0.653800 -1.746794 -0.605182 0.723502 -0.332011
-2.936216 0.650316 -2.463780 -0.007569 0.999939 -0.006348
-2.782017 0.653800 -2.334393 -0.528794 0.723502 -0.443709
-2.399139 0.650316 -2.989267 -0.006195 0.999939 -0.007721
-2.273144 0.653800 -2.832281 -0.432051 0.723502 -0.538347
-1.769864 0.650316 -3.399877 -0.004547 0.999939 -0.008759
-1.016247 0.653800 -3.486581 -0.193152 0.723502 -0.662709
-1.072574 0.650316 -3.679832 -0.002747 0.999939 -0.009491
-0.316523 0.653800 -3.617847 -0.060152 0.723502 -0.687674
-0.334066 0.650316 -3.818374 -0.000855 0.999939 -0.009857
0.395365 0.653800 -3.610082 0.075137 0.723502 -0.686178
0.417280 0.650316 -3.810179 0.001068 0.999939 -0.009827
1.092059 0.653800 -3.463584 0.207556 0.723502 -0.658345
1.152590 0.650316 -3.655560 0.002960 0.999939 -0.009430
1.746786 0.653800 -3.183983 0.332011 0.723502 -0.605182
1.843607 0.650316 -3.360461 0.004761 0.999939 -0.008667
2.334385 0.653800 -2.782024 0.443709 0.723502 -0.528794
2.463775 0.650316 -2.936222 0.006348 0.999939 -0.007569
2.832276 0.653800 -2.273152 0.538347 0.723502 -0.432081
2.989262 0.650316 -2.399145 0.007721 0.999939 -0.006195
3.221324 0.653800 -1.676926 0.612293 0.723502 -0.318735
3.399874 0.650316 -1.769871 0.008759 0.999939 -0.004547
3.486579 0.653800 -1.016256 0.662709 0.723502 -0.193152
3.679831 0.650316 -1.072582 0.009491 0.999939 -0.002747
3.617847 0.653800 -0.316533 0.687674 0.723502 -0.060152
3.818374 0.650316 -0.334074 0.009857 0.999939 -0.000855
3.610083 0.653800 0.395355 0.686178 0.723502 0.075137
3.810179 0.650316 0.417272 0.009827 0.999939 0.001068
3.463587 0.653800 1.092050 0.658345 0.723502 0.207556
3.655563 0.650316 1.152582 0.009430 0.999939 0.002960
3.183987 0.653800 1.746777 0.605182 0.723502 0.332011
3.360465 0.650316 1.843600 0.008667 0.999939 0.004761
2.782029 0.653800 2.334378 0.528794 0.723502 0.443709
2.936227 0.650316 2.463769 0.007569 0.999939 0.006348
2.273160 0.653800 2.832270 0.432081 0.723502 0.538347
2.399151 0.650316 2.989257 0.006195 0.999939 0.007721
1.676934 0.653800 3.221319 0.318735 0.723502 0.612293
1.769878 0.650316 3.399870 0.004547 0.999939 0.008759
1.016265 0.653800 3.486575 0.193152 0.723502 0.662709
1.072589 0.650316 3.679828 0.002747 0.999939 0.009491
0.316542 0.653800 3.617845 0.060152 0.723502 0.687674
0.334082 0.650316 3.818373 0.000855 0.999939 0.009857
-0.395346 0.653800 3.610084 -0.075137 0.723502 0.686178
-0.417264 0.650316 3.810180 -0.001068 0.999939 0.009827
-1.092041 0.653800 3.463589 -0.207556 0.723502 0.658345
-1.152575 0.650316 3.655565 -0.002960 0.999939 0.009430
-1.746770 0.653800 3.183991 -0.332011 0.723502 0.605182
-1.843593 0.650316 3.360468 -0.004761 0.999939 0.008667
-2.503693 0.649753 -3.119538 -0.456252 0.684530 -0.568499
-2.571151 0.191485 3.064178 -0.642781 0.000000 0.766015
-3.119538 0.191485 2.503694 -0.779870 0.000000 0.625904
-3.548044 0.191485 1.846994 -0.886990 0.000000 0.461745
-3.840200 0.191485 1.119316 -0.960021 0.000000 0.279824
-3.984779 0.191485 0.348623 -0.996185 0.000000 0.087130
-3.976226 0.191485 -0.435467 -0.994049 0.000000 -0.108860
-3.814868 0.191485 -1.202822 -0.953703 0.000000 -0.300699
-3.506907 0.191485 -1.923955 -0.876705 0.000000 -0.480972
-3.064178 0.191485 -2.571150 -0.766015 0.000000 -0.642781
-2.503694 0.191485 -3.119538 -0.625904 0.000000 -0.779870
-1.846994 0.191485 -3.548044 -0.461745 0.000000 -0.886990
-1.119315 0.191485 -3.840199 -0.279824 0.000000 -0.960021
-0.348622 0.191485 -3.984779 -0.087130 0.000000 -0.996185
0.435469 0.191485 -3.976225 0.108860 0.000000 -0.994049
1.202825 0.191485 -3.814867 0.300699 0.000000 -0.953703
1.923957 0.191485 -3.506906 0.480972 0.000000 -0.876705
2.571152 0.191485 -3.064177 0.642781 0.000000 -0.766015
3.119539 0.191485 -2.503692 0.779870 0.000000 -0.625904
3.548045 0.191485 -1.846992 0.886990 0.000000 -0.461745
3.840200 0.191485 -1.119313 0.960021 0.000000 -0.279824
3.984779 0.191485 -0.348620 0.996185 0.000000 -0.087130
3.976225 0.191485 0.435471 0.994049 0.000000 0.108860
3.814867 0.191485 1.202827 0.953703 0.000000 0.300699
3.506905 0.191485 1.923959 0.876705 0.000000 0.480972
3.064175 0.191485 2.571154 0.766015 0.000000 0.642781
2.503691 0.191485 3.119541 0.625904 0.000000 0.779870
1.846991 0.191485 3.548046 0.461745 0.000000 0.886990
1.119312 0.191485 3.840201 0.279824 0.000000 0.960021
0.348618 0.191485 3.984780 0.087130 0.000000 0.996185
-0.435473 0.191485 3.976225 -0.108860 0.000000 0.994049
-1.202828 0.191485 3.814867 -0.300699 0.000000 0.953703
-1.923960 0.191485 3.506904 -0.480972 0.000000 0.876705
-2.334395 0.754897 2.782014 -0.642781 0.000000 0.766015
-2.832284 0.754897 2.273140 -0.779870 0.000000 0.625904
-3.221330 0.754897 1.676911 -0.886990 0.000000 0.461745
-3.486583 0.754897 1.016239 -0.960021 0.000000 0.279824
-3.617848 0.754897 0.316514 -0.996185 0.000000 0.087130
-3.610081 0.754897 -0.395374 -0.994049 0.000000 -0.108860
-3.463580 0.754897 -1.092068 -0.953703 0.000000 -0.300699
-3.183978 0.754897 -1.746794 -0.876705 0.000000 -0.480972
-2.782017 0.754897 -2.334393 -0.766015 0.000000 -0.642781
-2.273144 0.754897 -2.832281 -0.625904 0.000000 -0.779870
-1.676917 0.653800 -3.221328 -0.318735 0.723502 -0.612293
-1.016247 0.754897 -3.486581 -0.279824 0.000000 -0.960021
-0.316523 0.754897 -3.617847 -0.087130 0.000000 -0.996185
0.395365 0.754897 -3.610082 0.108860 0.000000 -0.994049
1.092059 0.754897 -3.463584 0.300699 0.000000 -0.953703
1.746785 0.754897 -3.183983 0.480972 0.000000 -0.876705
2.334385 0.754897 -2.782023 0.642781 0.000000 -0.766045
2.832276 0.754897 -2.273153 0.779870 0.000000 -0.625904
3.221324 0.754897 -1.676926 0.886990 0.000000 -0.461745
3.486579 0.754897 -1.016256 0.960021 0.000000 -0.279824
3.617847 0.754897 -0.316533 0.996185 0.000000 -0.087130
3.610083 0.754897 0.395355 0.994049 0.000000 0.108860
3.463587 0.754897 1.092049 0.953703 0.000000 0.300699
3.183988 0.754897 1.746777 0.876705 0.000000 0.480972
2.782030 0.754897 2.334377 0.766045 0.000000 0.642781
2.273160 0.754897 2.832269 0.625904 0.000000 0.779870
1.676935 0.754897 3.221319 0.461745 0.000000 0.886990
1.016266 0.754897 3.486575 0.279824 0.000000 0.960021
0.316543 0.754897 3.617845 0.087161 0.000000 0.996185
-0.395345 0.754897 3.610084 -0.108860 0.000000 0.994049
-1.092040 0.754897 3.463589 -0.300699 0.000000 0.953703
-1.746769 0.754897 3.183991 -0.480972 0.000000 0.876705
-2.334396 1.142205 2.782013 -0.642781 0.000000 0.766015
-2.832285 1.142205 2.273139 -0.779870 0.000000 0.625904
-3.221331 1.142205 1.676910 -0.886990 0.000000 0.461745
-3.486583 1.142205 1.016238 -0.960021 0.000000 0.279824
-3.617848 1.142205 0.316512 -0.996185 0.000000 0.087130
-3.610080 1.142205 -0.395375 -0.994049 0.000000 -0.108860
-3.463580 1.142205 -1.092068 -0.953703 0.000000 -0.300699
-3.183977 1.142205 -1.746795 -0.876705 0.000000 -0.480972
-2.782017 1.142205 -2.334393 -0.766015 0.000000 -0.642781
-2.273144 1.142205 -2.832281 -0.625904 0.000000 -0.779870
-1.676917 0.754897 -3.221328 -0.461745 0.000000 -0.886990
-1.676917 1.142205 -3.221328 -0.461745 0.000000 -0.886990
-1.016247 1.142205 -3.486581 -0.279824 0.000000 -0.960021
-0.316523 1.142205 -3.617847 -0.087130 0.000000 -0.996185
0.395364 1.142205 -3.610082 0.108860 0.000000 -0.994049
1.092058 1.142205 -3.463584 0.300699 0.000000 -0.953703
1.746784 1.142205 -3.183983 0.480972 0.000000 -0.876705
2.334384 1.142205 -2.782024 0.642781 0.000000 -0.766045
2.832275 1.142205 -2.273154 0.779870 0.000000 -0.625904
3.221323 1.142205 -1.676928 0.886990 0.000000 -0.461745
3.486578 1.142205 -1.016258 0.960021 0.000000 -0.279824
3.617847 1.142205 -0.316535 0.996185 0.000000 -0.087130
3.610084 1.142205 0.395352 0.994049 0.000000 0.108860
3.463588 1.142205 1.092047 0.953703 0.000000 0.300699
3.183989 1.142205 1.746775 0.876705 0.000000 0.480972
2.782032 1.142205 2.334375 0.766045 0.000000 0.642781
2.273163 1.142205 2.832267 0.625904 0.000000 0.779870
1.676938 1.142205 3.221317 0.461745 0.000000 0.886990
1.016269 1.142205 3.486574 0.279824 0.000000 0.960021
0.316547 1.142205 3.617845 0.087161 0.000000 0.996185
-0.395341 1.142205 3.610084 -0.108860 0.000000 0.994049
-1.092036 1.142205 3.463590 -0.300668 0.000000 0.953703
-1.746765 1.142205 3.183994 -0.480972 0.000000 0.876705
3 0 1 2
3 3 2 4
3 2 1 5
3 4 5 6
3 5 1 7
3 6 7 8
3 7 1 9
3 8 9 10
3 9 1 11
3 10 11 12
3 11 1 13
3 12 13 14
3 13 1 15
3 14 15 16
3 15 1 17
3 16 17 18
3 17 1 19
3 18 19 20
3 19 1 21
3 20 21 22
3 21 1 23
3 22 23 24
3 23 1 25
3 24 25 26
3 25 1 27
3 26 27 28
3 27 1 29
3 28 29 30
3 29 1 31
3 30 31 32
3 31 1 33
3 32 33 34
3 33 1 35
3 33 36 34
3 35 1 37
3 35 38 36
3 37 1 39
3 37 40 38
3 39 1 41
3 39 42 40
3 41 1 43
3 41 44 42
3 43 1 45
3 43 46 44
3 45 1 47
3 45 48 46
3 47 1 49
3 47 50 48
3 49 1 51
3 49 52 50
3 51 1 53
3 51 54 52
3 53 1 55
3 53 56 54
3 55 1 57
3 55 58 56
3 57 1 59
3 57 60 58
3 59 1 61
3 59 62 60
3 61 1 63
3 61 64 62
3 63 1 0
3 63 3 64
3 65 66 67
3 68 65 67
3 69 66 65
3 69 70 71
3 72 66 69
3 72 71 73
3 74 66 72
3 74 73 75
3 76 66 74
3 76 75 77
3 78 66 76
3 78 77 79
3 80 66 78
3 80 79 81
3 82 66 80
3 82 81 83
3 84 66 82
3 84 83 85
3 86 66 84
3 86 85 87
3 88 66 86
3 88 87 89
3 90 66 88
3 90 89 91
3 92 66 90
3 92 91 93
3 94 66 92
3 94 93 95
3 96 66 94
3 96 95 97
3 98 66 96
3 98 97 99
3 100 66 98
3 101 98 99
3 102 66 100
3 103 100 101
3 104 66 102
3 105 102 103
3 106 66 104
3 107 104 105
3 108 66 106
3 109 106 107
3 110 66 108
3 111 108 109
3 112 66 110
3 113 110 111
3 114 66 112
3 115 112 113
3 116 66 114
3 117 114 115
3 118 66 116
3 119 116 117
3 120 66 118
3 121 118 119
3 122 66 120
3 123 120 121
3 124 66 122
3 125 122 123
3 126 66 124
3 127 124 125
3 128 66 126
3 129 126 127
3 67 66 128
3 68 128 129
3 130 131 132
3 133 134 131
3 135 136 134
3 137 138 136
3 139 140 138
3 141 142 140
3 143 144 142
3 145 146 144
3 147 148 146
3 148 149 150
3 150 151 152
3 152 153 154
3 154 155 156
3 156 157 158
3 158 159 160
3 160 161 162
3 162 163 164
3 164 165 166
3 166 167 168
3 168 169 170
3 170 171 172
3 172 173 174
3 174 175 176
3 176 177 178
3 178 179 180
3 180 181 182
3 182 183 184
3 184 185 186
3 186 187 188
3 188 189 190
3 190 191 192
3 130 192 191
3 193 194 195
3 196 197 194
3 198 199 197
3 200 201 199
3 202 203 201
3 204 205 203
3 206 207 205
3 208 209 207
3 210 211 209
3 212 213 211
3 213 214 215
3 215 216 217
3 217 218 219
3 219 220 221
3 221 222 223
3 223 224 225
3 225 226 227
3 227 228 229
3 229 230 231
3 231 232 233
3 233 234 235
3 235 236 237
3 237 238 239
3 239 240 241
3 241 242 243
3 243 244 245
3 245 246 247
3 247 248 249
3 249 250 251
3 251 252 253
3 253 254 255
3 193 255 254
3 195 133 130
3 194 135 133
3 197 137 135
3 199 139 137
3 201 141 139
3 203 143 141
3 205 145 143
3 207 147 145
3 209 256 147
3 211 149 256
3 213 151 149
3 215 153 151
3 217 155 153
3 155 221 157
3 157 223 159
3 159 225 161
3 161 227 163
3 163 229 165
3 165 231 167
3 167 233 169
3 169 235 171
3 171 237 173
3 173 239 175
3 175 241 177
3 177 243 179
3 179 245 181
3 181 247 183
3 183 249 185
3 185 251 187
3 187 253 189
3 189 255 191
3 195 191 255
3 257 70 68
3 132 258 257
3 258 71 70
3 131 259 258
3 259 73 71
3 134 260 259
3 260 75 73
3 136 261 260
3 261 77 75
3 138 262 261
3 262 79 77
3 140 263 262
3 263 81 79
3 142 264 263
3 264 83 81
3 144 265 264
3 265 85 83
3 146 266 265
3 85 267 87
3 148 267 266
3 87 268 89
3 267 152 268
3 89 269 91
3 268 154 269
3 91 270 93
3 269 156 270
3 93 271 95
3 270 158 271
3 95 272 97
3 271 160 272
3 97 273 99
3 272 162 273
3 99 274 101
3 273 164 274
3 101 275 103
3 274 166 275
3 103 276 105
3 275 168 276
3 105 277 107
3 276 170 277
3 107 278 109
3 277 172 278
3 109 279 111
3 278 174 279
3 111 280 113
3 279 176 280
3 113 281 115
3 280 178 281
3 115 282 117
3 281 180 282
3 117 283 119
3 282 182 283
3 119 284 121
3 283 184 284
3 121 285 123
3 284 186 285
3 123 286 125
3 285 188 286
3 125 287 127
3 286 190 287
3 127 288 129
3 287 192 288
3 132 288 192
3 257 129 288
3 289 196 193
3 290 198 196
3 291 200 198
3 292 202 200
3 293 204 202
3 294 206 204
3 295 208 206
3 296 210 208
3 297 212 210
3 298 299 212
3 299 300 214
3 214 301 216
3 216 302 218
3 218 303 220
3 220 304 222
3 222 305 224
3 224 306 226
3 226 307 228
3 228 308 230
3 230 309 232
3 232 310 234
3 234 311 236
3 236 312 238
3 238 313 240
3 240 314 242
3 242 315 244
3 244 316 246
3 246 317 248
3 248 318 250
3 250 319 252
3 252 320 254
3 289 254 320
3 321 290 289
3 3 322 321
3 322 291 290
3 4 323 322
3 323 292 291
3 6 324 323
3 324 293 292
3 8 325 324
3 325 294 293
3 10 326 325
3 326 295 294
3 12 327 326
3 327 296 295
3 14 328 327
3 328 297 296
3 16 329 328
3 329 298 297
3 18 330 329
3 330 331 298
3 20 332 330
3 331 333 300
3 332 24 333
3 300 334 301
3 333 26 334
3 301 335 302
3 334 28 335
3 302 336 303
3 335 30 336
3 303 337 304
3 336 32 337
3 304 338 305
3 337 34 338
3 305 339 306
3 338 36 339
3 306 340 307
3 339 38 340
3 307 341 308
3 340 40 341
3 308 342 309
3 341 42 342
3 309 343 310
3 342 44 343
3 310 344 311
3 343 46 344
3 311 345 312
3 344 48 345
3 312 346 313
3 345 50 346
3 313 347 314
3 346 52 347
3 314 348 315
3 347 54 348
3 315 349 316
3 348 56 349
3 316 350 317
3 349 58 350
3 317 351 318
3 350 60 351
3 318 352 319
3 351 62 352
3 319 353 320
3 352 64 353
3 3 353 64
3 321 320 353
3 3 0 2
3 4 2 5
3 6 5 7
3 8 7 9
3 10 9 11
3 12 11 13
3 14 13 15
3 16 15 17
3 18 17 19
3 20 19 21
3 22 21 23
3 24 23 25
3 26 25 27
3 28 27 29
3 30 29 31
3 32 31 33
3 33 35 36
3 35 37 38
3 37 39 40
3 39 41 42
3 41 43 44
3 43 45 46
3 45 47 48
3 47 49 50
3 49 51 52
3 51 53 54
3 53 55 56
3 55 57 58
3 57 59 60
3 59 61 62
3 61 63 64
3 63 0 3
3 68 70 65
3 69 65 70
3 72 69 71
3 74 72 73
3 76 74 75
3 78 76 77
3 80 78 79
3 82 80 81
3 84 82 83
3 86 84 85
3 88 86 87
3 90 88 89
3 92 90 91
3 94 92 93
3 96 94 95
3 98 96 97
3 101 100 98
3 103 102 100
3 105 104 102
3 107 106 104
3 109 108 106
3 111 110 108
3 113 112 110
3 115 114 112
3 117 116 114
3 119 118 116
3 121 120 118
3 123 122 120
3 125 124 122
3 127 126 124
3 129 128 126
3 68 67 128
3 130 133 131
3 133 135 134
3 135 137 136
3 137 139 138
3 139 141 140
3 141 143 142
3 143 145 144
3 145 147 146
3 147 256 148
3 148 256 149
3 150 149 151
3 152 151 153
3 154 153 155
3 156 155 157
3 158 157 159
3 160 159 161
3 162 161 163
3 164 163 165
3 166 165 167
3 168 167 169
3 170 169 171
3 172 171 173
3 174 173 175
3 176 175 177
3 178 177 179
3 180 179 181
3 182 181 183
3 184 183 185
3 186 185 187
3 188 187 189
3 190 189 191
3 130 132 192
3 193 196 194
3 196 198 197
3 198 200 199
3 200 202 201
3 202 204 203
3 204 206 205
3 206 208 207
3 208 210 209
3 210 212 211
3 212 299 213
3 213 299 214
3 215 214 216
3 217 216 218
3 219 218 220
3 221 220 222
3 223 222 224
3 225 224 226
3 227 226 228
3 229 228 230
3 231 230 232
3 233 232 234
3 235 234 236
3 237 236 238
3 239 238 240
3 241 240 242
3 243 242 244
3 245 244 246
3 247 246 248
3 249 248 250
3 251 250 252
3 253 252 254
3 193 195 255
3 195 194 133
3 194 197 135
3 197 199 137
3 199 201 139
3 201 203 141
3 203 205 143
3 205 207 145
3 207 209 147
3 209 211 256
3 211 213 149
3 213 215 151
3 215 217 153
3 217 219 155
3 155 219 221
3 157 221 223
3 159 223 225
3 161 225 227
3 163 227 229
3 165 229 231
3 167 231 233
3 169 233 235
3 171 235 237
3 173 237 239
3 175 239 241
3 177 241 243
3 179 243 245
3 181 245 247
3 183 247 249
3 185 249 251
3 187 251 253
3 189 253 255
3 195 130 191
3 257 258 70
3 132 131 258
3 258 259 71
3 131 134 259
3 259 260 73
3 134 136 260
3 260 261 75
3 136 138 261
3 261 262 77
3 138 140 262
3 262 263 79
3 140 142 263
3 263 264 81
3 142 144 264
3 264 265 83
3 144 146 265
3 265 266 85
3 146 148 266
3 85 266 267
3 148 150 267
3 87 267 268
3 267 150 152
3 89 268 269
3 268 152 154
3 91 269 270
3 269 154 156
3 93 270 271
3 270 156 158
3 95 271 272
3 271 158 160
3 97 272 273
3 272 160 162
3 99 273 274
3 273 162 164
3 101 274 275
3 274 164 166
3 103 275 276
3 275 166 168
3 105 276 277
3 276 168 170
3 107 277 278
3 277 170 172
3 109 278 279
3 278 172 174
3 111 279 280
3 279 174 176
3 113 280 281
3 280 176 178
3 115 281 282
3 281 178 180
3 117 282 283
3 282 180 182
3 119 283 284
3 283 182 184
3 121 284 285
3 284 184 186
3 123 285 286
3 285 186 188
3 125 286 287
3 286 188 190
3 127 287 288
3 287 190 192
3 132 257 288
3 257 68 129
3 289 290 196
3 290 291 198
3 291 292 200
3 292 293 202
3 293 294 204
3 294 295 206
3 295 296 208
3 296 297 210
3 297 298 212
3 298 331 299
3 299 331 300
3 214 300 301
3 216 301 302
3 218 302 303
3 220 303 304
3 222 304 305
3 224 305 306
3 226 306 307
3 228 307 308
3 230 308 309
3 232 309 310
3 234 310 311
3 236 311 312
3 238 312 313
3 240 313 314
3 242 314 315
3 244 315 316
3 246 316 317
3 248 317 318
3 250 318 319
3 252 319 320
3 289 193 254
3 321 322 290
3 3 4 322
3 322 323 291
3 4 6 323
3 323 324 292
3 6 8 324
3 324 325 293
3 8 10 325
3 325 326 294
3 10 12 326
3 326 327 295
3 12 14 327
3 327 328 296
3 14 16 328
3 328 329 297
3 16 18 329
3 329 330 298
3 18 20 330
3 330 332 331
3 20 22 332
3 331 332 333
3 332 22 24
3 300 333 334
3 333 24 26
3 301 334 335
3 334 26 28
3 302 335 336
3 335 28 30
3 303 336 337
3 336 30 32
3 304 337 338
3 337 32 34
3 305 338 339
3 338 34 36
3 306 339 340
3 339 36 38
3 307 340 341
3 340 38 40
3 308 341 342
3 341 40 42
3 309 342 343
3 342 42 44
3 310 343 344
3 343 44 46
3 311 344 345
3 344 46 48
3 312 345 346
3 345 48 50
3 313 346 347
3 346 50 52
3 314 347 348
3 347 52 54
3 315 348 349
3 348 54 56
3 316 349 350
3 349 56 58
3 317 350 351
3 350 58 60
3 318 351 352
3 351 60 62
3 319 352 353
3 352 62 64
3 3 321 353
3 321 289 320
