ply
format ascii 1.0
comment Created by Blender 2.79 (sub 0) - www.blender.org, source file: 'barrel.blend'
element vertex 304
property float x
property float y
property float z
property float nx
property float ny
property float nz
element face 600
property list uchar uint vertex_indices
end_header
0.000000 0.500000 0.301693 0.000000 0.935636 0.352886
-0.117727 0.495506 0.284219 -0.382611 0.015900 0.923734
0.000000 0.495506 0.307636 0.000000 0.015900 0.999847
-0.115453 0.500000 0.278728 -0.135044 0.935636 0.326029
-0.217532 0.495506 0.217532 -0.706992 0.015900 0.706992
-0.213329 0.500000 0.213329 -0.249519 0.935636 0.249519
-0.284219 0.495506 0.117727 -0.923734 0.015900 0.382611
-0.301693 0.500000 -0.000000 -0.352886 0.935636 0.000000
-0.307636 0.495506 -0.000000 -0.999847 0.015900 0.000000
-0.284219 0.495506 -0.117727 -0.923734 0.015900 -0.382611
-0.278728 0.500000 -0.115453 -0.326029 0.935636 -0.135044
-0.217532 0.495506 -0.217532 -0.706992 0.015900 -0.706992
-0.213329 0.500000 -0.213329 -0.249519 0.935636 -0.249519
-0.117727 0.495506 -0.284219 -0.382611 0.015900 -0.923734
-0.000000 0.500000 -0.301693 0.000000 0.935636 -0.352886
-0.000000 0.495506 -0.307636 0.000000 0.015900 -0.999847
0.117727 0.495506 -0.284219 0.382611 0.015900 -0.923734
0.115453 0.500000 -0.278728 0.135044 0.935636 -0.326029
0.217532 0.495506 -0.217532 0.706992 0.015900 -0.706992
0.278728 0.500000 -0.115453 0.326029 0.935636 -0.135044
0.284219 0.495506 -0.117727 0.923734 0.015900 -0.382611
0.301693 0.500000 0.000000 0.352886 0.935636 0.000000
0.307636 0.495506 0.000000 0.999847 0.015900 0.000000
0.284219 0.495506 0.117727 0.923734 0.015900 0.382611
0.278728 0.500000 0.115453 0.326029 0.935636 0.135044
0.217532 0.495506 0.217532 0.706992 0.015900 0.706992
0.213329 0.500000 0.213329 0.249519 0.935636 0.249519
0.117727 0.495506 0.284219 0.382611 0.015900 0.923734
0.115453 0.500000 0.278728 0.135044 0.935636 0.326029
0.119952 -0.171681 0.289591 0.381054 -0.092105 0.919950
0.000000 -0.180180 0.301693 0.000000 -0.479629 0.877438
0.115453 -0.180180 0.278728 0.335765 -0.479629 0.810663
0.120143 0.168986 0.290051 0.382397 0.037019 0.923215
0.000000 0.156750 0.301693 0.000000 -0.400983 0.916074
0.115453 0.156750 0.278728 0.350566 -0.400983 0.846339
0.213329 -0.180180 0.213329 0.620441 -0.479629 0.620441
0.213329 0.156750 0.213329 0.647755 -0.400983 0.647755
0.278728 -0.180180 0.115453 0.810663 -0.479629 0.335765
0.221643 -0.171681 0.221643 0.704093 -0.092105 0.704093
0.290050 0.168986 0.120143 0.923215 0.037019 0.382397
0.278728 0.156750 0.115453 0.846339 -0.400983 0.350566
0.313451 -0.171681 0.000000 0.995727 -0.092105 0.000000
0.301693 -0.180180 0.000000 0.877438 -0.479629 0.000000
0.313948 0.168986 0.000000 0.999298 0.037019 0.000000
0.301693 0.156750 0.000000 0.916074 -0.400983 0.000000
0.278728 -0.180180 -0.115453 0.810663 -0.479629 -0.335765
0.278728 0.156750 -0.115453 0.846339 -0.400983 -0.350566
0.221643 -0.171681 -0.221643 0.704093 -0.092105 -0.704093
0.213329 -0.180180 -0.213329 0.620441 -0.479629 -0.620441
0.213329 0.156750 -0.213329 0.647755 -0.400983 -0.647755
0.290050 0.168986 -0.120143 0.923215 0.037019 -0.382397
0.119952 -0.171681 -0.289591 0.381054 -0.092105 -0.919950
0.115453 -0.180180 -0.278728 0.335765 -0.479629 -0.810663
0.115453 0.156750 -0.278728 0.350566 -0.400983 -0.846339
0.221995 0.168986 -0.221995 0.706595 0.037019 -0.706595
-0.000000 -0.171681 -0.313451 0.000000 -0.092105 -0.995727
-0.000000 -0.180180 -0.301693 0.000000 -0.479629 -0.877438
-0.000000 0.156750 -0.301693 0.000000 -0.400983 -0.916074
0.120143 0.168986 -0.290051 0.382397 0.037019 -0.923215
-0.115453 -0.180180 -0.278728 -0.335765 -0.479629 -0.810663
-0.115453 0.156750 -0.278728 -0.350566 -0.400983 -0.846339
-0.000000 0.168986 -0.313948 0.000000 0.037019 -0.999298
-0.221643 -0.171681 -0.221643 -0.704093 -0.092105 -0.704093
-0.213329 -0.180180 -0.213329 -0.620441 -0.479629 -0.620441
-0.213329 0.156750 -0.213329 -0.647755 -0.400983 -0.647755
-0.120143 0.168986 -0.290051 -0.382397 0.037019 -0.923215
-0.289591 -0.171681 -0.119952 -0.919950 -0.092105 -0.381054
-0.278728 -0.180180 -0.115453 -0.810663 -0.479629 -0.335765
-0.290051 0.168986 -0.120143 -0.923215 0.037019 -0.382397
-0.278728 0.156750 -0.115453 -0.846339 -0.400983 -0.350566
-0.313451 -0.171681 -0.000000 -0.995727 -0.092105 0.000000
-0.301693 -0.180180 -0.000000 -0.877438 -0.479629 0.000000
-0.313948 0.168986 -0.000000 -0.999298 0.037019 0.000000
-0.301693 0.156750 -0.000000 -0.916074 -0.400983 0.000000
-0.289591 -0.171681 0.119952 -0.919950 -0.092105 0.381054
-0.278728 -0.180180 0.115453 -0.810663 -0.479629 0.335765
-0.290051 0.168986 0.120143 -0.923215 0.037019 0.382397
-0.278728 0.156750 0.115453 -0.846339 -0.400983 0.350566
-0.213329 -0.180180 0.213329 -0.620441 -0.479629 0.620441
-0.213329 0.156750 0.213329 -0.647755 -0.400983 0.647755
-0.115453 -0.180180 0.278728 -0.335765 -0.479629 0.810663
-0.221643 -0.171681 0.221643 -0.704093 -0.092105 0.704093
-0.120143 0.168986 0.290051 -0.382397 0.037019 0.923215
-0.115453 0.156750 0.278728 -0.350566 -0.400983 0.846339
0.000000 -0.171681 0.313451 0.000000 -0.092105 0.995727
0.000000 0.168986 0.313948 0.000000 0.037019 0.999298
0.000000 0.179392 0.301693 0.000000 0.441206 0.897366
0.213329 0.179392 0.213329 0.634541 0.441206 0.634541
0.221995 0.168986 0.221995 0.706595 0.037019 0.706595
0.278728 0.179392 0.115453 0.829066 0.441206 0.343394
0.278728 0.179392 -0.115453 0.829066 0.441206 -0.343394
0.213329 0.179392 -0.213329 0.634541 0.441206 -0.634541
0.115453 0.179392 -0.278728 0.343394 0.441206 -0.829066
-0.000000 0.179392 -0.301693 0.000000 0.441206 -0.897366
-0.115453 0.179392 -0.278728 -0.343394 0.441206 -0.829066
-0.213329 0.179392 -0.213329 -0.634541 0.441206 -0.634541
-0.221995 0.168986 -0.221995 -0.706595 0.037019 -0.706595
-0.278728 0.179392 -0.115453 -0.829066 0.441206 -0.343394
-0.278728 0.179392 0.115453 -0.829066 0.441206 0.343394
-0.213329 0.179392 0.213329 -0.634541 0.441206 0.634541
-0.221995 0.168986 0.221995 -0.706595 0.037019 0.706595
-0.115453 0.179392 0.278728 -0.343394 0.441206 0.829066
0.000000 -0.158908 0.301693 0.000000 0.379711 0.925077
0.213329 -0.158908 -0.213329 0.654134 0.379711 -0.654134
0.115453 -0.158908 -0.278728 0.354015 0.379711 -0.854671
-0.213329 -0.158908 -0.213329 -0.654134 0.379711 -0.654134
-0.278728 -0.158908 -0.115453 -0.854671 0.379711 -0.354015
-0.197475 0.500000 -0.197475 0.464644 0.753746 0.464644
-0.106873 0.468992 -0.258014 0.285531 0.665700 0.689383
-0.106873 0.500000 -0.258014 0.251473 0.753746 0.607105
0.231192 0.480833 -0.017287 0.689383 0.665700 -0.285531
0.234158 0.466559 -0.002372 0.700156 0.000000 0.713981
0.231192 0.466559 -0.017287 0.823298 0.000000 0.567553
0.278728 -0.158908 -0.115453 0.854671 0.379711 -0.354015
-0.000000 -0.158908 -0.301693 0.000000 0.379711 -0.925077
0.115453 -0.158908 0.278728 0.354015 0.379711 0.854671
0.213329 -0.158908 0.213329 0.654134 0.379711 0.654134
0.278728 -0.158908 0.115453 0.854671 0.379711 0.354015
0.289591 -0.171681 0.119952 0.919950 -0.092105 0.381054
0.289591 -0.171681 -0.119952 0.919950 -0.092105 -0.381054
-0.115453 -0.158908 -0.278728 -0.354015 0.379711 -0.854671
-0.119952 -0.171681 -0.289591 -0.381054 -0.092105 -0.919950
-0.301693 -0.158908 -0.000000 -0.925077 0.379711 0.000000
-0.213329 -0.158908 0.213329 -0.654134 0.379711 0.654134
-0.115453 -0.158908 0.278728 -0.354015 0.379711 0.854671
-0.119952 -0.171681 0.289591 -0.381054 -0.092105 0.919950
0.000000 -0.488146 0.301693 0.000000 0.340800 0.940123
0.180268 0.480833 0.033637 -0.285531 0.665700 0.689383
0.167624 0.466559 0.025188 -0.378918 0.000000 0.925413
0.180268 0.466559 0.033637 -0.193152 0.000000 0.981140
-0.106873 0.500000 0.258014 0.251473 0.753746 -0.607105
-0.197475 0.468992 0.197475 0.527635 0.665700 -0.527635
-0.197475 0.500000 0.197475 0.464644 0.753746 -0.464644
0.231192 0.480833 0.012544 0.689383 0.665700 0.285531
0.222743 0.466559 0.025188 0.378918 0.000000 0.925413
0.231192 0.466559 0.012544 0.550127 0.000000 0.835047
0.106873 0.500000 -0.258014 -0.251473 0.753746 0.607105
0.301693 -0.488146 0.000000 0.940123 0.340800 0.000000
0.278728 -0.488146 -0.115453 0.868557 0.340800 -0.359752
0.278728 0.490677 0.115453 0.824122 -0.451949 0.341350
0.115453 -0.488146 0.278728 0.359752 0.340800 0.868557
0.213329 -0.488146 0.213329 0.664754 0.340800 0.664754
0.000000 0.490677 0.301693 0.000000 -0.451949 0.892026
0.115453 0.490677 0.278728 0.341350 -0.451949 0.824122
0.213329 0.490677 0.213329 0.630757 -0.451949 0.630757
0.301693 0.490677 0.000000 0.892026 -0.451949 0.000000
0.278728 0.490677 -0.115453 0.824122 -0.451949 -0.341350
0.213329 0.490677 -0.213329 0.630757 -0.451949 -0.630757
0.115453 0.490677 -0.278728 0.341350 -0.451949 -0.824122
-0.000000 0.490677 -0.301693 0.000000 -0.451949 -0.892026
-0.115453 0.490677 -0.278728 -0.341350 -0.451949 -0.824122
-0.213329 0.490677 -0.213329 -0.630757 -0.451949 -0.630757
-0.278728 0.490677 -0.115453 -0.824122 -0.451949 -0.341350
-0.301693 0.490677 -0.000000 -0.892026 -0.451949 0.000000
-0.278728 0.490677 0.115453 -0.824122 -0.451949 0.341350
-0.213329 0.490677 0.213329 -0.630757 -0.451949 0.630757
-0.115453 0.490677 0.278728 -0.341350 -0.451949 0.824122
0.115453 -0.500000 0.278728 0.180151 -0.882229 0.434950
0.000000 -0.494173 0.306442 0.000000 -0.007660 0.999969
0.000000 -0.500000 0.301693 0.000000 -0.882229 0.470779
0.213329 -0.500000 0.213329 0.332896 -0.882229 0.332896
0.117270 -0.494173 0.283116 0.382672 -0.007660 0.923826
0.283116 -0.494173 0.117270 0.923826 -0.007660 0.382672
0.278728 -0.500000 0.115453 0.434950 -0.882229 0.180151
0.301693 -0.500000 0.000000 0.470809 -0.882229 0.000000
0.278728 -0.500000 -0.115453 0.434950 -0.882229 -0.180151
0.306442 -0.494173 0.000000 0.999969 -0.007660 0.000000
0.213329 -0.500000 -0.213329 0.332896 -0.882229 -0.332896
0.283116 -0.494173 -0.117270 0.923826 -0.007660 -0.382641
0.117270 -0.494173 -0.283116 0.382672 -0.007660 -0.923826
0.115453 -0.500000 -0.278728 0.180151 -0.882229 -0.434950
-0.000000 -0.494173 -0.306442 0.000000 -0.007660 -0.999969
-0.000000 -0.500000 -0.301693 0.000000 -0.882229 -0.470809
-0.117270 -0.494173 -0.283116 -0.382672 -0.007660 -0.923826
-0.115453 -0.500000 -0.278728 -0.180151 -0.882229 -0.434950
-0.213329 -0.500000 -0.213329 -0.332896 -0.882229 -0.332896
-0.283116 -0.494173 -0.117270 -0.923826 -0.007660 -0.382641
-0.278728 -0.500000 -0.115453 -0.434950 -0.882229 -0.180151
-0.306442 -0.494173 -0.000000 -0.999969 -0.007660 0.000000
-0.301693 -0.500000 -0.000000 -0.470809 -0.882229 0.000000
-0.283116 -0.494173 0.117270 -0.923826 -0.007660 0.382641
-0.278728 -0.500000 0.115453 -0.434950 -0.882229 0.180151
-0.213329 -0.500000 0.213329 -0.332896 -0.882229 0.332896
-0.117270 -0.494173 0.283116 -0.382672 -0.007660 0.923826
-0.115453 -0.500000 0.278728 -0.180151 -0.882229 0.434950
0.301693 0.179392 0.000000 0.897366 0.441206 0.000000
0.115453 0.179392 0.278728 0.343394 0.441206 0.829066
0.251256 -0.462103 0.104074 -0.689383 -0.665700 -0.285531
0.271957 -0.500000 0.000000 -0.657125 -0.753746 0.000000
0.251256 -0.500000 0.104074 -0.607105 -0.753746 -0.251473
0.301693 -0.158908 0.000000 0.925077 0.379711 0.000000
0.180268 0.480833 -0.038380 -0.285531 0.665700 -0.689383
0.195183 0.466559 -0.041347 0.000000 0.000000 1.000000
0.180268 0.466559 -0.038380 -0.970000 0.000000 0.242988
-0.278728 -0.158908 0.115453 -0.854671 0.379711 0.354015
0.234158 0.480833 -0.002372 0.746178 0.665700 0.000000
-0.192303 -0.500000 -0.192303 0.464644 -0.753746 0.464644
-0.251256 -0.462103 -0.104074 0.689383 -0.665700 0.285531
-0.251256 -0.500000 -0.104074 0.607105 -0.753746 0.251473
0.159175 0.480833 -0.017287 -0.689383 0.665700 -0.285531
0.210098 0.480833 0.033637 0.285531 0.665700 0.689383
0.000000 -0.462103 0.271957 0.000000 -0.665700 -0.746178
-0.192303 -0.462103 -0.192303 0.527635 -0.665700 0.527635
-0.000000 -0.462103 -0.271957 0.000000 -0.665700 0.746178
0.213329 -0.488146 -0.213329 0.664754 0.340800 -0.664754
-0.115453 -0.488146 -0.278728 -0.359752 0.340800 -0.868557
-0.213329 -0.488146 -0.213329 -0.664754 0.340800 -0.664754
-0.301693 -0.488146 -0.000000 -0.940123 0.340800 0.000000
-0.278728 -0.488146 0.115453 -0.868557 0.340800 0.359752
-0.213329 -0.488146 0.213329 -0.664754 0.340800 0.664754
-0.115453 -0.488146 0.278728 -0.359752 0.340800 0.868557
0.115453 -0.488146 -0.278728 0.359752 0.340800 -0.868557
-0.000000 -0.488146 -0.301693 0.000000 0.340800 -0.940123
-0.301693 0.179392 -0.000000 -0.897366 0.441206 0.000000
0.195183 0.466559 0.036604 0.000000 0.000000 1.000000
0.210098 0.466559 0.033637 0.193152 0.000000 0.981140
-0.271957 -0.462103 -0.000000 0.746178 -0.665700 0.000000
-0.251256 -0.500000 0.104074 0.607105 -0.753746 -0.251473
-0.271957 -0.500000 -0.000000 0.657125 -0.753746 0.000000
-0.216687 -0.494173 0.216687 -0.707083 -0.007660 0.707083
-0.278728 -0.488146 -0.115453 -0.868557 0.340800 -0.359752
-0.216687 -0.494173 -0.216687 -0.707083 -0.007660 -0.707083
0.216687 -0.494173 -0.216687 0.707083 -0.007660 -0.707083
0.216687 -0.494173 0.216687 0.707083 -0.007660 0.707083
0.258014 0.468992 -0.106873 -0.689383 0.665700 0.285531
0.197475 0.500000 -0.197476 -0.464644 0.753746 0.464644
0.197475 0.468992 -0.197476 -0.527635 0.665700 0.527635
-0.000000 0.500000 0.279272 0.000000 0.753746 -0.657125
-0.000000 -0.500000 0.271957 0.000000 -0.753746 -0.657125
-0.104074 -0.462103 0.251256 0.285531 -0.665700 -0.689383
-0.279272 0.468992 -0.000000 0.746178 0.665700 0.000000
-0.258014 0.500000 0.106873 0.607105 0.753746 -0.251473
-0.258014 0.468992 0.106873 0.689383 0.665700 -0.285531
0.278728 -0.488146 0.115453 0.868557 0.340800 0.359752
0.222743 0.480833 0.025188 0.527635 0.665700 0.527635
0.258014 0.468992 0.106873 -0.689383 0.665700 -0.285531
0.197475 0.500000 0.197476 -0.464644 0.753746 -0.464644
0.258014 0.500000 0.106873 -0.607105 0.753746 -0.251473
0.192303 -0.500000 0.192303 -0.464644 -0.753746 -0.464644
0.104073 -0.462103 0.251256 -0.285531 -0.665700 -0.689383
0.192303 -0.462103 0.192303 -0.527635 -0.665700 -0.527635
0.106873 0.468992 0.258014 -0.285531 0.665700 -0.689383
0.106873 0.500000 0.258014 -0.251473 0.753746 -0.607105
-0.000000 0.468992 -0.279272 0.000000 0.665700 0.746178
-0.000000 0.500000 -0.279272 0.000000 0.753746 0.657125
0.251256 -0.462103 -0.104074 -0.689383 -0.665700 0.285531
0.251256 -0.500000 -0.104074 -0.607105 -0.753746 0.251473
0.106873 0.468992 -0.258014 -0.285531 0.665700 0.689383
-0.258014 0.500000 -0.106873 0.607105 0.753746 0.251473
-0.197475 0.468992 -0.197475 0.527635 0.665700 0.527635
0.258014 0.500000 -0.106873 -0.607105 0.753746 0.251473
0.279272 0.468992 0.000000 -0.746178 0.665700 0.000000
0.279272 0.500000 0.000000 -0.657125 0.753746 0.000000
-0.106873 0.468992 0.258014 0.285531 0.665700 -0.689383
0.197475 0.468992 0.197476 -0.527635 0.665700 -0.527635
-0.192303 -0.462103 0.192303 0.527635 -0.665700 -0.527635
-0.104074 -0.500000 0.251256 0.251473 -0.753746 -0.607105
-0.192303 -0.500000 0.192303 0.464644 -0.753746 -0.464644
0.104074 -0.462103 -0.251256 -0.285531 -0.665700 0.689383
0.192303 -0.500000 -0.192303 -0.464644 -0.753746 0.464644
0.192303 -0.462103 -0.192303 -0.527635 -0.665700 0.527635
-0.251256 -0.462103 0.104074 0.689383 -0.665700 -0.285531
-0.104074 -0.500000 -0.251256 0.251473 -0.753746 0.607105
0.104074 -0.500000 -0.251256 -0.251473 -0.753746 0.607105
-0.000000 -0.500000 -0.271957 0.000000 -0.753746 0.657125
-0.104074 -0.462103 -0.251256 0.285531 -0.665700 0.689383
0.195183 0.480833 -0.041347 0.000000 0.665700 -0.746178
0.210098 0.466559 -0.038380 0.970000 0.000000 0.242988
0.222743 0.480833 -0.029931 0.527635 0.665700 -0.527635
0.222743 0.466559 -0.029931 0.914609 0.000000 0.404309
0.167624 0.480833 -0.029931 -0.527635 0.665700 -0.527635
0.167624 0.466559 -0.029931 -0.914640 0.000000 0.404187
0.156208 0.480833 -0.002372 -0.746178 0.665700 0.000000
0.159175 0.466559 -0.017287 -0.823298 0.000000 0.567553
0.156208 0.466559 -0.002372 -0.700186 0.000000 0.713920
0.159175 0.480833 0.012544 -0.689383 0.665700 0.285531
0.159175 0.466559 0.012544 -0.550157 0.000000 0.835047
0.167624 0.480833 0.025188 -0.527635 0.665700 0.527635
0.210098 0.480833 -0.038380 0.285531 0.665700 -0.689383
0.180268 0.466559 -0.038380 0.000000 -0.658498 0.752556
0.231192 0.466559 -0.017287 0.000000 -0.658437 0.752586
0.210098 0.466559 0.033637 0.000000 -0.658437 0.752617
0.180268 0.466559 0.033637 0.000000 -0.658498 0.752556
0.195183 0.466559 0.036604 0.000000 -0.658437 0.752617
0.167624 0.466559 0.025188 0.000000 -0.658437 0.752617
0.159175 0.466559 0.012544 0.000000 -0.658437 0.752617
0.156208 0.466559 -0.002372 0.000000 -0.658498 0.752556
0.159175 0.466559 -0.017287 0.000000 -0.658498 0.752556
0.167624 0.466559 -0.029931 0.000000 -0.658498 0.752556
0.195183 0.466559 -0.041347 0.000000 -0.658437 0.752617
0.210098 0.466559 -0.038380 0.000000 -0.658498 0.752556
0.222743 0.466559 -0.029931 0.000000 -0.658437 0.752617
0.234158 0.466559 -0.002372 0.000000 -0.658498 0.752556
0.231192 0.466559 0.012544 0.000000 -0.658437 0.752617
0.222743 0.466559 0.025188 0.000000 -0.658437 0.752586
0.104073 -0.500000 0.251256 -0.251473 -0.753746 -0.607105
-0.258014 0.468992 -0.106873 0.689383 0.665700 0.285531
-0.279272 0.500000 -0.000000 0.657125 0.753746 0.000000
0.195183 0.480833 0.036604 0.000000 0.665700 0.746178
-0.278728 0.500000 0.115453 -0.326029 0.935636 0.135044
-0.115453 0.500000 -0.278728 -0.135044 0.935636 -0.326029
0.213329 0.500000 -0.213329 0.249519 0.935636 -0.249519
0.271957 -0.462103 0.000000 -0.746178 -0.665700 0.000000
-0.000000 0.468992 0.279272 0.000000 0.665700 -0.746178
3 0 1 2
3 3 4 1
3 5 6 4
3 6 7 8
3 7 9 8
3 10 11 9
3 12 13 11
3 13 14 15
3 14 16 15
3 17 18 16
3 18 19 20
3 20 21 22
3 21 23 22
3 24 25 23
3 26 27 25
3 28 2 27
3 29 30 31
3 32 33 34
3 35 29 31
3 36 32 34
3 37 38 35
3 39 36 40
3 41 37 42
3 43 40 44
3 45 41 42
3 46 43 44
3 47 45 48
3 49 50 46
3 51 48 52
3 53 54 49
3 55 52 56
3 57 58 53
3 59 55 56
3 60 61 57
3 62 59 63
3 64 65 60
3 66 63 67
3 68 64 69
3 70 67 71
3 72 69 73
3 74 71 75
3 76 73 77
3 78 74 75
3 79 76 77
3 80 81 78
3 82 79 83
3 84 80 30
3 85 83 33
3 32 86 85
3 87 32 88
3 39 87 88
3 43 89 39
3 90 43 50
3 91 50 54
3 92 54 58
3 93 58 61
3 94 61 65
3 95 65 96
3 68 95 96
3 72 97 68
3 98 72 76
3 99 76 100
3 82 99 100
3 85 101 82
3 83 102 33
3 53 103 104
3 69 105 106
3 107 108 109
3 110 111 112
3 49 113 103
3 57 104 114
3 36 115 116
3 34 102 115
3 29 102 84
3 116 29 38
3 117 38 118
3 41 117 118
3 113 41 119
3 103 119 47
3 104 47 51
3 55 104 51
3 120 55 121
3 62 120 121
3 66 105 62
3 122 66 70
3 74 122 70
3 123 74 81
3 124 81 125
3 84 124 125
3 80 126 30
3 127 128 129
3 60 114 120
3 130 131 132
3 133 134 135
3 17 14 136
3 45 137 138
3 139 87 89
3 35 140 141
3 27 142 143
3 144 27 143
3 139 25 144
3 145 23 139
3 20 145 146
3 18 146 147
3 148 18 147
3 149 16 148
3 13 149 150
3 11 150 151
3 9 151 152
3 153 9 152
3 6 153 154
3 4 154 155
3 1 155 156
3 142 1 156
3 157 158 159
3 160 161 157
3 162 160 163
3 164 162 163
3 165 166 164
3 167 168 165
3 169 167 170
3 171 170 172
3 173 172 174
3 175 173 174
3 176 175 177
3 178 177 179
3 180 179 181
3 182 180 181
3 183 182 184
3 158 184 159
3 150 93 94
3 151 94 95
3 148 91 92
3 147 90 91
3 146 185 90
3 144 186 87
3 187 188 189
3 40 116 117
3 44 117 190
3 64 120 105
3 191 192 193
3 79 194 123
3 195 135 111
3 196 197 198
3 199 200 133
3 31 126 140
3 201 202 203
3 48 138 204
3 63 205 206
3 75 207 208
3 78 208 209
3 80 209 210
3 145 89 185
3 56 211 212
3 153 97 213
3 152 95 97
3 200 214 215
3 149 92 93
3 216 198 197
3 216 217 218
3 156 99 101
3 126 183 158
3 183 209 219
3 209 180 219
3 208 178 180
3 178 220 176
3 176 206 221
3 206 173 221
3 205 171 173
3 171 211 169
3 169 204 222
3 204 168 222
3 138 166 168
3 137 162 166
3 162 141 223
3 141 161 223
3 140 158 161
3 224 225 226
3 130 3 227
3 228 229 201
3 230 231 232
3 37 141 233
3 234 215 134
3 235 236 237
3 238 239 240
3 241 227 242
3 243 136 244
3 188 245 246
3 247 225 136
3 132 232 231
3 248 249 107
3 250 251 252
3 67 206 220
3 73 106 122
3 42 233 137
3 227 253 130
3 254 242 236
3 198 218 179
3 163 188 164
3 83 123 124
3 255 256 257
3 258 259 260
3 261 257 217
3 52 204 211
3 155 98 99
3 71 220 207
3 240 189 238
3 77 122 194
3 262 202 196
3 263 203 264
3 59 212 205
3 142 101 86
3 251 237 252
3 246 260 259
3 264 265 262
3 266 267 192
3 268 112 269
3 270 193 271
3 272 273 274
3 199 271 273
3 46 190 113
3 275 274 276
3 277 276 128
3 278 269 267
3 279 280 281
3 214 282 283
3 129 284 282
3 128 285 284
3 276 286 285
3 274 287 286
3 273 288 287
3 271 279 288
3 193 289 279
3 192 290 289
3 267 291 290
3 269 280 291
3 112 292 280
3 111 293 292
3 135 294 293
3 134 281 294
3 215 283 281
3 295 201 239
3 108 244 109
3 154 213 98
3 296 253 235
3 143 86 186
3 297 296 248
3 298 129 214
3 0 3 1
3 3 5 4
3 5 299 6
3 6 299 7
3 7 10 9
3 10 12 11
3 12 300 13
3 13 300 14
3 14 17 16
3 17 301 18
3 18 301 19
3 20 19 21
3 21 24 23
3 24 26 25
3 26 28 27
3 28 0 2
3 29 84 30
3 32 85 33
3 35 38 29
3 36 88 32
3 37 118 38
3 39 88 36
3 41 118 37
3 43 39 40
3 45 119 41
3 46 50 43
3 47 119 45
3 49 54 50
3 51 47 48
3 53 58 54
3 55 51 52
3 57 61 58
3 59 121 55
3 60 65 61
3 62 121 59
3 64 96 65
3 66 62 63
3 68 96 64
3 70 66 67
3 72 68 69
3 74 70 71
3 76 72 73
3 78 81 74
3 79 100 76
3 80 125 81
3 82 100 79
3 84 125 80
3 85 82 83
3 32 186 86
3 87 186 32
3 39 89 87
3 43 185 89
3 90 185 43
3 91 90 50
3 92 91 54
3 93 92 58
3 94 93 61
3 95 94 65
3 68 97 95
3 72 213 97
3 98 213 72
3 99 98 76
3 82 101 99
3 85 86 101
3 83 124 102
3 53 49 103
3 69 64 105
3 107 249 108
3 110 195 111
3 49 46 113
3 57 53 104
3 36 34 115
3 34 33 102
3 29 115 102
3 116 115 29
3 117 116 38
3 41 190 117
3 113 190 41
3 103 113 119
3 104 103 47
3 55 114 104
3 120 114 55
3 62 105 120
3 66 106 105
3 122 106 66
3 74 194 122
3 123 194 74
3 124 123 81
3 84 102 124
3 80 210 126
3 127 277 128
3 60 57 114
3 130 253 131
3 133 234 134
3 225 301 17
3 14 300 244
3 300 109 244
3 136 225 17
3 14 244 136
3 45 42 137
3 139 144 87
3 35 31 140
3 27 2 142
3 144 25 27
3 139 23 25
3 145 22 23
3 20 22 145
3 18 20 146
3 148 16 18
3 149 15 16
3 13 15 149
3 11 13 150
3 9 11 151
3 153 8 9
3 6 8 153
3 4 6 154
3 1 4 155
3 142 2 1
3 157 161 158
3 160 223 161
3 162 223 160
3 164 166 162
3 165 168 166
3 167 222 168
3 169 222 167
3 171 169 170
3 173 171 172
3 175 221 173
3 176 221 175
3 178 176 177
3 180 178 179
3 182 219 180
3 183 219 182
3 158 183 184
3 150 149 93
3 151 150 94
3 148 147 91
3 147 146 90
3 146 145 185
3 144 143 186
3 187 302 188
3 40 36 116
3 44 40 117
3 64 60 120
3 191 266 192
3 79 77 194
3 195 133 135
3 196 202 197
3 133 195 278
3 110 268 278
3 278 266 199
3 191 270 199
3 199 272 275
3 275 277 127
3 127 298 200
3 200 234 133
3 195 110 278
3 266 191 199
3 199 275 127
3 127 200 199
3 133 278 199
3 31 30 126
3 203 258 260
3 260 245 302
3 302 187 240
3 240 239 201
3 201 229 255
3 255 261 201
3 216 197 202
3 202 265 203
3 203 260 302
3 302 240 201
3 201 261 216
3 216 202 201
3 203 302 201
3 48 45 138
3 63 59 205
3 75 71 207
3 78 75 208
3 80 78 209
3 145 139 89
3 56 52 211
3 153 152 97
3 152 151 95
3 200 298 214
3 149 148 92
3 216 218 198
3 216 261 217
3 156 155 99
3 126 210 183
3 183 210 209
3 209 208 180
3 208 207 178
3 178 207 220
3 176 220 206
3 206 205 173
3 205 212 171
3 171 212 211
3 169 211 204
3 204 138 168
3 138 137 166
3 137 233 162
3 162 233 141
3 141 140 161
3 140 126 158
3 224 250 225
3 19 301 225
3 19 225 250
3 109 300 12
3 107 109 12
3 21 19 250
3 21 250 252
3 107 12 10
3 248 107 10
3 24 21 252
3 24 252 237
3 248 10 7
3 297 248 7
3 26 24 237
3 26 237 236
3 297 7 299
3 231 297 299
3 28 26 242
3 26 236 242
3 231 299 5
3 132 231 5
3 0 28 242
3 0 242 227
3 132 5 130
3 0 227 3
3 130 5 3
3 228 256 229
3 230 297 231
3 37 35 141
3 234 200 215
3 235 254 236
3 238 295 239
3 241 303 227
3 243 247 136
3 188 302 245
3 247 226 225
3 132 131 232
3 248 296 249
3 250 224 251
3 67 63 206
3 73 69 106
3 42 37 233
3 227 303 253
3 254 241 242
3 167 165 246
3 164 188 246
3 165 164 246
3 172 170 263
3 175 174 262
3 179 177 198
3 182 181 217
3 159 184 256
3 160 157 295
3 189 163 160
3 238 189 160
3 167 246 259
3 167 259 263
3 295 238 160
3 295 157 159
3 170 167 263
3 172 263 264
3 228 295 159
3 256 228 159
3 172 264 262
3 174 172 262
3 256 184 182
3 257 256 182
3 175 262 196
3 175 196 198
3 217 257 182
3 217 181 179
3 177 175 198
3 218 217 179
3 163 189 188
3 83 79 123
3 255 229 256
3 258 263 259
3 261 255 257
3 52 48 204
3 155 154 98
3 71 67 220
3 240 187 189
3 77 73 122
3 262 265 202
3 263 258 203
3 59 56 212
3 142 156 101
3 251 235 237
3 246 245 260
3 264 203 265
3 266 278 267
3 268 110 112
3 270 191 193
3 272 199 273
3 199 270 271
3 46 44 190
3 275 272 274
3 277 275 276
3 278 268 269
3 281 283 282
3 282 284 285
3 285 286 287
3 287 288 279
3 279 289 280
3 290 291 280
3 280 292 281
3 293 294 281
3 281 282 285
3 285 287 281
3 289 290 280
3 292 293 281
3 281 287 279
3 214 129 282
3 129 128 284
3 128 276 285
3 276 274 286
3 274 273 287
3 273 271 288
3 271 193 279
3 193 192 289
3 192 267 290
3 267 269 291
3 269 112 280
3 112 111 292
3 111 135 293
3 135 134 294
3 134 215 281
3 215 214 283
3 295 228 201
3 108 243 244
3 154 153 213
3 235 251 224
3 224 226 247
3 247 243 296
3 108 249 296
3 296 230 232
3 232 131 253
3 253 303 241
3 241 254 235
3 235 224 247
3 243 108 296
3 296 232 253
3 253 241 235
3 235 247 296
3 143 142 86
3 297 230 296
3 298 127 129
