ply
format ascii 1.0
comment Created by Blender 2.79 (sub 0) - www.blender.org, source file: ''
element vertex 128
property float x
property float y
property float z
property float nx
property float ny
property float nz
element face 124
property list uchar uint vertex_indices
end_header
0.000000 1.000000 1.000000 0.000000 0.000000 1.000000
-0.195090 -1.000000 0.980785 -0.195074 0.000000 0.980773
0.000000 -1.000000 1.000000 0.000000 0.000000 1.000000
-0.195090 1.000000 0.980785 -0.195074 0.000000 0.980773
-0.382683 -1.000000 0.923880 -0.382672 0.000000 0.923856
-0.382683 1.000000 0.923880 -0.382672 0.000000 0.923856
-0.555570 -1.000000 0.831470 -0.555559 0.000000 0.831446
-0.555570 1.000000 0.831470 -0.555559 0.000000 0.831446
-0.707107 -1.000000 0.707107 -0.707083 0.000000 0.707083
-0.707107 1.000000 0.707107 -0.707083 0.000000 0.707083
-0.831470 -1.000000 0.555570 -0.831446 0.000000 0.555559
-0.831470 1.000000 0.555570 -0.831446 0.000000 0.555559
-0.923880 -1.000000 0.382683 -0.923856 0.000000 0.382672
-0.923880 1.000000 0.382683 -0.923856 0.000000 0.382672
-0.980785 -1.000000 0.195090 -0.980773 0.000000 0.195074
-0.980785 1.000000 0.195090 -0.980773 0.000000 0.195074
-1.000000 -1.000000 0.000000 -1.000000 0.000000 0.000000
-1.000000 1.000000 0.000000 -1.000000 0.000000 0.000000
-0.980785 -1.000000 -0.195090 -0.980773 0.000000 -0.195074
-0.980785 1.000000 -0.195090 -0.980773 0.000000 -0.195074
-0.923880 -1.000000 -0.382683 -0.923856 0.000000 -0.382672
-0.923880 1.000000 -0.382683 -0.923856 0.000000 -0.382672
-0.831470 -1.000000 -0.555570 -0.831446 0.000000 -0.555559
-0.831470 1.000000 -0.555570 -0.831446 0.000000 -0.555559
-0.707107 -1.000000 -0.707107 -0.707083 0.000000 -0.707083
-0.707107 1.000000 -0.707107 -0.707083 0.000000 -0.707083
-0.555570 -1.000000 -0.831470 -0.555559 0.000000 -0.831446
-0.555570 1.000000 -0.831470 -0.555559 0.000000 -0.831446
-0.382683 -1.000000 -0.923880 -0.382672 0.000000 -0.923856
-0.382683 1.000000 -0.923880 -0.382672 0.000000 -0.923856
-0.195090 -1.000000 -0.980785 -0.195074 0.000000 -0.980773
-0.195090 1.000000 -0.980785 -0.195074 0.000000 -0.980773
0.000000 -1.000000 -1.000000 0.000000 0.000000 -1.000000
0.000000 1.000000 -1.000000 0.000000 0.000000 -1.000000
0.195091 -1.000000 -0.980785 0.195074 0.000000 -0.980773
0.195091 1.000000 -0.980785 0.195074 0.000000 -0.980773
0.382684 -1.000000 -0.923879 0.382672 0.000000 -0.923856
0.382684 1.000000 -0.923879 0.382672 0.000000 -0.923856
0.555571 -1.000000 -0.831469 0.555559 0.000000 -0.831446
0.555571 1.000000 -0.831469 0.555559 0.000000 -0.831446
0.707107 -1.000000 -0.707106 0.707083 0.000000 -0.707083
0.707107 1.000000 -0.707106 0.707083 0.000000 -0.707083
0.831470 -1.000000 -0.555570 0.831446 0.000000 -0.555559
0.831470 1.000000 -0.555570 0.831446 0.000000 -0.555559
0.923880 -1.000000 -0.382683 0.923856 0.000000 -0.382672
0.923880 1.000000 -0.382683 0.923856 0.000000 -0.382672
0.980785 -1.000000 -0.195089 0.980773 0.000000 -0.195074
0.980785 1.000000 -0.195089 0.980773 0.000000 -0.195074
1.000000 -1.000000 0.000001 1.000000 0.000000 0.000000
1.000000 1.000000 0.000001 1.000000 0.000000 0.000000
0.980785 -1.000000 0.195091 0.980773 0.000000 0.195074
0.980785 1.000000 0.195091 0.980773 0.000000 0.195074
0.923879 -1.000000 0.382684 0.923856 0.000000 0.382672
0.923879 1.000000 0.382684 0.923856 0.000000 0.382672
0.831469 -1.000000 0.555571 0.831446 0.000000 0.555559
0.831469 1.000000 0.555571 0.831446 0.000000 0.555559
0.707106 -1.000000 0.707108 0.707083 0.000000 0.707083
0.707106 1.000000 0.707108 0.707083 0.000000 0.707083
0.555569 -1.000000 0.831470 0.555559 0.000000 0.831446
0.555569 1.000000 0.831470 0.555559 0.000000 0.831446
0.382682 -1.000000 0.923880 0.382672 0.000000 0.923856
0.923879 1.000000 0.382684 0.000000 1.000000 0.000000
0.382684 1.000000 -0.923879 0.000000 0.999969 0.000000
-0.923880 1.000000 -0.382683 0.000000 1.000000 0.000000
0.382682 1.000000 0.923880 0.382672 0.000000 0.923856
0.195089 -1.000000 0.980786 0.195074 0.000000 0.980773
0.195089 1.000000 0.980786 0.195074 0.000000 0.980773
-0.980785 -1.000000 0.195090 0.000000 -1.000000 0.000000
-0.195090 -1.000000 -0.980785 0.000000 -1.000000 0.000000
0.980785 -1.000000 -0.195089 0.000000 -1.000000 0.000000
-0.382683 1.000000 0.923880 0.000000 1.000000 0.000000
-0.195090 1.000000 0.980785 0.000000 1.000000 0.000000
0.000000 1.000000 1.000000 0.000000 1.000000 0.000000
0.195089 1.000000 0.980786 0.000000 1.000000 0.000000
0.382682 1.000000 0.923880 0.000000 1.000000 0.000000
0.555569 1.000000 0.831470 0.000000 1.000000 0.000000
0.707106 1.000000 0.707108 0.000000 1.000000 0.000000
0.831469 1.000000 0.555571 0.000000 0.999969 0.000000
0.980785 1.000000 0.195091 0.000000 0.999969 0.000000
1.000000 1.000000 0.000001 0.000000 1.000000 0.000000
0.980785 1.000000 -0.195089 0.000000 1.000000 0.000000
0.923880 1.000000 -0.382683 0.000000 1.000000 0.000000
0.831470 1.000000 -0.555570 0.000000 0.999969 0.000000
0.707107 1.000000 -0.707106 0.000000 1.000000 0.000000
0.555571 1.000000 -0.831469 0.000000 0.999969 0.000000
0.195091 1.000000 -0.980785 0.000000 0.999969 0.000000
0.000000 1.000000 -1.000000 0.000000 1.000000 0.000000
-0.195090 1.000000 -0.980785 0.000000 1.000000 0.000000
-0.382683 1.000000 -0.923880 0.000000 1.000000 0.000000
-0.555570 1.000000 -0.831470 0.000000 0.999969 0.000000
-0.707107 1.000000 -0.707107 0.000000 1.000000 0.000000
-0.831470 1.000000 -0.555570 0.000000 0.999969 0.000000
-0.980785 1.000000 -0.195090 0.000000 0.999969 0.000000
-1.000000 1.000000 0.000000 0.000000 1.000000 0.000000
-0.980785 1.000000 0.195090 0.000000 1.000000 0.000000
-0.923880 1.000000 0.382683 0.000000 1.000000 0.000000
-0.831470 1.000000 0.555570 0.000000 0.999969 0.000000
-0.707107 1.000000 0.707107 0.000000 1.000000 0.000000
-0.555570 1.000000 0.831470 0.000000 0.999969 0.000000
0.195089 -1.000000 0.980786 0.000000 -0.999969 0.000000
0.000000 -1.000000 1.000000 0.000000 -1.000000 0.000000
-0.195090 -1.000000 0.980785 0.000000 -1.000000 0.000000
-0.382683 -1.000000 0.923880 0.000000 -1.000000 0.000000
-0.555570 -1.000000 0.831470 0.000000 -1.000000 0.000000
-0.707107 -1.000000 0.707107 0.000000 -1.000000 0.000000
-0.831470 -1.000000 0.555570 0.000000 -1.000000 0.000000
-0.923880 -1.000000 0.382683 0.000000 -1.000000 0.000000
-1.000000 -1.000000 0.000000 0.000000 -0.999969 0.000000
-0.980785 -1.000000 -0.195090 0.000000 -0.999969 0.000000
-0.923880 -1.000000 -0.382683 0.000000 -1.000000 0.000000
-0.831470 -1.000000 -0.555570 0.000000 -1.000000 0.000000
-0.707107 -1.000000 -0.707107 0.000000 -1.000000 0.000000
-0.555570 -1.000000 -0.831470 0.000000 -1.000000 0.000000
-0.382683 -1.000000 -0.923880 0.000000 -1.000000 0.000000
0.000000 -1.000000 -1.000000 0.000000 -0.999969 0.000000
0.195091 -1.000000 -0.980785 0.000000 -1.000000 0.000000
0.382684 -1.000000 -0.923879 0.000000 -1.000000 0.000000
0.555571 -1.000000 -0.831469 0.000000 -1.000000 0.000000
0.707107 -1.000000 -0.707106 0.000000 -1.000000 0.000000
0.831470 -1.000000 -0.555570 0.000000 -1.000000 0.000000
0.923880 -1.000000 -0.382683 0.000000 -1.000000 0.000000
1.000000 -1.000000 0.000001 0.000000 -0.999969 0.000000
0.980785 -1.000000 0.195091 0.000000 -1.000000 0.000000
0.923879 -1.000000 0.382684 0.000000 -1.000000 0.000000
0.831469 -1.000000 0.555571 0.000000 -1.000000 0.000000
0.707106 -1.000000 0.707108 0.000000 -1.000000 0.000000
0.555569 -1.000000 0.831470 0.000000 -1.000000 0.000000
0.382682 -1.000000 0.923880 0.000000 -1.000000 0.000000
3 0 1 2
3 3 4 1
3 5 6 4
3 7 8 6
3 9 10 8
3 11 12 10
3 13 14 12
3 15 16 14
3 17 18 16
3 19 20 18
3 21 22 20
3 23 24 22
3 25 26 24
3 27 28 26
3 29 30 28
3 31 32 30
3 33 34 32
3 35 36 34
3 37 38 36
3 39 40 38
3 41 42 40
3 43 44 42
3 45 46 44
3 47 48 46
3 49 50 48
3 51 52 50
3 53 54 52
3 55 56 54
3 57 58 56
3 59 60 58
3 61 62 63
3 64 65 60
3 66 2 65
3 67 68 69
3 0 3 1
3 3 5 4
3 5 7 6
3 7 9 8
3 9 11 10
3 11 13 12
3 13 15 14
3 15 17 16
3 17 19 18
3 19 21 20
3 21 23 22
3 23 25 24
3 25 27 26
3 27 29 28
3 29 31 30
3 31 33 32
3 33 35 34
3 35 37 36
3 37 39 38
3 39 41 40
3 41 43 42
3 43 45 44
3 45 47 46
3 47 49 48
3 49 51 50
3 51 53 52
3 53 55 54
3 55 57 56
3 57 59 58
3 59 64 60
3 70 71 72
3 72 73 70
3 73 74 70
3 74 75 76
3 76 77 61
3 61 78 79
3 79 80 61
3 80 81 61
3 81 82 62
3 82 83 62
3 83 84 62
3 62 85 86
3 86 87 88
3 88 89 90
3 90 91 63
3 63 92 93
3 93 94 63
3 94 95 63
3 95 96 97
3 97 98 70
3 74 76 70
3 76 61 70
3 62 86 63
3 86 88 63
3 88 90 63
3 95 97 63
3 97 70 63
3 61 81 62
3 70 61 63
3 64 66 65
3 66 0 2
3 99 100 101
3 101 102 103
3 103 104 105
3 105 106 103
3 106 67 103
3 67 107 108
3 108 109 67
3 109 110 67
3 110 111 68
3 111 112 68
3 112 113 68
3 68 114 115
3 115 116 117
3 117 118 119
3 119 120 69
3 69 121 122
3 122 123 124
3 124 125 99
3 125 126 99
3 126 127 99
3 99 101 103
3 68 115 69
3 115 117 69
3 117 119 69
3 69 122 99
3 122 124 99
3 99 103 67
3 67 110 68
3 99 67 69
