ply
format ascii 1.0
comment Created by Blender 2.79 (sub 0) - www.blender.org, source file: ''
element vertex 128
property float x
property float y
property float z
property float nx
property float ny
property float nz
property float s
property float t
element face 124
property list uchar uint vertex_indices
end_header
0.000000 1.000000 1.000000 0.000000 0.000000 1.000000 0.338486 0.347455
-0.195090 -1.000000 0.980785 -0.195074 0.000000 0.980773 0.446742 0.677838
0.000000 -1.000000 1.000000 0.000000 0.000000 1.000000 0.380096 0.691052
-0.195090 1.000000 0.980785 -0.195074 0.000000 0.980773 0.339013 0.348937
-0.382683 -1.000000 0.923880 -0.382672 0.000000 0.923856 0.509574 0.651893
-0.382683 1.000000 0.923880 -0.382672 0.000000 0.923856 0.339812 0.350285
-0.555570 -1.000000 0.831470 -0.555559 0.000000 0.831446 0.566189 0.614185
-0.555570 1.000000 0.831470 -0.555559 0.000000 0.831446 0.340853 0.351450
-0.707107 -1.000000 0.707107 -0.707083 0.000000 0.707083 0.614403 0.566137
-0.707107 1.000000 0.707107 -0.707083 0.000000 0.707083 0.342095 0.352390
-0.831470 -1.000000 0.555570 -0.831446 0.000000 0.555559 0.652349 0.509574
-0.831470 1.000000 0.555570 -0.831446 0.000000 0.555559 0.343491 0.353071
-0.923880 -1.000000 0.382683 -0.923856 0.000000 0.382672 0.678549 0.446659
-0.923880 1.000000 0.382683 -0.923856 0.000000 0.382672 0.344987 0.353469
-0.980785 -1.000000 0.195090 -0.980773 0.000000 0.195074 0.691974 0.379807
-0.980785 1.000000 0.195090 -0.980773 0.000000 0.195074 0.346527 0.353573
-1.000000 -1.000000 0.000000 -1.000000 0.000000 0.000000 0.692094 0.311593
-1.000000 1.000000 0.000000 -1.000000 0.000000 0.000000 0.348056 0.353382
-0.980785 -1.000000 -0.195090 -0.980773 0.000000 -0.195074 0.678677 0.244719
-0.980785 1.000000 -0.195090 -0.980773 0.000000 -0.195074 0.349510 0.352880
-0.923880 -1.000000 -0.382683 -0.923856 0.000000 -0.382672 0.652486 0.181784
-0.923880 1.000000 -0.382683 -0.923856 0.000000 -0.382672 0.350830 0.352088
-0.831470 -1.000000 -0.555570 -0.831446 0.000000 -0.555559 0.614559 0.125209
-0.831470 1.000000 -0.555570 -0.831446 0.000000 -0.555559 0.351981 0.351042
-0.707107 -1.000000 -0.707107 -0.707083 0.000000 -0.707083 0.566355 0.077130
-0.707107 1.000000 -0.707107 -0.707083 0.000000 -0.707083 0.352905 0.349786
-0.555570 -1.000000 -0.831470 -0.555559 0.000000 -0.831446 0.509724 0.039374
-0.555570 1.000000 -0.831470 -0.555559 0.000000 -0.831446 0.353564 0.348369
-0.382683 -1.000000 -0.923880 -0.382672 0.000000 -0.923856 0.446841 0.013379
-0.382683 1.000000 -0.923880 -0.382672 0.000000 -0.923856 0.353932 0.346847
-0.195090 -1.000000 -0.980785 -0.195074 0.000000 -0.980773 0.380115 0.000131
-0.195090 1.000000 -0.980785 -0.195074 0.000000 -0.980773 0.353998 0.345280
0.000000 -1.000000 -1.000000 0.000000 0.000000 -1.000000 0.312091 0.000131
0.000000 1.000000 -1.000000 0.000000 0.000000 -1.000000 0.353759 0.343728
0.195091 -1.000000 -0.980785 0.195074 0.000000 -0.980773 0.245371 0.013378
0.195091 1.000000 -0.980785 0.195074 0.000000 -0.980773 0.353223 0.342252
0.382684 -1.000000 -0.923879 0.382672 0.000000 -0.923856 0.182506 0.039367
0.382684 1.000000 -0.923879 0.382672 0.000000 -0.923856 0.352415 0.340905
0.555571 -1.000000 -0.831469 0.555559 0.000000 -0.831446 0.125895 0.077112
0.555571 1.000000 -0.831469 0.555559 0.000000 -0.831446 0.351364 0.339741
0.707107 -1.000000 -0.707106 0.707083 0.000000 -0.707083 0.077712 0.125175
0.707107 1.000000 -0.707106 0.707083 0.000000 -0.707083 0.350112 0.338801
0.831470 -1.000000 -0.555570 0.831446 0.000000 -0.555559 0.039808 0.181723
0.831470 1.000000 -0.555570 0.831446 0.000000 -0.555559 0.348713 0.338116
0.923880 -1.000000 -0.382683 0.923856 0.000000 -0.382672 0.013641 0.244616
0.923880 1.000000 -0.382683 0.923856 0.000000 -0.382672 0.347219 0.337715
0.980785 -1.000000 -0.195089 0.980773 0.000000 -0.195074 0.000235 0.311456
0.980785 1.000000 -0.195089 0.980773 0.000000 -0.195074 0.345679 0.337607
1.000000 -1.000000 0.000001 1.000000 0.000000 0.000000 0.000131 0.379665
1.000000 1.000000 0.000001 1.000000 0.000000 0.000000 0.344151 0.337795
0.980785 -1.000000 0.195091 0.980773 0.000000 0.195074 0.013566 0.446543
0.980785 1.000000 0.195091 0.980773 0.000000 0.195074 0.342695 0.338295
0.923879 -1.000000 0.382684 0.923856 0.000000 0.382672 0.039783 0.509487
0.923879 1.000000 0.382684 0.923856 0.000000 0.382672 0.341371 0.339083
0.831469 -1.000000 0.555571 0.831446 0.000000 0.555559 0.077752 0.566077
0.831469 1.000000 0.555571 0.831446 0.000000 0.555559 0.340230 0.340126
0.707106 -1.000000 0.707108 0.707083 0.000000 0.707083 0.125992 0.614147
0.707106 1.000000 0.707108 0.707083 0.000000 0.707083 0.339317 0.341382
0.555569 -1.000000 0.831470 0.555559 0.000000 0.831446 0.182636 0.651873
0.555569 1.000000 0.831470 0.555559 0.000000 0.831446 0.338668 0.342800
0.382682 -1.000000 0.923880 0.382672 0.000000 0.923856 0.245497 0.677831
0.923879 1.000000 0.382684 0.000000 1.000000 0.000000 0.314876 0.890593
0.382684 1.000000 -0.923879 0.000000 0.999969 0.000000 0.418224 0.697243
-0.923880 1.000000 -0.382683 0.000000 1.000000 0.000000 0.611574 0.800591
0.382682 1.000000 0.923880 0.382672 0.000000 0.923856 0.338310 0.344325
0.195089 -1.000000 0.980786 0.195074 0.000000 0.980773 0.312159 0.691051
0.195089 1.000000 0.980786 0.195074 0.000000 0.980773 0.338248 0.345898
-0.980785 -1.000000 0.195090 0.000000 -1.000000 0.000000 0.274244 0.747246
-0.195090 -1.000000 -0.980785 0.000000 -1.000000 0.000000 0.252754 0.965427
0.980785 -1.000000 -0.195089 0.000000 -1.000000 0.000000 0.034573 0.943938
-0.382683 1.000000 0.923880 0.000000 1.000000 0.000000 0.508226 0.993940
-0.195090 1.000000 0.980785 0.000000 1.000000 0.000000 0.478420 0.999869
0.000000 1.000000 1.000000 0.000000 1.000000 0.000000 0.448030 0.999869
0.195089 1.000000 0.980786 0.000000 1.000000 0.000000 0.418224 0.993941
0.382682 1.000000 0.923880 0.000000 1.000000 0.000000 0.390148 0.982311
0.555569 1.000000 0.831470 0.000000 1.000000 0.000000 0.364879 0.965427
0.707106 1.000000 0.707108 0.000000 1.000000 0.000000 0.343390 0.943938
0.831469 1.000000 0.555571 0.000000 0.999969 0.000000 0.326506 0.918670
0.980785 1.000000 0.195091 0.000000 0.999969 0.000000 0.308948 0.860787
1.000000 1.000000 0.000001 0.000000 1.000000 0.000000 0.308948 0.830397
0.980785 1.000000 -0.195089 0.000000 1.000000 0.000000 0.314876 0.800591
0.923880 1.000000 -0.382683 0.000000 1.000000 0.000000 0.326506 0.772514
0.831470 1.000000 -0.555570 0.000000 0.999969 0.000000 0.343390 0.747246
0.707107 1.000000 -0.707106 0.000000 1.000000 0.000000 0.364879 0.725757
0.555571 1.000000 -0.831469 0.000000 0.999969 0.000000 0.390147 0.708873
0.195091 1.000000 -0.980785 0.000000 0.999969 0.000000 0.448030 0.691314
0.000000 1.000000 -1.000000 0.000000 1.000000 0.000000 0.478420 0.691314
-0.195090 1.000000 -0.980785 0.000000 1.000000 0.000000 0.508226 0.697243
-0.382683 1.000000 -0.923880 0.000000 1.000000 0.000000 0.536303 0.708873
-0.555570 1.000000 -0.831470 0.000000 0.999969 0.000000 0.561571 0.725756
-0.707107 1.000000 -0.707107 0.000000 1.000000 0.000000 0.583060 0.747246
-0.831470 1.000000 -0.555570 0.000000 0.999969 0.000000 0.599944 0.772514
-0.980785 1.000000 -0.195090 0.000000 0.999969 0.000000 0.617503 0.830397
-1.000000 1.000000 0.000000 0.000000 1.000000 0.000000 0.617503 0.860787
-0.980785 1.000000 0.195090 0.000000 1.000000 0.000000 0.611574 0.890593
-0.923880 1.000000 0.382683 0.000000 1.000000 0.000000 0.599944 0.918670
-0.831470 1.000000 0.555570 0.000000 0.999969 0.000000 0.583060 0.943938
-0.707107 1.000000 0.707107 0.000000 1.000000 0.000000 0.561571 0.965427
-0.555570 1.000000 0.831470 0.000000 0.999969 0.000000 0.536303 0.982311
0.195089 -1.000000 0.980786 0.000000 -0.999969 0.000000 0.056063 0.725756
0.000000 -1.000000 1.000000 0.000000 -1.000000 0.000000 0.081331 0.708873
-0.195090 -1.000000 0.980785 0.000000 -1.000000 0.000000 0.109407 0.697243
-0.382683 -1.000000 0.923880 0.000000 -1.000000 0.000000 0.139213 0.691314
-0.555570 -1.000000 0.831470 0.000000 -1.000000 0.000000 0.169603 0.691314
-0.707107 -1.000000 0.707107 0.000000 -1.000000 0.000000 0.199410 0.697243
-0.831470 -1.000000 0.555570 0.000000 -1.000000 0.000000 0.227486 0.708873
-0.923880 -1.000000 0.382683 0.000000 -1.000000 0.000000 0.252755 0.725757
-1.000000 -1.000000 0.000000 0.000000 -0.999969 0.000000 0.291127 0.772514
-0.980785 -1.000000 -0.195090 0.000000 -0.999969 0.000000 0.302757 0.800591
-0.923880 -1.000000 -0.382683 0.000000 -1.000000 0.000000 0.308686 0.830397
-0.831470 -1.000000 -0.555570 0.000000 -1.000000 0.000000 0.308686 0.860787
-0.707107 -1.000000 -0.707107 0.000000 -1.000000 0.000000 0.302757 0.890593
-0.555570 -1.000000 -0.831470 0.000000 -1.000000 0.000000 0.291127 0.918670
-0.382683 -1.000000 -0.923880 0.000000 -1.000000 0.000000 0.274244 0.943938
0.000000 -1.000000 -1.000000 0.000000 -0.999969 0.000000 0.227486 0.982311
0.195091 -1.000000 -0.980785 0.000000 -1.000000 0.000000 0.199409 0.993941
0.382684 -1.000000 -0.923879 0.000000 -1.000000 0.000000 0.169603 0.999869
0.555571 -1.000000 -0.831469 0.000000 -1.000000 0.000000 0.139213 0.999869
0.707107 -1.000000 -0.707106 0.000000 -1.000000 0.000000 0.109407 0.993940
0.831470 -1.000000 -0.555570 0.000000 -1.000000 0.000000 0.081330 0.982311
0.923880 -1.000000 -0.382683 0.000000 -1.000000 0.000000 0.056062 0.965427
1.000000 -1.000000 0.000001 0.000000 -0.999969 0.000000 0.017689 0.918670
0.980785 -1.000000 0.195091 0.000000 -1.000000 0.000000 0.006060 0.890592
0.923879 -1.000000 0.382684 0.000000 -1.000000 0.000000 0.000131 0.860787
0.831469 -1.000000 0.555571 0.000000 -1.000000 0.000000 0.000131 0.830396
0.707106 -1.000000 0.707108 0.000000 -1.000000 0.000000 0.006060 0.800590
0.555569 -1.000000 0.831470 0.000000 -1.000000 0.000000 0.017690 0.772514
0.382682 -1.000000 0.923880 0.000000 -1.000000 0.000000 0.034573 0.747246
3 0 1 2
3 3 4 1
3 5 6 4
3 7 8 6
3 9 10 8
3 11 12 10
3 13 14 12
3 15 16 14
3 17 18 16
3 19 20 18
3 21 22 20
3 23 24 22
3 25 26 24
3 27 28 26
3 29 30 28
3 31 32 30
3 33 34 32
3 35 36 34
3 37 38 36
3 39 40 38
3 41 42 40
3 43 44 42
3 45 46 44
3 47 48 46
3 49 50 48
3 51 52 50
3 53 54 52
3 55 56 54
3 57 58 56
3 59 60 58
3 61 62 63
3 64 65 60
3 66 2 65
3 67 68 69
3 0 3 1
3 3 5 4
3 5 7 6
3 7 9 8
3 9 11 10
3 11 13 12
3 13 15 14
3 15 17 16
3 17 19 18
3 19 21 20
3 21 23 22
3 23 25 24
3 25 27 26
3 27 29 28
3 29 31 30
3 31 33 32
3 33 35 34
3 35 37 36
3 37 39 38
3 39 41 40
3 41 43 42
3 43 45 44
3 45 47 46
3 47 49 48
3 49 51 50
3 51 53 52
3 53 55 54
3 55 57 56
3 57 59 58
3 59 64 60
3 70 71 72
3 72 73 70
3 73 74 70
3 74 75 76
3 76 77 61
3 61 78 79
3 79 80 61
3 80 81 61
3 81 82 62
3 82 83 62
3 83 84 62
3 62 85 86
3 86 87 88
3 88 89 90
3 90 91 63
3 63 92 93
3 93 94 63
3 94 95 63
3 95 96 97
3 97 98 70
3 74 76 70
3 76 61 70
3 62 86 63
3 86 88 63
3 88 90 63
3 95 97 63
3 97 70 63
3 61 81 62
3 70 61 63
3 64 66 65
3 66 0 2
3 99 100 101
3 101 102 103
3 103 104 105
3 105 106 103
3 106 67 103
3 67 107 108
3 108 109 67
3 109 110 67
3 110 111 68
3 111 112 68
3 112 113 68
3 68 114 115
3 115 116 117
3 117 118 119
3 119 120 69
3 69 121 122
3 122 123 124
3 124 125 99
3 125 126 99
3 126 127 99
3 99 101 103
3 68 115 69
3 115 117 69
3 117 119 69
3 69 122 99
3 122 124 99
3 99 103 67
3 67 110 68
3 99 67 69
