ply
format ascii 1.0
comment Created by Blender 2.79 (sub 0) - www.blender.org, source file: ''
element vertex 32
property float x
property float y
property float z
element face 30
property list uchar uint vertex_indices
end_header
-0.980785 -1.000000 0.195090
-0.195090 -1.000000 -0.980785
0.980785 -1.000000 -0.195089
0.195089 -1.000000 0.980786
0.000000 -1.000000 1.000000
-0.195090 -1.000000 0.980785
-0.382683 -1.000000 0.923880
-0.555570 -1.000000 0.831470
-0.707107 -1.000000 0.707107
-0.831470 -1.000000 0.555570
-0.923880 -1.000000 0.382683
-1.000000 -1.000000 0.000000
-0.980785 -1.000000 -0.195090
-0.923880 -1.000000 -0.382683
-0.831470 -1.000000 -0.555570
-0.707107 -1.000000 -0.707107
-0.555570 -1.000000 -0.831470
-0.382683 -1.000000 -0.923880
0.000000 -1.000000 -1.000000
0.195091 -1.000000 -0.980785
0.382684 -1.000000 -0.923879
0.555571 -1.000000 -0.831469
0.707107 -1.000000 -0.707106
0.831470 -1.000000 -0.555570
0.923880 -1.000000 -0.382683
1.000000 -1.000000 0.000001
0.980785 -1.000000 0.195091
0.923879 -1.000000 0.382684
0.831469 -1.000000 0.555571
0.707106 -1.000000 0.707108
0.555569 -1.000000 0.831470
0.382682 -1.000000 0.923880
3 0 1 2
3 3 4 5
3 5 6 7
3 7 8 9
3 9 10 7
3 10 0 7
3 0 11 12
3 12 13 0
3 13 14 0
3 14 15 1
3 15 16 1
3 16 17 1
3 1 18 19
3 19 20 21
3 21 22 23
3 23 24 2
3 2 25 26
3 26 27 28
3 28 29 3
3 29 30 3
3 30 31 3
3 3 5 7
3 1 19 2
3 19 21 2
3 21 23 2
3 2 26 3
3 26 28 3
3 3 7 0
3 0 14 1
3 3 0 2
