ply
format ascii 1.0
comment Created by Blender 2.79 (sub 0) - www.blender.org, source file: ''
element vertex 507
property float x
property float y
property float z
element face 967
property list uchar uint vertex_indices
end_header
-0.468750 0.242188 -0.757812
-0.500000 0.093750 -0.687500
-0.562500 0.242188 -0.671875
0.500000 0.093750 -0.687500
0.468750 0.242188 -0.757812
0.562500 0.242188 -0.671875
-0.546875 0.054688 -0.578125
-0.625000 0.242188 -0.562500
0.546875 0.054688 -0.578125
0.625000 0.242188 -0.562500
-0.351562 -0.023438 -0.617188
0.351562 -0.023438 -0.617188
-0.437500 0.164062 -0.765625
-0.351562 0.031250 -0.718750
0.351562 0.031250 -0.718750
0.437500 0.164062 -0.765625
-0.351562 0.132812 -0.781250
-0.203125 0.093750 -0.742188
0.203125 0.093750 -0.742188
0.351562 0.132812 -0.781250
-0.156250 0.054688 -0.648438
0.156250 0.054688 -0.648438
-0.140625 0.242188 -0.742188
0.140625 0.242188 -0.742188
0.078125 0.242188 -0.656250
-0.242188 0.242188 -0.796875
-0.273438 0.164062 -0.796875
0.242188 0.242188 -0.796875
-0.203125 0.390625 -0.742188
0.203125 0.390625 -0.742188
-0.078125 0.242188 -0.656250
0.156250 0.437500 -0.648438
-0.351562 0.453125 -0.718750
-0.156250 0.437500 -0.648438
0.351562 0.453125 -0.718750
0.351562 0.515625 -0.617188
-0.351562 0.359375 -0.781250
-0.273438 0.328125 -0.796875
0.351562 0.359375 -0.781250
-0.437500 0.328125 -0.765625
0.437500 0.328125 -0.765625
0.500000 0.390625 -0.687500
-0.500000 0.390625 -0.687500
-0.351562 0.515625 -0.617188
0.546875 0.437500 -0.578125
-0.546875 0.437500 -0.578125
-0.476562 0.242188 -0.773438
0.476562 0.242188 -0.773438
0.445312 0.335938 -0.781250
-0.445312 0.335938 -0.781250
0.351562 0.375000 -0.804688
-0.351562 0.375000 -0.804688
0.273438 0.328125 -0.796875
0.265625 0.335938 -0.820312
-0.265625 0.335938 -0.820312
0.226562 0.242188 -0.820312
-0.265625 0.156250 -0.820312
-0.226562 0.242188 -0.820312
0.265625 0.156250 -0.820312
-0.351562 0.117188 -0.804688
0.351562 0.117188 -0.804688
0.273438 0.164062 -0.796875
-0.445312 0.156250 -0.781250
0.445312 0.156250 -0.781250
-0.351562 0.242188 -0.828125
0.351562 0.242188 -0.828125
-0.164062 -0.929688 -0.632812
0.000000 -0.984375 -0.578125
-0.179688 -0.968750 -0.554688
0.164062 -0.929688 -0.632812
0.000000 -0.945312 -0.640625
-0.234375 -0.914062 -0.632812
-0.328125 -0.945312 -0.523438
0.234375 -0.914062 -0.632812
0.179688 -0.968750 -0.554688
-0.367188 -0.890625 -0.531250
0.367188 -0.890625 -0.531250
0.328125 -0.945312 -0.523438
-0.351562 -0.695312 -0.570312
-0.265625 -0.820312 -0.664062
0.265625 -0.820312 -0.664062
0.351562 -0.695312 -0.570312
-0.312500 -0.437500 -0.570312
-0.250000 -0.703125 -0.687500
0.250000 -0.703125 -0.687500
0.312500 -0.437500 -0.570312
-0.203125 -0.187500 -0.562500
-0.398438 -0.046875 -0.671875
-0.125000 -0.101562 -0.812500
0.398438 -0.046875 -0.671875
0.203125 -0.187500 -0.562500
0.125000 -0.101562 -0.812500
-0.632812 -0.039062 -0.539062
-0.437500 -0.140625 -0.531250
0.632812 -0.039062 -0.539062
0.617188 0.054688 -0.625000
-0.726562 0.203125 -0.601562
-0.617188 0.054688 -0.625000
0.726562 0.203125 -0.601562
-0.859375 0.429688 -0.593750
-0.828125 0.148438 -0.445312
0.859375 0.429688 -0.593750
0.742188 0.375000 -0.656250
-0.710938 0.484375 -0.625000
-0.742188 0.375000 -0.656250
0.710938 0.484375 -0.625000
0.687500 0.414062 -0.726562
-0.492188 0.601562 -0.687500
-0.687500 0.414062 -0.726562
0.492188 0.601562 -0.687500
0.437500 0.546875 -0.796875
-0.312500 0.640625 -0.835938
-0.437500 0.546875 -0.796875
0.312500 0.640625 -0.835938
-0.156250 0.718750 -0.757812
-0.320312 0.757812 -0.734375
0.156250 0.718750 -0.757812
0.203125 0.617188 -0.851562
-0.062500 0.492188 -0.750000
-0.203125 0.617188 -0.851562
0.062500 0.492188 -0.750000
0.101562 0.429688 -0.843750
0.000000 0.429688 -0.742188
-0.101562 0.429688 -0.843750
0.000000 0.351562 -0.820312
-0.250000 0.468750 -0.757812
-0.164062 0.414062 -0.773438
0.250000 0.468750 -0.757812
-0.328125 0.476562 -0.742188
-0.429688 0.437500 -0.718750
0.328125 0.476562 -0.742188
-0.601562 0.375000 -0.664062
0.429688 0.437500 -0.718750
-0.640625 0.296875 -0.648438
0.601562 0.375000 -0.664062
-0.625000 0.187500 -0.648438
0.640625 0.296875 -0.648438
-0.492188 0.062500 -0.671875
0.625000 0.187500 -0.648438
-0.375000 0.015625 -0.703125
0.492188 0.062500 -0.671875
-0.203125 0.093750 -0.742188
0.203125 0.093750 -0.742188
0.375000 0.015625 -0.703125
0.000000 0.046875 -0.726562
-0.125000 0.304688 -0.765625
0.125000 0.304688 -0.765625
0.000000 0.210938 -0.765625
-0.132812 0.210938 -0.757812
0.132812 0.210938 -0.757812
-0.164062 0.140625 -0.750000
0.164062 0.140625 -0.750000
-0.062500 -0.882812 -0.695312
0.062500 -0.882812 -0.695312
-0.117188 -0.835938 -0.710938
0.117188 -0.835938 -0.710938
-0.109375 -0.718750 -0.734375
-0.210938 -0.445312 -0.710938
-0.117188 -0.687500 -0.734375
0.117188 -0.687500 -0.734375
0.210938 -0.445312 -0.710938
0.109375 -0.718750 -0.734375
0.000000 -0.328125 -0.742188
-0.078125 -0.445312 -0.750000
-0.085938 -0.289062 -0.742188
0.078125 -0.445312 -0.750000
0.000000 -0.445312 -0.750000
0.000000 -0.679688 -0.734375
0.000000 -0.765625 -0.734375
-0.125000 -0.226562 -0.750000
-0.093750 -0.273438 -0.781250
0.093750 -0.273438 -0.781250
0.125000 -0.226562 -0.750000
0.085938 -0.289062 -0.742188
-0.109375 -0.132812 -0.781250
-0.101562 -0.148438 -0.742188
0.109375 -0.132812 -0.781250
0.132812 -0.226562 -0.796875
-0.039062 -0.125000 -0.781250
0.000000 -0.140625 -0.742188
0.039062 -0.125000 -0.781250
0.101562 -0.148438 -0.742188
0.000000 -0.187500 -0.796875
0.000000 -0.195312 -0.750000
0.000000 -0.320312 -0.781250
0.000000 -0.289062 -0.804688
0.078125 -0.250000 -0.804688
-0.046875 -0.148438 -0.812500
0.046875 -0.148438 -0.812500
-0.093750 -0.156250 -0.812500
0.093750 -0.156250 -0.812500
-0.132812 -0.226562 -0.796875
0.109375 -0.226562 -0.828125
-0.078125 -0.250000 -0.804688
-0.109375 -0.226562 -0.828125
0.000000 -0.203125 -0.828125
-0.164062 -0.242188 -0.710938
0.164062 -0.242188 -0.710938
0.179688 -0.312500 -0.710938
-0.179688 -0.312500 -0.710938
-0.257812 -0.312500 -0.554688
0.257812 -0.312500 -0.554688
-0.234375 -0.250000 -0.554688
0.234375 -0.250000 -0.554688
-0.093750 -0.742188 -0.726562
0.093750 -0.742188 -0.726562
0.000000 -0.773438 -0.718750
-0.093750 -0.820312 -0.710938
0.093750 -0.820312 -0.710938
-0.046875 -0.867188 -0.687500
0.046875 -0.867188 -0.687500
0.000000 -0.890625 -0.687500
0.000000 -0.875000 -0.687500
0.000000 -0.859375 -0.632812
0.046875 -0.851562 -0.632812
-0.093750 -0.812500 -0.640625
-0.046875 -0.851562 -0.632812
0.093750 -0.812500 -0.640625
-0.093750 -0.750000 -0.664062
0.093750 -0.750000 -0.664062
0.000000 -0.781250 -0.656250
-0.187500 0.156250 -0.773438
-0.171875 0.218750 -0.781250
0.187500 0.156250 -0.773438
0.171875 0.218750 -0.781250
-0.179688 0.296875 -0.781250
0.179688 0.296875 -0.781250
-0.210938 0.375000 -0.781250
0.210938 0.375000 -0.781250
0.226562 0.109375 -0.781250
-0.375000 0.062500 -0.742188
-0.226562 0.109375 -0.781250
0.375000 0.062500 -0.742188
-0.476562 0.101562 -0.718750
0.476562 0.101562 -0.718750
-0.578125 0.195312 -0.679688
0.578125 0.195312 -0.679688
-0.585938 0.289062 -0.687500
0.585938 0.289062 -0.687500
0.562500 0.351562 -0.695312
-0.562500 0.351562 -0.695312
0.421875 0.398438 -0.773438
-0.335938 0.429688 -0.757812
-0.421875 0.398438 -0.773438
0.335938 0.429688 -0.757812
-0.273438 0.421875 -0.773438
0.273438 0.421875 -0.773438
-0.234375 0.359375 -0.757812
-0.281250 0.398438 -0.765625
0.234375 0.359375 -0.757812
0.281250 0.398438 -0.765625
-0.335938 0.406250 -0.750000
0.335938 0.406250 -0.750000
-0.414062 0.390625 -0.750000
0.414062 0.390625 -0.750000
-0.531250 0.335938 -0.679688
0.531250 0.335938 -0.679688
-0.554688 0.281250 -0.671875
0.554688 0.281250 -0.671875
-0.546875 0.210938 -0.671875
0.546875 0.210938 -0.671875
-0.460938 0.117188 -0.703125
0.460938 0.117188 -0.703125
-0.375000 0.085938 -0.726562
0.375000 0.085938 -0.726562
-0.242188 0.125000 -0.757812
0.242188 0.125000 -0.757812
-0.203125 0.171875 -0.750000
0.203125 0.171875 -0.750000
-0.195312 0.296875 -0.757812
0.195312 0.296875 -0.757812
-0.195312 0.226562 -0.750000
0.195312 0.226562 -0.750000
-0.109375 0.460938 -0.609375
0.000000 0.406250 -0.601562
0.109375 0.460938 -0.609375
-0.195312 0.664062 -0.617188
0.195312 0.664062 -0.617188
0.320312 0.757812 -0.734375
0.335938 0.687500 -0.593750
-0.335938 0.687500 -0.593750
0.484375 0.554688 -0.554688
-0.484375 0.554688 -0.554688
0.679688 0.453125 -0.492188
-0.796875 0.406250 -0.460938
-0.679688 0.453125 -0.492188
0.796875 0.406250 -0.460938
0.828125 0.148438 -0.445312
0.773438 0.164062 -0.375000
-0.601562 0.000000 -0.414062
-0.773438 0.164062 -0.375000
0.601562 0.000000 -0.414062
-0.437500 -0.093750 -0.468750
0.437500 -0.093750 -0.468750
0.000000 -0.484375 -0.281250
-0.125000 -0.539062 -0.359375
0.000000 -0.570312 -0.320312
0.125000 -0.539062 -0.359375
0.179688 -0.414062 -0.257812
-0.140625 -0.757812 -0.367188
0.000000 -0.804688 -0.343750
0.140625 -0.757812 -0.367188
-0.164062 -0.945312 -0.437500
0.000000 -0.976562 -0.460938
0.164062 -0.945312 -0.437500
-0.328125 -0.914062 -0.398438
0.328125 -0.914062 -0.398438
-0.289062 -0.710938 -0.382812
0.289062 -0.710938 -0.382812
-0.250000 -0.500000 -0.390625
0.250000 -0.500000 -0.390625
-0.179688 -0.414062 -0.257812
-0.234375 -0.351562 -0.406250
0.234375 -0.351562 -0.406250
-0.218750 -0.281250 -0.429688
0.218750 -0.281250 -0.429688
0.210938 -0.226562 -0.468750
-0.203125 -0.171875 -0.500000
0.203125 -0.171875 -0.500000
0.437500 -0.140625 -0.531250
-0.335938 0.054688 0.664062
0.000000 -0.195312 0.671875
0.000000 0.070312 0.828125
0.335938 0.054688 0.664062
0.343750 -0.148438 0.539062
-0.343750 -0.148438 0.539062
0.000000 -0.382812 0.351562
0.296875 -0.312500 0.265625
-0.210938 -0.390625 -0.164062
0.000000 -0.460938 -0.187500
0.210938 -0.390625 -0.164062
-0.734375 -0.046875 -0.070312
-0.851562 0.234375 -0.054688
0.734375 -0.046875 -0.070312
0.851562 0.234375 -0.054688
-0.460938 0.437500 0.703125
0.000000 0.562500 0.851562
0.460938 0.437500 0.703125
-0.453125 0.851562 -0.234375
0.000000 0.984375 0.078125
0.000000 0.898438 -0.289062
0.453125 0.851562 -0.234375
0.453125 0.929688 0.070312
-0.453125 0.867188 0.382812
0.000000 0.898438 0.546875
0.453125 0.867188 0.382812
-0.726562 0.406250 -0.335938
-0.632812 0.453125 -0.281250
0.726562 0.406250 -0.335938
0.632812 0.453125 -0.281250
-0.796875 0.562500 -0.125000
-0.640625 0.703125 -0.054688
0.796875 0.562500 -0.125000
0.640625 0.703125 -0.054688
-0.796875 0.617188 0.117188
-0.640625 0.750000 0.195312
0.796875 0.617188 0.117188
0.640625 0.750000 0.195312
-0.796875 0.539062 0.359375
-0.640625 0.679688 0.445312
0.796875 0.539062 0.359375
0.640625 0.679688 0.445312
-0.617188 0.328125 0.585938
-0.773438 0.265625 0.437500
0.617188 0.328125 0.585938
-0.453125 0.929688 0.070312
-0.460938 0.523438 -0.429688
0.460938 0.523438 -0.429688
0.000000 0.570312 -0.570312
-0.859375 0.320312 0.046875
0.859375 0.320312 0.046875
-0.820312 0.328125 0.203125
0.820312 0.328125 0.203125
-0.296875 -0.312500 0.265625
-0.406250 -0.171875 -0.148438
0.406250 -0.171875 -0.148438
0.429688 -0.195312 0.210938
-0.593750 -0.125000 0.164062
0.593750 -0.125000 0.164062
-0.210938 -0.226562 -0.468750
-0.640625 -0.007812 0.429688
0.640625 -0.007812 0.429688
0.484375 0.023438 0.546875
-0.429688 -0.195312 0.210938
-0.484375 0.023438 0.546875
-0.890625 0.406250 0.234375
-1.015625 0.414062 0.289062
-1.023438 0.476562 0.312500
0.890625 0.406250 0.234375
1.015625 0.414062 0.289062
0.921875 0.359375 0.218750
-1.187500 0.437500 0.390625
-1.234375 0.507812 0.421875
1.187500 0.437500 0.390625
1.023438 0.476562 0.312500
1.234375 0.507812 0.421875
-1.351562 0.320312 0.421875
1.351562 0.320312 0.421875
1.265625 0.289062 0.406250
-1.265625 0.289062 0.406250
-1.281250 0.054688 0.429688
1.281250 0.054688 0.429688
1.210938 0.078125 0.406250
-1.210938 0.078125 0.406250
-1.039062 -0.101562 0.328125
1.039062 -0.101562 0.328125
1.031250 -0.039062 0.304688
-0.828125 -0.070312 0.132812
-0.773438 -0.140625 0.125000
0.828125 -0.070312 0.132812
0.773438 -0.140625 0.125000
-1.031250 -0.039062 0.304688
-0.882812 -0.023438 0.210938
0.882812 -0.023438 0.210938
-1.039062 0.000000 0.367188
1.039062 0.000000 0.367188
-1.234375 0.250000 0.445312
1.234375 0.250000 0.445312
1.187500 0.093750 0.445312
-1.171875 0.359375 0.437500
1.171875 0.359375 0.437500
-1.023438 0.343750 0.359375
1.023438 0.343750 0.359375
-0.945312 0.304688 0.289062
0.945312 0.304688 0.289062
-0.726562 0.000000 0.070312
0.726562 0.000000 0.070312
0.718750 -0.023438 0.171875
-0.718750 -0.023438 0.171875
-0.921875 0.359375 0.218750
-0.812500 -0.015625 0.273438
0.812500 -0.015625 0.273438
-0.718750 0.039062 0.187500
-0.843750 0.015625 0.273438
0.718750 0.039062 0.187500
-0.757812 0.093750 0.273438
-0.820312 0.085938 0.273438
0.843750 0.015625 0.273438
0.757812 0.093750 0.273438
0.820312 0.085938 0.273438
-0.796875 0.203125 0.210938
-0.835938 0.171875 0.273438
0.796875 0.203125 0.210938
-0.890625 0.242188 0.265625
-0.843750 0.289062 0.210938
0.890625 0.242188 0.265625
0.835938 0.171875 0.273438
0.843750 0.289062 0.210938
-0.890625 0.234375 0.320312
-0.953125 0.289062 0.343750
0.890625 0.234375 0.320312
0.953125 0.289062 0.343750
0.843750 0.171875 0.320312
-0.765625 0.093750 0.320312
-0.843750 0.171875 0.320312
0.765625 0.093750 0.320312
0.828125 0.078125 0.320312
-0.828125 0.078125 0.320312
0.851562 0.015625 0.320312
-0.812500 -0.015625 0.320312
-0.851562 0.015625 0.320312
0.812500 -0.015625 0.320312
-0.882812 -0.015625 0.265625
0.882812 -0.015625 0.265625
-1.039062 0.328125 0.414062
1.039062 0.328125 0.414062
-1.187500 0.343750 0.484375
1.187500 0.343750 0.484375
-1.257812 0.242188 0.492188
1.257812 0.242188 0.492188
-1.210938 0.085938 0.484375
-1.187500 0.093750 0.445312
1.210938 0.085938 0.484375
-1.046875 0.000000 0.421875
1.046875 0.000000 0.421875
-0.890625 0.109375 0.328125
0.890625 0.109375 0.328125
0.937500 0.062500 0.335938
-0.937500 0.062500 0.335938
-0.960938 0.171875 0.351562
0.960938 0.171875 0.351562
1.000000 0.125000 0.367188
-1.054688 0.187500 0.382812
-1.015625 0.234375 0.375000
1.054688 0.187500 0.382812
1.015625 0.234375 0.375000
-1.085938 0.273438 0.390625
1.085938 0.273438 0.390625
1.109375 0.210938 0.390625
-1.109375 0.210938 0.390625
-0.789062 -0.125000 0.328125
-1.039062 -0.085938 0.492188
0.789062 -0.125000 0.328125
1.039062 -0.085938 0.492188
-1.312500 0.054688 0.531250
1.312500 0.054688 0.531250
-1.367188 0.296875 0.500000
1.367188 0.296875 0.500000
-1.250000 0.468750 0.546875
1.250000 0.468750 0.546875
-1.023438 0.437500 0.484375
1.023438 0.437500 0.484375
-0.859375 0.382812 0.382812
0.859375 0.382812 0.382812
0.773438 0.265625 0.437500
0.164062 0.414062 -0.773438
-1.000000 0.125000 0.367188
3 0 1 2
3 3 4 5
3 2 6 7
3 8 5 9
3 1 10 6
3 11 3 8
3 12 13 1
3 14 15 3
3 16 17 13
3 18 19 14
3 13 20 10
3 21 14 11
3 22 20 17
3 23 21 24
3 25 17 26
3 27 18 23
3 25 28 22
3 29 27 23
3 28 30 22
3 29 24 31
3 32 33 28
3 34 31 35
3 36 28 37
3 38 29 34
3 39 32 36
3 40 34 41
3 42 43 32
3 41 35 44
3 2 45 42
3 5 44 9
3 0 42 39
3 4 41 5
3 39 46 0
3 40 47 48
3 36 49 39
3 38 48 50
3 37 51 36
3 52 50 53
3 25 54 37
3 27 53 55
3 25 56 57
3 58 27 55
3 26 59 56
3 60 61 58
3 16 62 59
3 63 19 60
3 12 46 62
3 47 15 63
3 64 62 46
3 47 63 65
3 59 62 64
3 65 63 60
3 64 56 59
3 60 58 65
3 64 57 56
3 58 55 65
3 64 54 57
3 55 53 65
3 64 51 54
3 53 50 65
3 64 49 51
3 50 48 65
3 64 46 49
3 48 47 65
3 66 67 68
3 69 67 70
3 71 68 72
3 73 74 69
3 75 71 72
3 73 76 77
3 78 79 75
3 80 81 76
3 82 83 78
3 84 85 81
3 86 87 88
3 89 90 91
3 92 87 93
3 94 89 95
3 92 96 97
3 98 94 95
3 99 96 100
3 101 98 102
3 103 104 99
3 105 102 106
3 107 108 103
3 109 106 110
3 107 111 112
3 113 109 110
3 114 111 115
3 116 113 117
3 118 119 114
3 120 117 121
3 122 123 118
3 122 121 124
3 125 123 126
3 127 121 117
3 125 111 119
3 113 127 117
3 112 128 129
3 110 130 113
3 108 129 131
3 106 132 110
3 104 131 133
3 102 134 106
3 96 133 135
3 98 136 102
3 97 135 137
3 95 138 98
3 87 137 139
3 89 140 95
3 141 87 139
3 89 142 143
3 141 144 88
3 144 142 91
3 123 145 126
3 121 146 124
3 145 147 148
3 147 146 149
3 150 147 144
3 151 147 149
3 152 70 66
3 70 153 69
3 154 66 71
3 69 155 73
3 154 79 156
3 155 80 73
3 157 158 83
3 159 160 84
3 156 83 158
3 84 161 159
3 162 163 164
3 162 165 166
3 163 167 158
3 165 167 166
3 156 167 168
3 161 167 159
3 169 170 164
3 171 172 173
3 174 169 175
3 176 172 177
3 178 175 179
3 180 181 176
3 182 179 183
3 182 179 180
3 164 184 162
3 173 184 171
3 170 185 184
3 171 185 186
3 182 187 178
3 188 182 180
3 178 189 174
3 190 180 176
3 189 191 174
3 190 177 192
3 191 193 170
3 186 177 171
3 194 187 195
3 192 188 190
3 195 193 194
3 186 195 192
3 179 88 144
3 91 179 144
3 175 196 88
3 197 181 91
3 164 196 169
3 173 197 198
3 163 199 164
3 165 198 160
3 200 157 82
3 201 160 198
3 202 199 200
3 203 198 197
3 86 196 202
3 197 90 203
3 168 204 156
3 168 205 206
3 154 204 207
3 205 155 208
3 152 207 209
3 208 153 210
3 211 209 212
3 210 211 212
3 209 213 212
3 210 213 214
3 209 215 216
3 217 210 214
3 207 218 215
3 219 208 217
3 206 218 204
3 206 219 220
3 220 216 218
3 214 220 219
3 218 216 215
3 217 214 219
3 148 221 222
3 223 149 224
3 145 222 225
3 224 146 226
3 145 227 126
3 146 228 226
3 141 221 150
3 142 223 229
3 141 230 231
3 232 142 229
3 139 233 230
3 234 143 232
3 137 235 233
3 236 140 234
3 135 237 235
3 238 138 236
3 131 237 133
3 134 238 239
3 129 240 131
3 132 239 241
3 129 242 243
3 244 132 241
3 128 245 242
3 246 130 244
3 125 227 245
3 228 127 246
3 245 247 248
3 249 246 250
3 242 248 251
3 250 244 252
3 242 253 243
3 244 254 252
3 243 255 240
3 241 256 254
3 237 255 257
3 256 238 258
3 237 259 235
3 238 260 258
3 233 259 261
3 260 234 262
3 233 263 230
3 234 264 262
3 230 265 231
3 232 266 264
3 221 265 267
3 266 223 268
3 227 269 247
3 270 228 249
3 225 271 269
3 272 226 270
3 222 267 271
3 268 224 272
3 122 273 274
3 275 122 274
3 118 276 273
3 277 120 275
3 115 276 114
3 278 277 279
3 107 280 115
3 109 279 281
3 103 282 107
3 105 281 283
3 103 284 285
3 286 105 283
3 100 284 99
3 287 286 288
3 100 289 290
3 291 287 288
3 92 292 289
3 293 94 291
3 294 295 296
3 294 297 298
3 296 299 300
3 296 301 297
3 300 302 303
3 300 304 301
3 68 303 302
3 303 74 304
3 72 302 305
3 304 77 306
3 75 305 307
3 306 76 308
3 78 307 309
3 308 81 310
3 307 295 309
3 297 308 310
3 305 299 307
3 306 301 304
3 309 311 312
3 310 298 297
3 82 309 312
3 310 85 313
3 314 202 200
3 315 203 316
3 312 200 82
3 313 201 315
3 202 317 86
3 203 318 316
3 317 93 86
3 318 319 293
3 320 321 322
3 323 321 324
3 325 326 321
3 324 326 327
3 326 328 329
3 330 326 329
3 329 311 294
3 298 329 294
3 311 314 312
3 298 315 330
3 290 331 332
3 333 288 334
3 335 322 336
3 337 322 323
3 338 339 340
3 341 339 342
3 339 343 344
3 345 339 344
3 344 335 336
3 337 344 336
3 285 346 347
3 348 283 349
3 347 350 351
3 352 349 353
3 351 354 355
3 356 353 357
3 355 358 359
3 360 357 361
3 362 358 363
3 364 360 361
3 335 359 362
3 361 337 364
3 343 355 359
3 357 345 361
3 365 351 355
3 353 342 357
3 338 347 351
3 349 341 353
3 285 366 282
3 283 367 349
3 366 340 368
3 367 340 341
3 276 282 273
3 277 281 279
3 273 366 368
3 367 275 368
3 274 273 368
3 368 275 274
3 290 346 284
3 288 348 334
3 332 350 346
3 352 334 348
3 369 354 350
3 356 370 352
3 358 371 363
3 360 372 356
3 373 374 328
3 327 375 376
3 374 377 331
3 375 378 376
3 289 374 331
3 375 291 333
3 292 314 374
3 315 293 375
3 314 328 374
3 375 330 315
3 292 317 379
3 316 318 293
3 380 362 363
3 381 364 382
3 362 320 335
3 364 323 382
3 383 380 377
3 376 381 382
3 325 383 373
3 324 376 382
3 320 384 325
3 324 382 323
3 385 386 387
3 388 389 390
3 387 391 392
3 393 394 395
3 391 396 392
3 393 397 398
3 399 400 396
3 398 401 402
3 403 404 400
3 402 405 406
3 404 407 408
3 409 405 410
3 411 412 407
3 413 406 409
3 403 414 411
3 415 402 406
3 416 403 399
3 417 402 418
3 419 399 391
3 420 398 417
3 421 391 386
3 422 393 420
3 386 423 421
3 424 389 422
3 377 425 331
3 378 426 427
3 408 428 377
3 410 427 409
3 332 425 369
3 426 334 370
3 371 429 385
3 390 372 388
3 407 430 428
3 431 409 427
3 432 430 433
3 434 431 427
3 435 433 436
3 437 438 439
3 440 435 441
3 442 438 434
3 440 443 444
3 442 445 446
3 444 423 429
3 447 424 445
3 440 371 369
3 442 372 447
3 425 440 369
3 426 442 434
3 425 428 432
3 434 427 426
3 423 448 449
3 450 424 451
3 441 448 443
3 446 450 452
3 441 453 454
3 455 446 452
3 436 453 435
3 439 455 456
3 433 457 436
3 437 456 458
3 433 459 460
3 461 437 458
3 430 462 459
3 463 431 461
3 421 449 464
3 451 422 465
3 419 464 466
3 465 420 467
3 416 466 468
3 467 417 469
3 416 470 471
3 417 472 469
3 471 473 414
3 418 474 472
3 414 462 412
3 415 463 474
3 460 475 457
3 458 476 477
3 478 479 475
3 477 480 481
3 479 482 483
3 484 480 485
3 482 486 483
3 484 487 488
3 464 483 486
3 485 465 487
3 479 449 448
3 480 451 485
3 454 479 448
3 452 480 476
3 457 454 453
3 452 456 455
3 462 460 459
3 463 458 477
3 473 478 462
3 477 474 463
3 482 473 470
3 484 474 481
3 489 470 468
3 488 472 484
3 466 489 468
3 488 467 469
3 464 486 466
3 467 487 465
3 404 490 491
3 492 405 493
3 400 491 494
3 493 401 495
3 400 496 396
3 401 497 495
3 396 498 392
3 397 499 497
3 392 500 387
3 395 501 499
3 387 502 385
3 394 503 501
3 491 502 500
3 493 503 492
3 500 494 491
3 495 501 493
3 498 496 494
3 495 497 499
3 371 502 363
3 372 503 388
3 363 490 380
3 492 504 381
3 377 490 408
3 492 378 410
3 0 12 1
3 3 15 4
3 2 1 6
3 8 3 5
3 1 13 10
3 11 14 3
3 12 16 13
3 14 19 15
3 16 26 17
3 18 61 19
3 13 17 20
3 21 18 14
3 22 30 20
3 23 18 21
3 25 22 17
3 27 61 18
3 25 37 28
3 29 52 27
3 28 33 30
3 29 23 24
3 32 43 33
3 34 29 31
3 36 32 28
3 38 52 29
3 39 42 32
3 40 38 34
3 42 45 43
3 41 34 35
3 2 7 45
3 5 41 44
3 0 2 42
3 4 40 41
3 39 49 46
3 40 4 47
3 36 51 49
3 38 40 48
3 37 54 51
3 52 38 50
3 25 57 54
3 27 52 53
3 25 26 56
3 58 61 27
3 26 16 59
3 60 19 61
3 16 12 62
3 63 15 19
3 12 0 46
3 47 4 15
3 66 70 67
3 69 74 67
3 71 66 68
3 73 77 74
3 75 79 71
3 73 80 76
3 78 83 79
3 80 84 81
3 82 157 83
3 84 160 85
3 86 93 87
3 89 319 90
3 92 97 87
3 94 319 89
3 92 100 96
3 98 287 94
3 99 104 96
3 101 287 98
3 103 108 104
3 105 101 102
3 107 112 108
3 109 105 106
3 107 115 111
3 113 278 109
3 114 119 111
3 116 278 113
3 118 123 119
3 120 116 117
3 122 124 123
3 122 120 121
3 125 119 123
3 127 505 121
3 125 128 111
3 113 130 127
3 112 111 128
3 110 132 130
3 108 112 129
3 106 134 132
3 104 108 131
3 102 136 134
3 96 104 133
3 98 138 136
3 97 96 135
3 95 140 138
3 87 97 137
3 89 143 140
3 141 88 87
3 89 91 142
3 141 150 144
3 144 151 142
3 123 124 145
3 121 505 146
3 145 124 147
3 147 124 146
3 150 148 147
3 151 144 147
3 152 211 70
3 70 211 153
3 154 152 66
3 69 153 155
3 154 71 79
3 155 161 80
3 157 163 158
3 159 165 160
3 156 79 83
3 84 80 161
3 162 166 163
3 162 173 165
3 163 166 167
3 165 159 167
3 156 158 167
3 161 168 167
3 169 191 170
3 171 177 172
3 174 191 169
3 176 181 172
3 178 174 175
3 180 179 181
3 182 178 179
3 164 170 184
3 173 162 184
3 170 193 185
3 171 184 185
3 182 195 187
3 188 195 182
3 178 187 189
3 190 188 180
3 189 194 191
3 190 176 177
3 191 194 193
3 186 192 177
3 194 189 187
3 192 195 188
3 195 185 193
3 186 185 195
3 179 175 88
3 91 181 179
3 175 169 196
3 197 172 181
3 164 199 196
3 173 172 197
3 163 157 199
3 165 173 198
3 200 199 157
3 201 85 160
3 202 196 199
3 203 201 198
3 86 88 196
3 197 91 90
3 168 206 204
3 168 161 205
3 154 156 204
3 205 161 155
3 152 154 207
3 208 155 153
3 211 152 209
3 210 153 211
3 209 216 213
3 210 212 213
3 209 207 215
3 217 208 210
3 207 204 218
3 219 205 208
3 206 220 218
3 206 205 219
3 220 213 216
3 214 213 220
3 148 150 221
3 223 151 149
3 145 148 222
3 224 149 146
3 145 225 227
3 146 505 228
3 141 231 221
3 142 151 223
3 141 139 230
3 232 143 142
3 139 137 233
3 234 140 143
3 137 135 235
3 236 138 140
3 135 133 237
3 238 136 138
3 131 240 237
3 134 136 238
3 129 243 240
3 132 134 239
3 129 128 242
3 244 130 132
3 128 125 245
3 246 127 130
3 125 126 227
3 228 505 127
3 245 227 247
3 249 228 246
3 242 245 248
3 250 246 244
3 242 251 253
3 244 241 254
3 243 253 255
3 241 239 256
3 237 240 255
3 256 239 238
3 237 257 259
3 238 236 260
3 233 235 259
3 260 236 234
3 233 261 263
3 234 232 264
3 230 263 265
3 232 229 266
3 221 231 265
3 266 229 223
3 227 225 269
3 270 226 228
3 225 222 271
3 272 224 226
3 222 221 267
3 268 223 224
3 122 118 273
3 275 120 122
3 118 114 276
3 277 116 120
3 115 280 276
3 278 116 277
3 107 282 280
3 109 278 279
3 103 285 282
3 105 109 281
3 103 99 284
3 286 101 105
3 100 290 284
3 287 101 286
3 100 92 289
3 291 94 287
3 92 93 292
3 293 319 94
3 294 311 295
3 294 296 297
3 296 295 299
3 296 300 301
3 300 299 302
3 300 303 304
3 68 67 303
3 303 67 74
3 72 68 302
3 304 74 77
3 75 72 305
3 306 77 76
3 78 75 307
3 308 76 81
3 307 299 295
3 297 301 308
3 305 302 299
3 306 308 301
3 309 295 311
3 310 313 298
3 82 78 309
3 310 81 85
3 314 379 202
3 315 201 203
3 312 314 200
3 313 85 201
3 202 379 317
3 203 90 318
3 317 292 93
3 318 90 319
3 320 325 321
3 323 322 321
3 325 373 326
3 324 321 326
3 326 373 328
3 330 327 326
3 329 328 311
3 298 330 329
3 311 328 314
3 298 313 315
3 290 289 331
3 333 291 288
3 335 320 322
3 337 336 322
3 338 365 339
3 341 340 339
3 339 365 343
3 345 342 339
3 344 343 335
3 337 345 344
3 285 284 346
3 348 286 283
3 347 346 350
3 352 348 349
3 351 350 354
3 356 352 353
3 355 354 358
3 360 356 357
3 362 359 358
3 364 504 360
3 335 343 359
3 361 345 337
3 343 365 355
3 357 342 345
3 365 338 351
3 353 341 342
3 338 366 347
3 349 367 341
3 285 347 366
3 283 281 367
3 366 338 340
3 367 368 340
3 276 280 282
3 277 275 281
3 273 282 366
3 367 281 275
3 290 332 346
3 288 286 348
3 332 369 350
3 352 370 334
3 369 371 354
3 356 372 370
3 358 354 371
3 360 504 372
3 373 383 374
3 327 330 375
3 374 383 377
3 375 333 378
3 289 292 374
3 375 293 291
3 292 379 314
3 315 316 293
3 380 384 362
3 381 504 364
3 362 384 320
3 364 337 323
3 383 384 380
3 376 378 381
3 325 384 383
3 324 327 376
3 385 429 386
3 388 394 389
3 387 386 391
3 393 389 394
3 391 399 396
3 393 395 397
3 399 403 400
3 398 397 401
3 403 411 404
3 402 401 405
3 404 411 407
3 409 406 405
3 411 414 412
3 413 415 406
3 403 471 414
3 415 418 402
3 416 471 403
3 417 398 402
3 419 416 399
3 420 393 398
3 421 419 391
3 422 389 393
3 386 429 423
3 424 390 389
3 377 428 425
3 378 333 426
3 408 407 428
3 410 378 427
3 332 331 425
3 426 333 334
3 371 444 429
3 390 447 372
3 407 412 430
3 431 413 409
3 432 428 430
3 434 437 431
3 435 432 433
3 437 434 438
3 440 432 435
3 442 446 438
3 440 441 443
3 442 447 445
3 444 443 423
3 447 390 424
3 440 444 371
3 442 370 372
3 425 432 440
3 426 370 442
3 423 443 448
3 450 445 424
3 441 454 448
3 446 445 450
3 441 435 453
3 455 438 446
3 436 457 453
3 439 438 455
3 433 460 457
3 437 439 456
3 433 430 459
3 461 431 437
3 430 412 462
3 463 413 431
3 421 423 449
3 451 424 422
3 419 421 464
3 465 422 420
3 416 419 466
3 467 420 417
3 416 468 470
3 417 418 472
3 471 470 473
3 418 415 474
3 414 473 462
3 415 413 463
3 460 478 475
3 458 456 476
3 478 506 479
3 477 476 480
3 479 506 482
3 484 481 480
3 482 489 486
3 484 485 487
3 464 449 483
3 485 451 465
3 479 483 449
3 480 450 451
3 454 475 479
3 452 450 480
3 457 475 454
3 452 476 456
3 462 478 460
3 463 461 458
3 473 506 478
3 477 481 474
3 482 506 473
3 484 472 474
3 489 482 470
3 488 469 472
3 466 486 489
3 488 487 467
3 404 408 490
3 492 410 405
3 400 404 491
3 493 405 401
3 400 494 496
3 401 397 497
3 396 496 498
3 397 395 499
3 392 498 500
3 395 394 501
3 387 500 502
3 394 388 503
3 491 490 502
3 493 501 503
3 500 498 494
3 495 499 501
3 371 385 502
3 372 504 503
3 363 502 490
3 492 503 504
3 377 380 490
3 492 381 378
