ply
format ascii 1.0
comment Created by Blender 2.79 (sub 0) - www.blender.org, source file: ''
element vertex 406
property float x
property float y
property float z
element face 808
property list uchar uint vertex_indices
end_header
0.178069 -0.250000 0.000000
0.178069 0.000000 -0.250000
0.178069 0.000000 0.000000
0.178069 -0.250000 -0.250000
0.178069 0.000000 -0.500000
0.178069 -0.250000 -0.500000
0.178069 0.000000 -0.750000
0.178069 -0.250000 -0.750000
0.178069 0.000000 -1.000000
0.178069 -0.500000 0.000000
0.178069 -0.500000 -0.250000
0.178069 -0.500000 -0.500000
0.178069 -0.500000 -0.750000
0.178069 -0.250000 -1.000000
0.178069 -0.750000 0.000000
0.178069 -0.750000 -0.250000
0.178069 -0.750000 -0.500000
0.178069 -0.750000 -0.750000
0.178069 -0.500000 -1.000000
0.178069 -1.000000 0.000000
0.178069 -1.000000 -0.250000
0.178069 -1.000000 -0.500000
0.178069 -1.000000 -0.750000
0.178069 -0.750000 -1.000000
0.178069 0.250000 0.000000
0.178069 0.250000 -0.250000
0.178069 0.500000 0.000000
0.178069 0.500000 -0.250000
0.178069 0.750000 0.000000
0.178069 0.750000 -0.250000
0.178069 1.000000 0.000000
0.178069 0.250000 -0.500000
0.178069 0.500000 -0.500000
0.178069 0.750000 -0.500000
0.178069 1.000000 -0.250000
0.178069 0.250000 -0.750000
0.178069 0.500000 -0.750000
0.178069 0.750000 -0.750000
0.178069 1.000000 -0.500000
0.178069 0.250000 -1.000000
0.178069 0.500000 -1.000000
0.178069 0.750000 -1.000000
0.178069 1.000000 -0.750000
0.178069 0.000000 0.250000
0.178069 0.250000 0.250000
0.178069 0.000000 0.500000
0.178069 0.250000 0.500000
0.178069 0.000000 0.750000
0.178069 0.250000 0.750000
0.069631 0.000000 1.000000
0.178069 0.500000 0.250000
0.178069 0.500000 0.500000
0.178069 0.500000 0.750000
0.069631 0.250000 1.000000
0.178069 0.750000 0.250000
0.178069 0.750000 0.500000
0.178069 0.750000 0.750000
0.069631 0.500000 1.000000
0.178069 1.000000 0.250000
0.178069 1.000000 0.500000
0.178069 1.000000 0.750000
0.069631 0.750000 1.000000
0.178069 -0.250000 0.250000
0.178069 -0.500000 0.250000
0.178069 -0.750000 0.250000
0.178069 -0.250000 0.500000
0.178069 -0.500000 0.500000
0.178069 -0.750000 0.500000
0.178069 -1.000000 0.250000
0.178069 -0.250000 0.750000
0.178069 -0.500000 0.750000
0.178069 -0.750000 0.750000
0.178069 -1.000000 0.500000
0.069631 -0.250000 1.000000
0.069631 -0.500000 1.000000
0.069631 -0.750000 1.000000
0.178069 -1.000000 0.750000
-0.017751 0.750000 1.000000
-0.017751 1.000000 1.615748
-0.017751 1.000000 1.000000
0.018340 -0.250000 1.000000
0.033402 0.000000 1.000000
0.018340 0.000000 1.000000
0.033402 -0.250000 1.000000
0.051729 0.000000 1.000000
0.051729 -0.250000 1.000000
-0.017751 -1.000000 1.000000
-0.017751 -0.750000 1.615748
-0.017751 -0.750000 1.000000
0.018340 -0.500000 1.000000
0.033402 -0.500000 1.000000
0.051729 -0.500000 1.000000
0.018340 -0.500000 1.615748
0.018340 -0.750000 1.000000
0.033402 -0.750000 1.000000
0.051729 -0.750000 1.000000
0.018340 0.500000 1.000000
0.018340 0.250000 1.615748
0.018340 0.250000 1.000000
0.018340 -1.000000 1.000000
0.033402 -1.000000 1.000000
0.051729 -1.000000 1.000000
-0.017751 0.500000 1.000000
-0.017751 0.750000 1.615748
0.000000 1.000000 1.615748
0.000000 1.000000 1.000000
-0.017751 -0.500000 1.615748
-0.017751 -0.500000 1.000000
0.018340 -0.250000 1.615748
0.033402 0.250000 1.000000
0.033402 0.500000 1.000000
0.018340 0.750000 1.000000
0.033402 0.750000 1.000000
0.018340 1.000000 1.000000
0.051729 0.250000 1.000000
0.051729 0.500000 1.000000
0.051729 0.750000 1.000000
0.033402 1.000000 1.000000
0.051729 1.000000 1.000000
0.000000 -1.000000 1.615748
0.000000 -1.000000 1.000000
-0.017751 0.250000 1.000000
-0.035330 0.000000 1.000000
-0.017751 0.000000 1.000000
-0.035330 0.250000 1.000000
-0.049801 0.000000 1.000000
-0.049801 0.250000 1.000000
-0.067581 0.000000 1.000000
0.018340 1.000000 1.615748
-0.035330 0.500000 1.000000
-0.049801 0.500000 1.000000
-0.067581 0.250000 1.000000
0.018340 0.000000 1.615748
-0.035330 0.750000 1.000000
-0.049801 0.750000 1.000000
-0.067581 0.500000 1.000000
-0.017751 -1.000000 1.615748
-0.035330 1.000000 1.000000
-0.049801 1.000000 1.000000
-0.067581 0.750000 1.000000
-0.017751 0.500000 1.615748
0.018340 -1.000000 1.615748
-0.017751 -0.250000 1.615748
-0.017751 -0.250000 1.000000
0.018340 0.750000 1.615748
-0.035330 -0.250000 1.000000
-0.035330 -0.500000 1.000000
-0.035330 -0.750000 1.000000
-0.049801 -0.250000 1.000000
-0.049801 -0.500000 1.000000
-0.049801 -0.750000 1.000000
-0.035330 -1.000000 1.000000
-0.067581 -0.250000 1.000000
-0.067581 -0.500000 1.000000
-0.067581 -0.750000 1.000000
-0.049801 -1.000000 1.000000
-0.178069 -0.250000 0.000000
-0.178069 0.000000 0.250000
-0.178069 0.000000 0.000000
-0.178069 -0.250000 0.250000
-0.178069 0.000000 0.500000
-0.178069 -0.250000 0.500000
-0.178069 0.000000 0.750000
-0.178069 -0.250000 0.750000
-0.178069 -0.500000 0.000000
-0.178069 -0.500000 0.250000
-0.178069 -0.500000 0.500000
-0.178069 -0.500000 0.750000
-0.178069 -0.750000 0.000000
-0.178069 -0.750000 0.250000
-0.178069 -0.750000 0.500000
-0.178069 -0.750000 0.750000
-0.178069 -1.000000 0.000000
-0.178069 -1.000000 0.250000
-0.178069 -1.000000 0.500000
-0.178069 -1.000000 0.750000
-0.178069 0.250000 0.000000
-0.178069 0.250000 0.250000
-0.178069 0.500000 0.000000
-0.178069 0.500000 0.250000
-0.178069 0.750000 0.000000
-0.178069 0.750000 0.250000
-0.178069 1.000000 0.000000
-0.178069 0.250000 0.500000
-0.178069 0.500000 0.500000
-0.178069 0.750000 0.500000
-0.178069 1.000000 0.250000
-0.178069 0.250000 0.750000
-0.178069 0.500000 0.750000
-0.178069 0.750000 0.750000
-0.178069 1.000000 0.500000
-0.178069 1.000000 0.750000
-0.178069 0.000000 -0.250000
-0.178069 0.250000 -0.250000
-0.178069 0.000000 -0.500000
-0.178069 0.250000 -0.500000
-0.178069 0.000000 -0.750000
-0.178069 0.250000 -0.750000
-0.178069 0.000000 -1.000000
-0.178069 0.500000 -0.250000
-0.178069 0.500000 -0.500000
-0.178069 0.500000 -0.750000
-0.178069 0.250000 -1.000000
-0.178069 0.750000 -0.250000
-0.178069 0.750000 -0.500000
-0.178069 0.750000 -0.750000
-0.178069 0.500000 -1.000000
-0.178069 1.000000 -0.250000
-0.178069 1.000000 -0.500000
-0.178069 1.000000 -0.750000
-0.178069 0.750000 -1.000000
-0.178069 -0.250000 -0.250000
-0.178069 -0.500000 -0.250000
-0.178069 -0.750000 -0.250000
-0.178069 -0.250000 -0.500000
-0.178069 -0.500000 -0.500000
-0.178069 -0.750000 -0.500000
-0.178069 -1.000000 -0.250000
-0.178069 -0.250000 -0.750000
-0.178069 -0.500000 -0.750000
-0.178069 -0.750000 -0.750000
-0.178069 -1.000000 -0.500000
-0.178069 -0.250000 -1.000000
-0.178069 -0.500000 -1.000000
-0.178069 -0.750000 -1.000000
-0.178069 -1.000000 -0.750000
0.000000 -0.250000 -1.000000
-0.044517 0.000000 -1.000000
0.000000 0.000000 -1.000000
-0.044517 -0.250000 -1.000000
-0.089035 0.000000 -1.000000
-0.089035 -0.250000 -1.000000
-0.133552 0.000000 -1.000000
-0.133552 -0.250000 -1.000000
0.000000 -0.500000 -1.000000
-0.044517 -0.500000 -1.000000
-0.089035 -0.500000 -1.000000
-0.133552 -0.500000 -1.000000
0.000000 -0.750000 -1.000000
-0.044517 -0.750000 -1.000000
-0.089035 -0.750000 -1.000000
-0.133552 -0.750000 -1.000000
0.000000 -1.000000 -1.000000
-0.044517 -1.000000 -1.000000
-0.089035 -1.000000 -1.000000
-0.133552 -1.000000 -1.000000
0.000000 0.250000 -1.000000
-0.044517 0.250000 -1.000000
0.000000 0.500000 -1.000000
-0.044517 0.500000 -1.000000
0.000000 0.750000 -1.000000
-0.044517 0.750000 -1.000000
0.000000 1.000000 -1.000000
-0.089035 0.250000 -1.000000
-0.089035 0.500000 -1.000000
-0.089035 0.750000 -1.000000
-0.044517 1.000000 -1.000000
-0.133552 0.250000 -1.000000
-0.133552 0.500000 -1.000000
-0.133552 0.750000 -1.000000
-0.089035 1.000000 -1.000000
-0.133552 1.000000 -1.000000
0.044517 0.000000 -1.000000
0.044517 0.250000 -1.000000
0.089035 0.000000 -1.000000
0.089035 0.250000 -1.000000
0.133552 0.000000 -1.000000
0.133552 0.250000 -1.000000
0.044517 0.500000 -1.000000
0.089035 0.500000 -1.000000
0.133552 0.500000 -1.000000
0.044517 0.750000 -1.000000
0.089035 0.750000 -1.000000
0.133552 0.750000 -1.000000
0.044517 1.000000 -1.000000
0.089035 1.000000 -1.000000
0.133552 1.000000 -1.000000
0.044517 -0.250000 -1.000000
0.044517 -0.500000 -1.000000
0.044517 -0.750000 -1.000000
0.089035 -0.250000 -1.000000
0.089035 -0.500000 -1.000000
0.089035 -0.750000 -1.000000
0.044517 -1.000000 -1.000000
0.133552 -0.250000 -1.000000
0.133552 -0.500000 -1.000000
0.133552 -0.750000 -1.000000
0.089035 -1.000000 -1.000000
0.133552 -1.000000 -1.000000
0.044517 -1.000000 0.000000
0.000000 -1.000000 0.250000
0.000000 -1.000000 0.000000
0.044517 -1.000000 0.250000
0.000000 -1.000000 0.500000
0.044517 -1.000000 0.500000
0.000000 -1.000000 0.750000
0.089035 -1.000000 0.000000
0.089035 -1.000000 0.250000
0.089035 -1.000000 0.500000
0.044517 -1.000000 0.750000
0.133552 -1.000000 0.000000
0.133552 -1.000000 0.250000
0.133552 -1.000000 0.500000
0.089035 -1.000000 0.750000
0.133552 -1.000000 0.750000
0.069631 -1.000000 1.000000
-0.044517 -1.000000 0.000000
-0.044517 -1.000000 0.250000
-0.089035 -1.000000 0.000000
-0.089035 -1.000000 0.250000
-0.133552 -1.000000 0.000000
-0.133552 -1.000000 0.250000
-0.044517 -1.000000 0.500000
-0.089035 -1.000000 0.500000
-0.133552 -1.000000 0.500000
-0.044517 -1.000000 0.750000
-0.089035 -1.000000 0.750000
-0.133552 -1.000000 0.750000
-0.067581 -1.000000 1.000000
0.000000 -1.000000 -0.250000
-0.044517 -1.000000 -0.250000
0.000000 -1.000000 -0.500000
-0.044517 -1.000000 -0.500000
0.000000 -1.000000 -0.750000
-0.044517 -1.000000 -0.750000
-0.089035 -1.000000 -0.250000
-0.089035 -1.000000 -0.500000
-0.089035 -1.000000 -0.750000
-0.133552 -1.000000 -0.250000
-0.133552 -1.000000 -0.500000
-0.133552 -1.000000 -0.750000
0.044517 -1.000000 -0.250000
0.089035 -1.000000 -0.250000
0.133552 -1.000000 -0.250000
0.044517 -1.000000 -0.500000
0.089035 -1.000000 -0.500000
0.133552 -1.000000 -0.500000
0.044517 -1.000000 -0.750000
0.089035 -1.000000 -0.750000
0.133552 -1.000000 -0.750000
-0.044517 1.000000 0.000000
0.000000 1.000000 0.250000
0.000000 1.000000 0.000000
-0.044517 1.000000 0.250000
0.000000 1.000000 0.500000
-0.044517 1.000000 0.500000
0.000000 1.000000 0.750000
-0.089035 1.000000 0.000000
-0.089035 1.000000 0.250000
-0.089035 1.000000 0.500000
-0.044517 1.000000 0.750000
-0.133552 1.000000 0.000000
-0.133552 1.000000 0.250000
-0.133552 1.000000 0.500000
-0.089035 1.000000 0.750000
-0.133552 1.000000 0.750000
-0.067581 1.000000 1.000000
0.044517 1.000000 0.000000
0.044517 1.000000 0.250000
0.089035 1.000000 0.000000
0.089035 1.000000 0.250000
0.133552 1.000000 0.000000
0.133552 1.000000 0.250000
0.044517 1.000000 0.500000
0.089035 1.000000 0.500000
0.133552 1.000000 0.500000
0.044517 1.000000 0.750000
0.089035 1.000000 0.750000
0.133552 1.000000 0.750000
0.069631 1.000000 1.000000
0.000000 1.000000 -0.250000
0.044517 1.000000 -0.250000
0.000000 1.000000 -0.500000
0.044517 1.000000 -0.500000
0.000000 1.000000 -0.750000
0.044517 1.000000 -0.750000
0.089035 1.000000 -0.250000
0.089035 1.000000 -0.500000
0.089035 1.000000 -0.750000
0.133552 1.000000 -0.250000
0.133552 1.000000 -0.500000
0.133552 1.000000 -0.750000
-0.044517 1.000000 -0.250000
-0.089035 1.000000 -0.250000
-0.133552 1.000000 -0.250000
-0.044517 1.000000 -0.500000
-0.089035 1.000000 -0.500000
-0.133552 1.000000 -0.500000
-0.044517 1.000000 -0.750000
-0.089035 1.000000 -0.750000
-0.133552 1.000000 -0.750000
0.000000 -0.250000 1.615748
0.000000 0.000000 1.615748
0.000000 -0.500000 1.615748
0.000000 -0.750000 1.615748
0.018340 -0.750000 1.615748
0.000000 0.250000 1.615748
0.000000 0.500000 1.615748
0.018340 0.500000 1.615748
0.000000 0.750000 1.615748
-0.017751 0.000000 1.615748
-0.017751 0.250000 1.615748
0.178069 -1.000000 -1.000000
0.178069 1.000000 -1.000000
-0.178069 1.000000 -1.000000
-0.178069 -1.000000 -1.000000
3 0 1 2
3 3 4 1
3 5 6 4
3 7 8 6
3 9 3 0
3 10 5 3
3 11 7 5
3 12 13 7
3 14 10 9
3 15 11 10
3 16 12 11
3 17 18 12
3 19 15 14
3 20 16 15
3 21 17 16
3 22 23 17
3 1 24 2
3 25 26 24
3 27 28 26
3 29 30 28
3 4 25 1
3 31 27 25
3 32 29 27
3 33 34 29
3 6 31 4
3 35 32 31
3 36 33 32
3 37 38 33
3 8 35 6
3 39 36 35
3 40 37 36
3 41 42 37
3 24 43 2
3 44 45 43
3 46 47 45
3 48 49 47
3 26 44 24
3 50 46 44
3 51 48 46
3 52 53 48
3 28 50 26
3 54 51 50
3 55 52 51
3 56 57 52
3 30 54 28
3 58 55 54
3 59 56 55
3 60 61 56
3 43 0 2
3 62 9 0
3 63 14 9
3 64 19 14
3 45 62 43
3 65 63 62
3 66 64 63
3 67 68 64
3 47 65 45
3 69 66 65
3 70 67 66
3 71 72 67
3 49 69 47
3 73 70 69
3 74 71 70
3 75 76 71
3 77 78 79
3 80 81 82
3 83 84 81
3 85 49 84
3 86 87 88
3 89 83 80
3 90 85 83
3 91 73 85
3 80 92 89
3 93 90 89
3 94 91 90
3 95 74 91
3 96 97 98
3 99 94 93
3 100 95 94
3 101 75 95
3 102 103 77
3 79 104 105
3 88 106 107
3 82 108 80
3 81 98 82
3 109 96 98
3 110 111 96
3 112 113 111
3 84 109 81
3 114 110 109
3 115 112 110
3 116 117 112
3 49 114 84
3 53 115 114
3 57 116 115
3 61 118 116
3 99 119 120
3 121 122 123
3 124 125 122
3 126 127 125
3 105 128 113
3 102 124 121
3 129 126 124
3 130 131 126
3 98 132 82
3 77 129 102
3 133 130 129
3 134 135 130
3 120 136 86
3 79 133 77
3 137 134 133
3 138 139 134
3 121 140 102
3 93 141 99
3 107 142 143
3 113 144 111
3 122 143 123
3 145 107 143
3 146 88 107
3 147 86 88
3 125 145 122
3 148 146 145
3 149 147 146
3 150 151 147
3 127 148 125
3 152 149 148
3 153 150 149
3 154 155 150
3 156 157 158
3 159 160 157
3 161 162 160
3 163 127 162
3 164 159 156
3 165 161 159
3 166 163 161
3 167 152 163
3 168 165 164
3 169 166 165
3 170 167 166
3 171 153 167
3 172 169 168
3 173 170 169
3 174 171 170
3 175 154 171
3 157 176 158
3 177 178 176
3 179 180 178
3 181 182 180
3 160 177 157
3 183 179 177
3 184 181 179
3 185 186 181
3 162 183 160
3 187 184 183
3 188 185 184
3 189 190 185
3 127 187 162
3 131 188 187
3 135 189 188
3 139 191 189
3 176 192 158
3 193 194 192
3 195 196 194
3 197 198 196
3 178 193 176
3 199 195 193
3 200 197 195
3 201 202 197
3 180 199 178
3 203 200 199
3 204 201 200
3 205 206 201
3 182 203 180
3 207 204 203
3 208 205 204
3 209 210 205
3 192 156 158
3 211 164 156
3 212 168 164
3 213 172 168
3 194 211 192
3 214 212 211
3 215 213 212
3 216 217 213
3 196 214 194
3 218 215 214
3 219 216 215
3 220 221 216
3 198 218 196
3 222 219 218
3 223 220 219
3 224 225 220
3 226 227 228
3 229 230 227
3 231 232 230
3 233 198 232
3 234 229 226
3 235 231 229
3 236 233 231
3 237 222 233
3 238 235 234
3 239 236 235
3 240 237 236
3 241 223 237
3 242 239 238
3 243 240 239
3 244 241 240
3 245 224 241
3 227 246 228
3 247 248 246
3 249 250 248
3 251 252 250
3 230 247 227
3 253 249 247
3 254 251 249
3 255 256 251
3 232 253 230
3 257 254 253
3 258 255 254
3 259 260 255
3 198 257 232
3 202 258 257
3 206 259 258
3 210 261 259
3 246 262 228
3 263 264 262
3 265 266 264
3 267 8 266
3 248 263 246
3 268 265 263
3 269 267 265
3 270 39 267
3 250 268 248
3 271 269 268
3 272 270 269
3 273 40 270
3 252 271 250
3 274 272 271
3 275 273 272
3 276 41 273
3 262 226 228
3 277 234 226
3 278 238 234
3 279 242 238
3 264 277 262
3 280 278 277
3 281 279 278
3 282 283 279
3 266 280 264
3 284 281 280
3 285 282 281
3 286 287 282
3 8 284 266
3 13 285 284
3 18 286 285
3 23 288 286
3 289 290 291
3 292 293 290
3 294 295 293
3 295 99 120
3 296 292 289
3 297 294 292
3 298 299 294
3 299 100 99
3 300 297 296
3 301 298 297
3 302 303 298
3 303 101 100
3 19 301 300
3 68 302 301
3 72 304 302
3 304 305 101
3 290 306 291
3 307 308 306
3 309 310 308
3 311 172 310
3 293 307 290
3 312 309 307
3 313 311 309
3 314 173 311
3 295 312 293
3 315 313 312
3 316 314 313
3 317 174 314
3 295 86 315
3 315 151 316
3 316 155 317
3 317 318 175
3 306 319 291
3 320 321 319
3 322 323 321
3 324 242 323
3 308 320 306
3 325 322 320
3 326 324 322
3 327 243 324
3 310 325 308
3 328 326 325
3 329 327 326
3 330 244 327
3 172 328 310
3 217 329 328
3 221 330 329
3 225 245 330
3 319 289 291
3 331 296 289
3 332 300 296
3 333 19 300
3 321 331 319
3 334 332 331
3 335 333 332
3 336 20 333
3 323 334 321
3 337 335 334
3 338 336 335
3 339 21 336
3 242 337 323
3 283 338 337
3 287 339 338
3 288 22 339
3 340 341 342
3 343 344 341
3 345 346 344
3 346 79 105
3 347 343 340
3 348 345 343
3 349 350 345
3 350 137 79
3 351 348 347
3 352 349 348
3 353 354 349
3 354 138 137
3 182 352 351
3 186 353 352
3 190 355 353
3 355 356 138
3 341 357 342
3 358 359 357
3 360 361 359
3 362 30 361
3 344 358 341
3 363 360 358
3 364 362 360
3 365 58 362
3 346 363 344
3 366 364 363
3 367 365 364
3 368 59 365
3 346 113 366
3 366 117 367
3 367 118 368
3 368 369 60
3 357 370 342
3 371 372 370
3 373 374 372
3 375 252 374
3 359 371 357
3 376 373 371
3 377 375 373
3 378 274 375
3 361 376 359
3 379 377 376
3 380 378 377
3 381 275 378
3 30 379 361
3 34 380 379
3 38 381 380
3 42 276 381
3 370 340 342
3 382 347 340
3 383 351 347
3 384 182 351
3 372 382 370
3 385 383 382
3 386 384 383
3 387 207 384
3 374 385 372
3 388 386 385
3 389 387 386
3 390 208 387
3 252 388 374
3 256 389 388
3 260 390 389
3 261 209 390
3 391 132 392
3 393 108 391
3 394 92 393
3 119 395 394
3 132 396 392
3 97 397 396
3 398 399 397
3 144 104 399
3 396 400 392
3 397 401 396
3 399 140 397
3 104 103 399
3 400 391 392
3 142 393 391
3 106 394 393
3 87 119 394
3 111 398 96
3 143 400 123
3 89 395 93
3 123 401 121
3 0 3 1
3 3 5 4
3 5 7 6
3 7 13 8
3 9 10 3
3 10 11 5
3 11 12 7
3 12 18 13
3 14 15 10
3 15 16 11
3 16 17 12
3 17 23 18
3 19 20 15
3 20 21 16
3 21 22 17
3 22 402 23
3 1 25 24
3 25 27 26
3 27 29 28
3 29 34 30
3 4 31 25
3 31 32 27
3 32 33 29
3 33 38 34
3 6 35 31
3 35 36 32
3 36 37 33
3 37 42 38
3 8 39 35
3 39 40 36
3 40 41 37
3 41 403 42
3 24 44 43
3 44 46 45
3 46 48 47
3 48 53 49
3 26 50 44
3 50 51 46
3 51 52 48
3 52 57 53
3 28 54 50
3 54 55 51
3 55 56 52
3 56 61 57
3 30 58 54
3 58 59 55
3 59 60 56
3 60 369 61
3 43 62 0
3 62 63 9
3 63 64 14
3 64 68 19
3 45 65 62
3 65 66 63
3 66 67 64
3 67 72 68
3 47 69 65
3 69 70 66
3 70 71 67
3 71 76 72
3 49 73 69
3 73 74 70
3 74 75 71
3 75 305 76
3 77 103 78
3 80 83 81
3 83 85 84
3 85 73 49
3 86 136 87
3 89 90 83
3 90 91 85
3 91 74 73
3 80 108 92
3 93 94 90
3 94 95 91
3 95 75 74
3 96 398 97
3 99 100 94
3 100 101 95
3 101 305 75
3 102 140 103
3 79 78 104
3 88 87 106
3 82 132 108
3 81 109 98
3 109 110 96
3 110 112 111
3 112 117 113
3 84 114 109
3 114 115 110
3 115 116 112
3 116 118 117
3 49 53 114
3 53 57 115
3 57 61 116
3 61 369 118
3 99 141 119
3 121 124 122
3 124 126 125
3 126 131 127
3 105 104 128
3 102 129 124
3 129 130 126
3 130 135 131
3 98 97 132
3 77 133 129
3 133 134 130
3 134 139 135
3 120 119 136
3 79 137 133
3 137 138 134
3 138 356 139
3 121 401 140
3 93 395 141
3 107 106 142
3 113 128 144
3 122 145 143
3 145 146 107
3 146 147 88
3 147 151 86
3 125 148 145
3 148 149 146
3 149 150 147
3 150 155 151
3 127 152 148
3 152 153 149
3 153 154 150
3 154 318 155
3 156 159 157
3 159 161 160
3 161 163 162
3 163 152 127
3 164 165 159
3 165 166 161
3 166 167 163
3 167 153 152
3 168 169 165
3 169 170 166
3 170 171 167
3 171 154 153
3 172 173 169
3 173 174 170
3 174 175 171
3 175 318 154
3 157 177 176
3 177 179 178
3 179 181 180
3 181 186 182
3 160 183 177
3 183 184 179
3 184 185 181
3 185 190 186
3 162 187 183
3 187 188 184
3 188 189 185
3 189 191 190
3 127 131 187
3 131 135 188
3 135 139 189
3 139 356 191
3 176 193 192
3 193 195 194
3 195 197 196
3 197 202 198
3 178 199 193
3 199 200 195
3 200 201 197
3 201 206 202
3 180 203 199
3 203 204 200
3 204 205 201
3 205 210 206
3 182 207 203
3 207 208 204
3 208 209 205
3 209 404 210
3 192 211 156
3 211 212 164
3 212 213 168
3 213 217 172
3 194 214 211
3 214 215 212
3 215 216 213
3 216 221 217
3 196 218 214
3 218 219 215
3 219 220 216
3 220 225 221
3 198 222 218
3 222 223 219
3 223 224 220
3 224 405 225
3 226 229 227
3 229 231 230
3 231 233 232
3 233 222 198
3 234 235 229
3 235 236 231
3 236 237 233
3 237 223 222
3 238 239 235
3 239 240 236
3 240 241 237
3 241 224 223
3 242 243 239
3 243 244 240
3 244 245 241
3 245 405 224
3 227 247 246
3 247 249 248
3 249 251 250
3 251 256 252
3 230 253 247
3 253 254 249
3 254 255 251
3 255 260 256
3 232 257 253
3 257 258 254
3 258 259 255
3 259 261 260
3 198 202 257
3 202 206 258
3 206 210 259
3 210 404 261
3 246 263 262
3 263 265 264
3 265 267 266
3 267 39 8
3 248 268 263
3 268 269 265
3 269 270 267
3 270 40 39
3 250 271 268
3 271 272 269
3 272 273 270
3 273 41 40
3 252 274 271
3 274 275 272
3 275 276 273
3 276 403 41
3 262 277 226
3 277 278 234
3 278 279 238
3 279 283 242
3 264 280 277
3 280 281 278
3 281 282 279
3 282 287 283
3 266 284 280
3 284 285 281
3 285 286 282
3 286 288 287
3 8 13 284
3 13 18 285
3 18 23 286
3 23 402 288
3 289 292 290
3 292 294 293
3 294 299 295
3 295 299 99
3 296 297 292
3 297 298 294
3 298 303 299
3 299 303 100
3 300 301 297
3 301 302 298
3 302 304 303
3 303 304 101
3 19 68 301
3 68 72 302
3 72 76 304
3 304 76 305
3 290 307 306
3 307 309 308
3 309 311 310
3 311 173 172
3 293 312 307
3 312 313 309
3 313 314 311
3 314 174 173
3 295 315 312
3 315 316 313
3 316 317 314
3 317 175 174
3 295 120 86
3 315 86 151
3 316 151 155
3 317 155 318
3 306 320 319
3 320 322 321
3 322 324 323
3 324 243 242
3 308 325 320
3 325 326 322
3 326 327 324
3 327 244 243
3 310 328 325
3 328 329 326
3 329 330 327
3 330 245 244
3 172 217 328
3 217 221 329
3 221 225 330
3 225 405 245
3 319 331 289
3 331 332 296
3 332 333 300
3 333 20 19
3 321 334 331
3 334 335 332
3 335 336 333
3 336 21 20
3 323 337 334
3 337 338 335
3 338 339 336
3 339 22 21
3 242 283 337
3 283 287 338
3 287 288 339
3 288 402 22
3 340 343 341
3 343 345 344
3 345 350 346
3 346 350 79
3 347 348 343
3 348 349 345
3 349 354 350
3 350 354 137
3 351 352 348
3 352 353 349
3 353 355 354
3 354 355 138
3 182 186 352
3 186 190 353
3 190 191 355
3 355 191 356
3 341 358 357
3 358 360 359
3 360 362 361
3 362 58 30
3 344 363 358
3 363 364 360
3 364 365 362
3 365 59 58
3 346 366 363
3 366 367 364
3 367 368 365
3 368 60 59
3 346 105 113
3 366 113 117
3 367 117 118
3 368 118 369
3 357 371 370
3 371 373 372
3 373 375 374
3 375 274 252
3 359 376 371
3 376 377 373
3 377 378 375
3 378 275 274
3 361 379 376
3 379 380 377
3 380 381 378
3 381 276 275
3 30 34 379
3 34 38 380
3 38 42 381
3 42 403 276
3 370 382 340
3 382 383 347
3 383 384 351
3 384 207 182
3 372 385 382
3 385 386 383
3 386 387 384
3 387 208 207
3 374 388 385
3 388 389 386
3 389 390 387
3 390 209 208
3 252 256 388
3 256 260 389
3 260 261 390
3 261 404 209
3 391 108 132
3 393 92 108
3 394 395 92
3 119 141 395
3 132 97 396
3 97 398 397
3 398 144 399
3 144 128 104
3 396 401 400
3 397 140 401
3 399 103 140
3 104 78 103
3 400 142 391
3 142 106 393
3 106 87 394
3 87 136 119
3 111 144 398
3 143 142 400
3 89 92 395
3 123 400 401
