ply
format ascii 1.0
comment Created by Blender 2.79 (sub 0) - www.blender.org, source file: ''
element vertex 244
property float x
property float y
property float z
element face 455
property list uchar uint vertex_indices
end_header
0.092195 0.484814 0.058582
0.076218 0.471279 -0.077087
-0.165405 0.527850 -0.168581
-0.990806 -0.277801 0.025735
-0.935249 -0.176243 0.079636
-0.929035 -0.161538 -0.109645
0.583054 1.062024 0.616038
0.588985 0.837543 0.108386
0.488377 0.775914 0.160538
0.788451 0.280174 -0.058636
0.755369 0.290586 0.107205
0.802327 0.154666 0.114578
0.637095 0.770679 0.531957
0.567912 0.858220 0.792256
0.539889 0.792753 0.654242
-0.142508 0.451068 -0.288653
0.613642 0.591901 -0.473037
0.678746 0.708749 -0.405874
0.741938 0.516157 -0.496398
0.833433 0.101168 -0.123836
0.869136 0.345510 -0.022277
-0.909889 -0.471989 -0.043288
-0.947317 -0.369623 -0.145629
0.379873 0.775988 0.180214
0.259888 1.032242 0.235158
0.035024 1.086446 0.382872
0.645130 0.385462 -0.512224
0.714170 0.405557 -0.470367
-0.393618 0.549869 -0.091888
-0.281463 0.515764 0.205342
0.664648 0.953165 0.382391
0.486668 0.776384 -0.310357
0.271336 0.513782 -0.057409
0.335018 0.514016 0.172047
0.339151 0.697721 0.040731
-0.860701 -0.308717 0.188310
-0.902523 -0.430960 0.113786
0.541025 0.428902 -0.492838
0.640305 0.111693 -0.357728
0.540231 0.296881 -0.316943
0.689066 0.259309 -0.274439
-0.441411 -0.462072 -0.396318
-0.245453 -0.399769 -0.520743
-0.220494 -0.492087 -0.429783
0.168815 -0.625350 0.504244
-0.205449 -0.517330 0.436856
-0.429116 -0.610010 0.379621
-0.448750 -0.108809 -0.512783
-0.417863 -0.359506 -0.477559
-0.653795 -0.605336 -0.025442
-0.778434 -0.493474 0.177309
-0.491002 -0.615474 0.145035
-0.559031 -0.439863 0.370145
-0.651816 -0.419439 0.222670
-0.454867 0.426761 -0.274611
-0.224976 0.316901 -0.384459
-0.140836 0.181529 -0.400750
-0.400353 0.298833 -0.341567
0.340117 0.171460 -0.389351
0.361744 0.362161 -0.270132
0.401621 0.052405 -0.425499
-0.021829 -0.432330 -0.440689
0.005678 0.928967 0.327475
0.702796 -0.159877 0.150335
0.497161 -0.122134 0.362370
0.432197 -0.315296 0.165272
-0.112893 0.930443 0.291606
0.373833 0.683001 0.119530
-0.511437 0.154256 -0.421007
-0.300012 0.150314 -0.482885
0.558002 -0.077155 -0.380148
0.295062 -0.172331 -0.369316
-0.194258 -0.082534 -0.573527
-0.370357 -0.001632 -0.537760
0.776086 -0.094862 -0.042660
0.795386 -0.006504 0.124727
0.459563 0.449578 -0.378664
0.130013 -0.064465 -0.367453
0.215839 -0.500320 -0.364464
0.356693 -0.417553 -0.287307
0.422918 -0.500286 -0.416183
-0.619275 -0.559912 -0.185235
-0.763185 -0.474283 -0.250241
-0.672715 -0.412415 -0.252111
-0.153153 1.049281 0.489295
0.269286 -0.398558 -0.342825
0.129245 0.396984 -0.237055
0.359002 0.801041 -0.016899
0.151897 1.057094 0.144043
0.294387 0.998739 0.116227
0.221860 0.114701 -0.389890
0.077020 -0.357982 -0.298102
-0.897912 -0.276383 -0.222268
-0.768351 -0.230437 -0.192437
0.063053 0.221686 -0.379411
0.056406 0.103929 -0.407689
0.525181 -0.533810 -0.194785
0.360049 -0.468697 -0.083054
0.505945 -0.611163 -0.111536
0.810551 0.666967 -0.333501
0.844595 0.767461 -0.034839
0.836698 0.618438 -0.084847
-0.055961 0.103873 -0.530193
0.475597 0.993668 0.877033
0.066235 -0.503484 -0.521827
-0.052243 -0.261557 -0.507757
0.029039 -0.039319 -0.543577
-0.676879 -0.287704 -0.329263
-0.782414 0.067783 -0.155988
0.605005 0.310675 -0.454741
0.495388 0.615941 -0.296432
-0.552272 -0.523630 -0.322957
-0.666038 0.010749 -0.367424
0.364458 0.581823 -0.227756
0.214118 -0.604483 -0.382576
0.411782 -0.610859 -0.435831
0.893256 0.478203 -0.120493
0.836431 0.559632 0.068522
0.411658 0.812169 -0.204063
-0.456160 -0.603566 -0.384559
-0.814279 -0.147916 -0.057296
-0.796820 0.136805 0.087630
-0.052468 1.186861 0.408094
0.010067 1.198410 0.282027
-0.170886 -0.610684 -0.445872
0.544936 1.137484 0.844937
0.502291 0.981467 0.692642
0.448022 -0.440076 0.051280
0.416354 -0.356282 0.006362
0.153199 0.869585 0.095030
0.069435 -0.602941 -0.522810
-0.635561 0.349874 -0.215755
0.365083 -0.276968 -0.270056
0.509583 0.677397 0.213122
0.134543 -0.406196 0.250373
0.219611 -0.479459 0.404179
0.248534 -0.445529 0.261203
-0.508831 -0.369571 0.449503
-0.716671 -0.251858 0.263628
-0.026236 -0.489571 0.468951
0.144113 -0.520054 0.494471
0.072486 -0.432162 0.422447
0.065762 -0.576837 -0.060742
0.119933 -0.575172 -0.264821
0.105427 -0.619081 -0.073092
-0.556567 0.078397 0.405029
-0.637754 0.266661 0.269821
0.678264 0.757675 0.181575
-0.698523 -0.003893 0.323198
-0.814637 -0.165087 0.080987
-0.587761 0.429903 0.115533
0.216889 -0.025897 0.387294
0.275339 0.078198 0.401348
0.150149 -0.006832 0.442039
0.484717 0.832281 0.089275
0.654847 0.849465 -0.176855
0.763051 0.782529 -0.247867
0.503713 -0.476803 -0.313503
0.335583 -0.190992 0.314010
0.869073 0.407444 -0.225445
0.672777 0.816709 0.132340
0.420989 0.838945 -0.008039
0.678628 1.122258 0.744119
0.707600 1.008159 0.611813
0.779944 0.463998 0.176627
0.393599 -0.360224 -0.107647
0.439015 -0.320760 -0.112400
0.552496 -0.607467 -0.339483
0.351538 -0.355745 -0.053551
0.073903 0.114806 0.426512
0.628256 -0.597776 0.038285
0.574540 -0.487173 0.066870
0.618696 -0.623009 0.139843
0.808287 0.314530 -0.391006
0.868762 0.423306 -0.378238
0.130802 -0.614123 -0.349632
0.677598 -0.130323 -0.265800
0.291263 0.239275 0.372811
0.011761 0.241729 0.407786
0.138891 -0.112324 0.499035
0.061535 0.055475 0.567622
-0.005699 -0.206326 0.599874
-0.188435 -0.569866 -0.023492
0.089992 -0.572813 0.063831
-0.347385 -0.563484 0.274560
0.398755 -0.452185 0.204846
0.344893 -0.627173 0.301211
0.555554 -0.564016 0.208640
0.624972 0.970017 0.655728
0.067637 0.427842 0.214837
-0.466812 0.223514 0.375016
0.289616 -0.578447 0.417426
-0.275185 -0.620136 0.084827
0.606832 0.665538 0.226919
0.660441 0.043220 0.314530
0.635883 0.339263 0.216969
-0.345273 0.373194 0.355946
-0.190915 0.183758 0.412303
0.152126 -0.623289 0.389980
-0.382140 -0.616252 0.302956
0.043054 0.344838 0.328104
-0.286104 0.091266 0.533408
0.165043 -0.618688 -0.300170
0.267670 -0.621639 -0.193475
-0.080116 -0.011928 0.609140
0.273566 0.460161 0.264870
0.447071 0.260759 0.356999
0.521715 0.395948 0.248005
0.077594 -0.563312 -0.319006
0.162695 -0.630736 0.036616
0.171803 -0.601100 -0.115420
0.404785 0.135985 0.399652
0.096133 -0.611919 -0.382247
-0.406859 -0.193550 0.511082
0.126831 -0.606029 -0.000080
-0.230073 -0.411438 0.514554
-0.328894 -0.623954 -0.319869
-0.403558 -0.610856 -0.225516
-0.126722 -0.608360 -0.378013
-0.504265 -0.609972 0.019131
-0.473858 -0.614191 -0.135362
-0.503316 -0.604957 -0.053461
-0.376454 -0.608207 -0.110465
-0.050100 -0.614582 -0.403615
-0.349093 -0.554759 -0.254007
-0.270139 -0.614128 -0.100648
-0.378098 -0.607924 0.087474
-0.333121 -0.595289 0.062698
-0.477597 -0.598908 0.068115
0.592376 -0.298300 -0.038556
-0.085476 -0.557830 -0.342474
-0.286531 -0.559105 -0.282885
0.361406 -0.629073 0.056588
-0.330893 -0.617012 -0.069034
0.398039 -0.628740 -0.049711
-0.159929 -0.558225 -0.314140
0.251497 -0.622594 0.201247
0.361160 -0.618936 -0.182333
0.323935 -0.602617 0.032283
0.207479 -0.582853 0.219631
0.141812 -0.566854 0.330766
0.235354 -0.624045 0.146828
0.230142 -0.604657 0.016464
0.207491 -0.606717 -0.019026
3 0 1 2
3 3 4 5
3 6 7 8
3 9 10 11
3 12 13 14
3 2 1 15
3 16 17 18
3 19 9 11
3 10 9 20
3 21 3 22
3 23 24 25
3 26 16 27
3 27 16 18
3 0 28 29
3 30 7 6
3 16 31 17
3 32 33 34
3 3 35 4
3 3 36 35
3 26 37 16
3 38 39 40
3 41 42 43
3 44 45 46
3 47 42 48
3 49 50 21
3 51 52 53
3 54 15 55
3 56 57 55
3 58 39 38
3 58 59 39
3 60 58 38
3 43 42 61
3 28 0 2
3 23 25 62
3 63 64 65
3 66 34 67
3 68 57 69
3 70 71 60
3 72 73 69
3 74 19 75
3 39 59 76
3 42 73 72
3 60 77 58
3 78 79 80
3 77 60 71
3 81 82 83
3 62 84 66
3 78 85 79
3 86 59 58
3 86 32 59
3 87 88 89
3 77 90 58
3 90 86 58
3 77 71 85
3 78 91 85
3 91 77 85
3 92 5 93
3 47 73 42
3 94 86 90
3 77 95 90
3 95 94 90
3 96 97 98
3 73 68 69
3 99 100 101
3 55 57 54
3 56 94 95
3 15 86 94
3 19 11 75
3 28 2 15
3 86 15 1
3 92 93 83
3 92 83 82
3 55 94 56
3 15 94 55
3 72 69 102
3 13 103 14
3 104 43 61
3 105 72 106
3 106 72 102
3 69 57 56
3 61 42 105
3 105 42 72
3 107 93 108
3 76 37 109
3 76 109 39
3 37 110 16
3 110 31 16
3 37 76 110
3 36 3 21
3 111 107 41
3 112 47 48
3 113 110 76
3 114 80 115
3 116 101 117
3 113 118 110
3 118 31 110
3 78 80 114
3 81 107 111
3 119 111 41
3 59 113 76
3 120 121 108
3 112 68 47
3 26 109 37
3 82 22 92
3 83 93 107
3 59 32 113
3 84 62 25
3 122 87 66
3 87 123 88
3 122 123 87
3 41 43 124
3 82 21 22
3 103 125 126
3 127 128 65
3 34 129 87
3 124 104 130
3 33 67 34
3 124 43 104
3 112 108 131
3 107 112 48
3 108 112 107
3 112 131 68
3 66 87 129
3 34 66 129
3 131 54 57
3 34 113 32
3 41 107 48
3 83 107 81
3 48 42 41
3 79 132 97
3 14 8 133
3 134 135 136
3 137 138 53
3 139 140 141
3 142 143 144
3 46 52 51
3 145 146 121
3 20 116 117
3 101 100 147
3 14 126 8
3 52 137 53
3 14 103 126
3 148 121 149
3 101 147 117
3 137 148 138
3 138 148 149
3 138 149 53
3 127 98 97
3 29 28 150
3 66 84 122
3 121 131 108
3 34 118 113
3 149 121 120
3 22 3 92
3 3 5 92
3 50 36 21
3 118 34 87
3 151 152 153
3 7 154 8
3 121 146 150
3 155 156 17
3 120 5 4
3 5 120 93
3 120 108 93
3 157 97 96
3 149 120 4
3 65 64 158
3 159 116 20
3 155 17 31
3 160 155 7
3 154 155 161
3 1 32 86
3 24 89 88
3 118 155 31
3 155 118 161
3 155 100 156
3 7 155 154
3 121 150 131
3 0 32 1
3 160 100 155
3 126 125 6
3 134 136 158
3 6 162 163
3 161 118 87
3 150 28 131
3 56 102 69
3 23 62 67
3 28 54 131
3 8 126 6
3 33 32 0
3 123 24 88
3 20 117 164
3 28 15 54
3 125 162 6
3 79 157 80
3 165 132 166
3 106 95 77
3 132 85 71
3 38 70 60
3 61 105 91
3 167 115 80
3 114 104 78
3 97 165 168
3 165 97 132
3 167 157 96
3 160 7 30
3 91 104 61
3 18 17 99
3 106 102 95
3 95 102 56
3 153 152 169
3 170 171 172
3 134 158 151
3 104 91 78
3 173 27 18
3 91 106 77
3 97 168 128
3 91 105 106
3 79 85 132
3 18 174 173
3 99 17 156
3 175 114 115
3 80 157 167
3 98 171 170
3 176 38 19
3 38 40 19
3 87 89 161
3 152 177 178
3 174 159 173
3 174 18 99
3 169 152 178
3 179 180 181
3 154 161 89
3 171 98 127
3 70 38 176
3 127 97 128
3 182 183 184
3 164 117 147
3 185 186 187
3 125 188 162
3 13 188 125
3 12 188 13
3 188 163 162
3 159 99 101
3 153 180 179
3 189 0 29
3 141 179 181
3 12 147 188
3 157 79 97
3 169 180 153
3 147 163 188
3 147 30 163
3 176 19 74
3 135 134 141
3 141 134 151
3 146 145 190
3 123 122 25
3 160 147 100
3 136 135 191
3 159 101 116
3 184 192 182
3 193 147 12
3 24 123 25
3 19 40 9
3 147 160 30
3 75 11 194
3 11 195 194
3 154 89 24
3 67 62 66
3 196 178 29
3 169 197 180
3 159 174 99
3 11 10 195
3 190 145 197
3 191 135 140
3 127 185 171
3 198 199 184
3 63 74 75
3 127 65 185
3 10 20 164
3 8 67 133
3 200 178 177
3 146 196 150
3 197 201 180
3 145 121 148
3 202 175 203
3 201 204 180
3 23 8 154
3 135 141 140
3 146 190 196
3 4 35 149
3 205 206 207
3 33 205 207
3 189 29 200
3 197 145 201
3 67 33 133
3 177 206 205
3 197 169 178
3 205 33 0
3 57 68 131
3 29 178 200
3 29 150 196
3 208 143 142
3 209 144 210
3 189 200 205
3 200 177 205
3 0 189 205
3 206 195 207
3 36 50 35
3 197 196 190
3 64 194 211
3 164 193 207
3 195 164 207
3 35 53 149
3 53 35 50
3 33 207 133
3 187 172 171
3 164 147 193
3 10 164 195
3 211 194 177
3 158 64 151
3 125 103 13
3 194 195 206
3 50 51 53
3 185 158 136
3 186 185 136
3 151 64 152
3 144 202 203
3 73 47 68
3 212 130 175
3 137 213 148
3 145 148 213
3 191 186 136
3 144 209 214
3 194 206 177
3 46 137 52
3 213 201 145
3 124 119 41
3 194 63 75
3 137 215 213
3 137 45 215
3 45 137 46
3 215 181 213
3 204 201 213
3 23 154 24
3 213 181 204
3 8 23 67
3 139 215 45
3 140 44 191
3 139 181 215
3 152 211 177
3 187 171 185
3 186 172 187
3 199 198 46
3 143 202 144
3 44 140 45
3 45 140 139
3 84 25 122
3 207 193 133
3 185 65 158
3 141 181 139
3 179 151 153
3 63 194 64
3 180 204 181
3 64 211 152
3 141 151 179
3 210 144 203
3 119 216 217
3 216 124 218
3 219 220 221
3 220 217 222
3 133 12 14
3 220 119 217
3 216 119 124
3 124 223 218
3 224 217 216
3 224 182 225
3 226 227 192
3 20 9 159
3 49 220 219
3 175 130 114
3 192 225 182
3 40 173 159
3 49 219 51
3 159 9 40
3 49 111 220
3 51 192 199
3 51 219 228
3 82 81 49
3 51 228 226
3 223 124 212
3 6 163 30
3 50 49 51
3 182 142 183
3 156 100 99
3 63 229 74
3 109 27 173
3 109 173 40
3 111 119 220
3 124 130 212
3 230 208 142
3 26 27 109
3 51 199 46
3 63 65 229
3 51 226 192
3 231 142 182
3 39 109 40
3 111 49 81
3 193 12 133
3 224 231 182
3 98 170 172
3 128 229 65
3 229 176 74
3 232 172 186
3 104 114 130
3 178 196 197
3 232 98 172
3 229 132 176
3 128 166 229
3 222 225 233
3 166 132 229
3 132 70 176
3 234 98 232
3 96 98 167
3 44 186 191
3 231 235 142
3 227 233 192
3 44 198 186
3 236 232 186
3 236 186 198
3 234 167 98
3 234 237 167
3 237 115 167
3 232 238 234
3 235 230 142
3 198 239 236
3 240 239 198
3 241 232 236
3 209 232 241
3 232 209 238
3 132 71 70
3 209 242 238
3 217 224 225
3 222 217 225
3 209 243 242
3 184 199 192
3 198 44 46
3 198 184 240
3 183 239 240
3 175 237 203
3 175 115 237
3 183 240 184
3 233 225 192
3 21 82 49
3 209 210 243
