ply
format ascii 1.0
comment Created by Blender 2.79 (sub 0) - www.blender.org, source file: ''
element vertex 146
property float x
property float y
property float z
element face 255
property list uchar uint vertex_indices
end_header
-0.467091 0.308394 -0.768123
-0.411605 0.129821 -0.794655
-0.633263 0.242030 -0.566494
0.411605 0.129821 -0.794655
0.467091 0.308394 -0.768123
0.633263 0.242030 -0.566494
-0.348823 -0.039891 -0.626154
-0.546875 0.054688 -0.578125
0.348823 -0.039891 -0.626154
0.546875 0.054688 -0.578125
-0.243136 0.183168 -0.809604
0.243136 0.183168 -0.809604
-0.065623 0.241473 -0.664332
-0.156250 0.054688 -0.648438
-0.293751 0.363527 -0.805224
0.293751 0.363527 -0.805224
0.065623 0.241473 -0.664332
0.156250 0.437500 -0.648438
0.351562 0.515625 -0.617188
-0.351562 0.515625 -0.617188
0.546875 0.437500 -0.578125
-0.546875 0.437500 -0.578125
-0.226815 -0.192583 -0.533658
-0.586132 -0.069318 -0.571588
-0.094944 -0.120279 -0.791976
0.586132 -0.069318 -0.571588
0.226815 -0.192583 -0.533658
0.094944 -0.120279 -0.791976
-0.832894 0.398588 -0.625095
-0.785346 0.119346 -0.417886
0.239398 0.768998 -0.750074
0.832894 0.398588 -0.625095
0.254704 0.640816 -0.854056
0.000000 0.400778 -0.805711
-0.254704 0.640816 -0.854056
-0.239398 0.768998 -0.750074
-0.261609 0.481956 -0.761877
-0.548006 0.301844 -0.681778
0.261609 0.481956 -0.761877
-0.543159 0.212734 -0.683209
0.548006 0.301844 -0.681778
-0.224125 0.132533 -0.757452
0.000000 0.080515 -0.736802
0.224125 0.132533 -0.757452
-0.197297 0.296692 -0.761588
0.197297 0.296692 -0.761588
-0.096450 -0.827595 -0.712552
0.000000 -0.906041 -0.681977
-0.356999 -0.930792 -0.570588
0.096450 -0.827595 -0.712552
0.356999 -0.930792 -0.570588
-0.141460 -0.238190 -0.733421
0.141460 -0.238190 -0.733421
0.000000 -0.769082 -0.715764
0.000000 -0.302549 -0.784118
-0.130422 -0.224732 -0.811757
0.130422 -0.224732 -0.811757
0.000000 -0.187500 -0.796875
0.000000 -0.140625 -0.742188
0.000000 -0.195312 -0.750000
0.095970 -0.794843 -0.642880
-0.095970 -0.794843 -0.642880
-0.460760 0.120128 -0.707842
-0.373829 0.086535 -0.728236
0.460760 0.120128 -0.707842
0.373829 0.086535 -0.728236
0.543159 0.212734 -0.683209
0.412973 0.388532 -0.752534
-0.280962 0.396572 -0.770937
0.280962 0.396572 -0.770937
-0.109375 0.460938 -0.609375
0.000000 0.455016 -0.615114
0.109375 0.460938 -0.609375
-0.261462 0.709033 -0.606235
0.261462 0.709033 -0.606235
0.457458 0.528564 -0.474708
-0.457458 0.528564 -0.474708
0.711654 0.400774 -0.307327
-0.711654 0.400774 -0.307327
0.000000 -0.486100 -0.298559
-0.325481 -0.912528 -0.409040
0.000000 -0.955036 -0.406793
0.325481 -0.912528 -0.409040
0.214052 -0.410230 -0.341908
-0.214052 -0.410230 -0.341908
0.785346 0.119346 -0.417886
0.533910 0.047078 0.538381
0.000000 -0.087682 0.771844
0.349920 -0.227159 0.443723
-0.349920 -0.227159 0.443723
0.000000 -0.382812 0.351562
-0.664512 -0.122739 0.118988
-0.858176 0.260115 -0.033894
0.664512 -0.122739 0.118988
0.858176 0.260115 -0.033894
-0.459720 0.411020 0.709570
0.000000 0.562500 0.851562
0.459720 0.411020 0.709570
0.000000 0.976525 -0.190772
-0.453125 0.867188 0.382812
0.000000 0.898438 0.546875
0.453125 0.867188 0.382812
-0.770823 0.623203 0.342437
-0.833846 0.352238 0.391235
-0.476077 0.899132 -0.128827
-0.781498 0.576058 -0.095848
0.781498 0.576058 -0.095848
0.476077 0.899132 -0.128827
0.770823 0.623203 0.342437
-0.852831 0.367812 0.193472
-0.444978 -0.202821 0.147984
0.444978 -0.202821 0.147984
-0.533910 0.047078 0.538381
1.207696 0.489413 0.396355
1.363280 0.310916 0.445376
1.234498 0.248681 0.433467
-1.234498 0.248681 0.433467
-1.317568 0.071790 0.491445
-1.363280 0.310916 0.445376
1.317568 0.071790 0.491445
1.147014 0.048217 0.437880
-1.147014 0.048217 0.437880
-1.037881 -0.075968 0.309556
-0.845118 -0.049599 0.146843
0.845118 -0.049599 0.146843
1.037881 -0.075968 0.309556
-1.167913 0.336612 0.431545
-1.207696 0.489413 0.396355
-0.962401 0.305884 0.351058
-0.980884 0.376460 0.258508
0.962401 0.305884 0.351058
1.167913 0.336612 0.431545
0.736780 0.072512 0.234252
-0.864912 0.016082 0.314259
-0.736780 0.072512 0.234252
0.864912 0.016082 0.314259
0.852831 0.367812 0.193472
0.980884 0.376460 0.258508
-1.227002 0.480829 0.552827
0.833846 0.352238 0.391235
1.227002 0.480829 0.552827
-0.825112 -0.141955 0.351496
0.825112 -0.141955 0.351496
0.156250 0.054688 -0.648438
-0.156250 0.437500 -0.648438
-0.412973 0.388532 -0.752534
3 0 1 2
3 3 4 5
3 1 6 7
3 8 3 9
3 1 10 6
3 11 3 8
3 12 13 10
3 10 14 12
3 15 11 16
3 15 16 17
3 15 17 18
3 0 19 14
3 4 18 20
3 2 21 0
3 1 14 10
3 11 15 3
3 1 0 14
3 15 4 3
3 22 23 24
3 25 26 27
3 28 23 29
3 30 31 32
3 33 34 35
3 28 36 37
3 31 38 32
3 23 37 39
3 25 40 31
3 24 23 41
3 41 42 24
3 42 43 27
3 34 44 36
3 32 45 33
3 43 42 45
3 46 47 48
3 47 49 50
3 51 46 48
3 49 52 50
3 51 53 46
3 52 53 54
3 24 55 51
3 56 27 52
3 57 58 59
3 57 58 27
3 52 54 56
3 55 24 54
3 58 24 42
3 27 58 42
3 49 47 60
3 53 61 46
3 23 62 63
3 64 25 65
3 23 39 62
3 66 25 64
3 38 40 67
3 44 68 36
3 38 67 69
3 33 70 71
3 72 33 71
3 35 73 70
3 74 30 72
3 30 74 75
3 28 76 35
3 31 75 77
3 29 78 28
3 79 80 81
3 79 82 83
3 48 81 80
3 81 50 82
3 48 80 84
3 82 50 83
3 26 25 85
3 86 87 88
3 89 90 87
3 90 84 79
3 83 90 79
3 29 91 92
3 93 85 94
3 95 87 96
3 97 87 86
3 98 99 100
3 101 98 100
3 100 95 96
3 97 100 96
3 95 102 103
3 104 105 102
3 106 107 108
3 104 78 105
3 77 107 106
3 76 98 71
3 75 98 107
3 70 73 76
3 74 72 75
3 70 76 71
3 75 72 71
3 85 77 94
3 92 105 78
3 106 94 77
3 92 102 105
3 108 94 106
3 102 109 103
3 89 110 84
3 29 110 91
3 111 85 93
3 29 22 110
3 26 85 111
3 22 84 110
3 111 83 26
3 112 95 103
3 110 112 91
3 88 111 86
3 113 114 115
3 116 117 118
3 115 119 120
3 121 122 117
3 122 123 91
3 124 125 93
3 126 116 127
3 128 127 129
3 130 113 131
3 93 132 124
3 123 133 134
3 135 124 132
3 136 137 132
3 91 109 92
3 93 136 132
3 134 128 129
3 121 133 123
3 133 126 128
3 131 135 130
3 133 128 134
3 130 135 132
3 131 120 135
3 126 121 116
3 118 138 127
3 127 138 109
3 136 139 140
3 141 103 138
3 138 117 141
3 119 140 142
3 138 118 117
3 119 114 140
3 103 141 112
3 142 139 86
3 2 1 7
3 9 3 5
3 6 10 13
3 143 11 8
3 16 11 143
3 14 144 12
3 14 19 144
3 0 21 19
3 4 15 18
3 5 4 20
3 22 51 48
3 50 52 26
3 31 85 25
3 35 34 28
3 33 30 32
3 28 34 36
3 31 40 38
3 23 28 37
3 25 66 40
3 27 43 25
3 34 33 44
3 32 38 45
3 44 33 42
3 42 33 45
3 41 44 42
3 51 54 53
3 52 49 53
3 57 24 58
3 51 55 54
3 57 54 24
3 27 54 57
3 56 54 27
3 22 24 51
3 52 27 26
3 46 61 47
3 53 49 60
3 53 47 61
3 60 47 53
3 41 23 63
3 65 25 43
3 36 145 37
3 45 38 69
3 36 68 145
3 33 35 70
3 72 30 33
3 35 76 73
3 28 78 76
3 31 30 75
3 85 31 77
3 79 84 80
3 79 81 82
3 48 47 81
3 81 47 50
3 22 48 84
3 83 50 26
3 22 29 23
3 112 89 87
3 88 87 90
3 90 89 84
3 83 88 90
3 95 112 87
3 97 96 87
3 98 104 99
3 101 107 98
3 100 99 95
3 97 101 100
3 97 139 108
3 95 99 102
3 108 101 97
3 99 104 102
3 108 107 101
3 104 76 78
3 77 75 107
3 76 104 98
3 75 71 98
3 29 92 78
3 92 109 102
3 108 136 94
3 108 139 136
3 88 83 111
3 86 139 97
3 111 93 86
3 89 112 110
3 109 129 127
3 113 137 136
3 127 116 118
3 116 121 117
3 115 114 119
3 120 119 125
3 122 121 123
3 124 120 125
3 131 113 115
3 128 126 127
3 130 137 113
3 91 123 134
3 109 134 129
3 91 134 109
3 93 94 136
3 132 137 130
3 120 124 135
3 126 133 121
3 131 115 120
3 122 91 141
3 142 93 125
3 117 122 141
3 142 125 119
3 114 113 140
3 113 136 140
3 109 138 103
3 142 140 139
3 91 112 141
3 142 86 93
