ply
format ascii 1.0
comment Created by Blender 2.79 (sub 0) - www.blender.org, source file: ''
element vertex 275
property float x
property float y
property float z
property float nx
property float ny
property float nz
element face 507
property list uchar uint vertex_indices
end_header
-0.466863 0.195096 -0.766162 -0.606189 -0.208686 -0.767418
-0.554358 0.044939 -0.584279 -0.621357 -0.483688 -0.616352
-0.633637 0.242150 -0.566680 -0.790368 0.023316 -0.612171
0.554358 0.044939 -0.584279 0.621357 -0.483688 -0.616352
0.466863 0.195096 -0.766162 0.606189 -0.208686 -0.767418
0.633637 0.242150 -0.566680 0.790368 0.023316 -0.612171
-0.351562 0.031250 -0.718750 -0.093570 -0.753899 -0.650258
0.351562 0.031250 -0.718750 0.093570 -0.753899 -0.650258
-0.355270 0.128757 -0.790000 -0.231025 -0.478011 -0.847407
-0.267182 0.156443 -0.807657 0.306375 -0.372509 -0.875973
0.267182 0.156443 -0.807657 -0.306375 -0.372509 -0.875973
0.355270 0.128757 -0.790000 0.231025 -0.478011 -0.847407
-0.156250 0.054688 -0.648438 0.488021 -0.579577 -0.652608
-0.351562 -0.023438 -0.617188 -0.077639 -0.877804 -0.472640
0.156250 0.054688 -0.648438 -0.488021 -0.579577 -0.652608
0.351562 -0.023438 -0.617188 0.077639 -0.877804 -0.472640
-0.069017 0.242460 -0.662145 0.683767 -0.009827 -0.729606
0.240673 0.241998 -0.804677 -0.469558 -0.027161 -0.882473
0.069017 0.242460 -0.662145 -0.683767 -0.009827 -0.729606
-0.240673 0.241998 -0.804677 0.469558 -0.027161 -0.882473
-0.260987 0.329926 -0.809342 0.335612 0.361827 -0.869716
0.260987 0.329926 -0.809342 -0.335612 0.361827 -0.869716
0.156250 0.437500 -0.648438 -0.449080 0.587512 -0.673116
-0.346608 0.371935 -0.793884 -0.099460 0.584857 -0.804987
-0.156250 0.437500 -0.648438 0.449080 0.587512 -0.673116
0.346608 0.371935 -0.793884 0.099460 0.584857 -0.804987
0.351562 0.515625 -0.617188 0.132939 0.770806 -0.623035
-0.439629 0.339408 -0.774899 -0.531663 0.377697 -0.758049
-0.351562 0.515625 -0.617188 -0.132939 0.770806 -0.623035
0.439629 0.339408 -0.774899 0.531663 0.377697 -0.758049
0.546875 0.437500 -0.578125 0.624256 0.508011 -0.593463
-0.546875 0.437500 -0.578125 -0.624256 0.508011 -0.593463
-0.351562 0.242188 -0.828125 -0.161626 -0.027558 -0.986450
0.351562 0.242188 -0.828125 0.161626 -0.027558 -0.986450
-0.271873 -0.884280 -0.652178 -0.476150 -0.430280 -0.766869
0.000000 -0.978827 -0.599910 0.000000 -0.919645 -0.392743
-0.322477 -0.948449 -0.530737 -0.511948 -0.848018 -0.136784
-0.371249 -0.872392 -0.543199 -0.963622 -0.170080 -0.206061
0.271873 -0.884280 -0.652178 0.476150 -0.430280 -0.766869
0.371249 -0.872392 -0.543199 0.963622 -0.170080 -0.206061
0.322477 -0.948449 -0.530737 0.511948 -0.848018 -0.136784
-0.312500 -0.437500 -0.570312 -0.960326 0.229102 -0.159001
0.312500 -0.437500 -0.570312 0.960326 0.229102 -0.159001
-0.211986 -0.181074 -0.523224 -0.781396 -0.430403 -0.451827
-0.405343 -0.038978 -0.673014 -0.346049 -0.557329 -0.754692
-0.125000 -0.101562 -0.812500 -0.078616 -0.287393 -0.954558
0.405343 -0.038978 -0.673014 0.346049 -0.557329 -0.754692
0.211986 -0.181074 -0.523224 0.781396 -0.430403 -0.451827
0.125000 -0.101562 -0.812500 0.078616 -0.287393 -0.954558
0.577659 -0.086733 -0.540999 0.500656 -0.854549 -0.137944
0.670830 0.112518 -0.610906 0.532304 -0.375622 -0.758629
-0.859375 0.429688 -0.593750 -0.862270 0.430128 -0.267220
-0.670830 0.112518 -0.610906 -0.532304 -0.375622 -0.758629
-0.828125 0.148438 -0.445312 -0.897885 -0.419721 0.132603
0.859375 0.429688 -0.593750 0.862270 0.430128 -0.267220
0.729015 0.388944 -0.678526 0.412488 0.009919 -0.910886
-0.710938 0.484375 -0.625000 -0.474685 0.836207 -0.274606
-0.729015 0.388944 -0.678526 -0.412488 0.009919 -0.910886
-0.312320 0.743779 -0.728430 -0.243080 0.959105 -0.144780
0.312320 0.743779 -0.728430 0.243080 0.959105 -0.144780
0.252177 0.653553 -0.851777 0.039766 0.304086 -0.951781
-0.156250 0.718750 -0.757812 0.618183 0.757836 -0.208594
-0.252177 0.653553 -0.851777 -0.039766 0.304086 -0.951781
-0.062500 0.492188 -0.750000 0.809320 0.563250 -0.166540
0.062500 0.492188 -0.750000 -0.809320 0.563250 -0.166540
0.101562 0.429688 -0.843750 -0.110599 -0.056703 -0.992218
0.000000 0.429688 -0.742188 0.000000 0.963591 -0.267281
-0.101562 0.429688 -0.843750 0.110599 -0.056703 -0.992218
0.000000 0.351562 -0.820312 0.000000 -0.056490 -0.998383
-0.299899 0.484315 -0.747732 -0.209479 -0.195410 -0.958068
-0.140735 0.364825 -0.774373 -0.204077 -0.255104 -0.945128
0.299899 0.484315 -0.747732 0.209479 -0.195410 -0.958068
-0.573262 0.366861 -0.686494 -0.180273 -0.210761 -0.960753
-0.542530 0.213160 -0.681297 -0.370525 -0.165990 -0.913846
0.573262 0.366861 -0.686494 0.180273 -0.210761 -0.960753
-0.199938 0.122037 -0.759906 -0.088412 0.034669 -0.995453
-0.373759 0.086983 -0.729413 -0.199164 -0.359081 -0.911771
0.199938 0.122037 -0.759906 0.088412 0.034669 -0.995453
0.373759 0.086983 -0.729413 0.199164 -0.359081 -0.911771
0.000000 0.064815 -0.732573 0.000000 0.057619 -0.998321
0.140735 0.364825 -0.774373 0.204077 -0.255104 -0.945128
-0.081923 -0.859515 -0.702830 0.303873 -0.154607 -0.940062
0.081923 -0.859515 -0.702830 -0.303873 -0.154607 -0.940062
-0.100967 -0.734979 -0.733232 -0.065889 -0.293680 -0.953612
-0.210938 -0.445312 -0.710938 -0.594775 0.100375 -0.797571
0.100967 -0.734979 -0.733232 0.065889 -0.293680 -0.953612
0.210938 -0.445312 -0.710938 0.594775 0.100375 -0.797571
-0.074594 -0.296756 -0.747659 -0.441542 -0.408124 -0.799005
0.000000 -0.769509 -0.731837 0.000000 -0.726249 -0.687429
0.074594 -0.296756 -0.747659 0.441542 -0.408124 -0.799005
0.000000 -0.336850 -0.757637 0.000000 -0.281442 -0.959563
-0.139156 -0.217183 -0.728832 -0.898495 -0.066652 -0.433851
-0.124825 -0.227263 -0.812515 -0.685324 -0.211951 -0.696677
0.124825 -0.227263 -0.812515 0.685324 -0.211951 -0.696677
0.139156 -0.217183 -0.728832 0.898495 -0.066652 -0.433851
0.104409 -0.129449 -0.779666 -0.008698 -0.289438 -0.957152
-0.051213 -0.128370 -0.796790 0.113132 0.830866 -0.544816
-0.104409 -0.129449 -0.779666 0.008698 -0.289438 -0.957152
0.000000 -0.140625 -0.742188 0.174657 0.481307 -0.858943
0.000000 -0.187500 -0.796875 0.202460 0.832331 -0.515946
0.000000 -0.195312 -0.750000 0.999969 0.000000 0.000000
0.051213 -0.128370 -0.796790 -0.113132 0.830866 -0.544816
0.000000 -0.203125 -0.828125 0.000000 0.092349 -0.995697
0.000000 -0.859375 -0.632812 0.000000 0.527329 -0.849635
0.000000 -0.880762 -0.688484 0.000000 0.106998 -0.994232
0.082788 -0.830944 -0.636464 -0.601825 0.255745 -0.756523
-0.093750 -0.750000 -0.664062 0.543535 -0.646901 -0.534837
-0.082788 -0.830944 -0.636464 0.601825 0.255745 -0.756523
0.093750 -0.750000 -0.664062 -0.543535 -0.646901 -0.534837
0.000000 -0.781250 -0.656250 0.000000 -0.692984 -0.720939
-0.460036 0.118220 -0.705621 -0.553056 -0.349315 -0.756340
0.542530 0.213160 -0.681297 0.370525 -0.165990 -0.913846
0.460036 0.118220 -0.705621 0.553056 -0.349315 -0.756340
0.412083 0.390727 -0.751666 0.358013 0.341838 -0.868862
-0.312946 0.435754 -0.764208 -0.128758 0.133061 -0.982696
-0.412083 0.390727 -0.751666 -0.358013 0.341838 -0.868862
0.312946 0.435754 -0.764208 0.128758 0.133061 -0.982696
-0.170344 0.306785 -0.784634 0.028138 -0.175237 -0.984100
0.170344 0.306785 -0.784634 -0.028138 -0.175237 -0.984100
-0.234375 0.359375 -0.757812 -0.669698 -0.674337 -0.311045
-0.281250 0.398438 -0.765625 0.372143 0.348735 -0.860134
0.234375 0.359375 -0.757812 0.669668 -0.674337 -0.311045
0.281250 0.398438 -0.765625 -0.372143 0.348735 -0.860134
-0.335938 0.406250 -0.750000 -0.002808 -0.432051 -0.901822
0.335938 0.406250 -0.750000 0.002808 -0.432051 -0.901822
-0.551809 0.287858 -0.675569 0.587268 0.047731 -0.807947
0.551809 0.287858 -0.675569 -0.587268 0.047731 -0.807947
-0.242188 0.125000 -0.757812 -0.066591 -0.271279 -0.960173
-0.203125 0.171875 -0.750000 -0.708701 0.090060 -0.699698
0.242188 0.125000 -0.757812 0.066591 -0.271279 -0.960173
0.203125 0.171875 -0.750000 0.708701 0.090060 -0.699698
-0.193599 0.296040 -0.756507 -0.723289 -0.179815 -0.666677
0.193599 0.296040 -0.756507 0.723289 -0.179815 -0.666677
-0.109375 0.460938 -0.609375 0.459304 0.862453 -0.212592
0.000000 0.406250 -0.601562 0.000000 0.859188 -0.511612
0.109375 0.460938 -0.609375 -0.459304 0.862453 -0.212561
-0.195312 0.664062 -0.617188 0.470351 0.521165 0.712088
0.195312 0.664062 -0.617188 -0.470351 0.521165 0.712088
0.335938 0.687500 -0.593750 0.144963 0.676260 0.722221
0.484375 0.554688 -0.554688 0.197028 0.862667 0.465743
-0.484375 0.554688 -0.554688 -0.197028 0.862667 0.465743
0.710938 0.484375 -0.625000 0.474685 0.836207 -0.274606
0.729159 0.400686 -0.348640 0.756157 0.653462 -0.033998
-0.729159 0.400686 -0.348640 -0.756157 0.653462 -0.033998
0.828125 0.148438 -0.445312 0.897885 -0.419752 0.132603
0.773438 0.164062 -0.375000 0.916959 -0.346324 0.197913
-0.544940 -0.037113 -0.446349 -0.507797 -0.849452 0.143223
-0.773438 0.164062 -0.375000 -0.916959 -0.346324 0.197913
0.544940 -0.037113 -0.446349 0.507797 -0.849452 0.143223
0.000000 -0.487724 -0.299484 0.000000 -0.678182 0.734855
0.247368 -0.507892 -0.386600 0.750542 -0.019501 0.660482
0.178222 -0.412890 -0.254201 0.634877 -0.738182 0.227973
-0.228797 -0.920957 -0.410613 -0.069887 -0.651723 0.755211
0.000000 -0.804688 -0.343750 0.000000 -0.290139 0.956969
0.228797 -0.920957 -0.410613 0.069887 -0.651723 0.755211
0.000000 -0.976562 -0.460938 0.000000 -0.898831 0.438246
-0.327590 -0.910541 -0.392537 -0.513108 -0.447371 0.732475
0.327590 -0.910541 -0.392537 0.513108 -0.447371 0.732475
-0.247368 -0.507892 -0.386600 -0.750542 -0.019501 0.660482
-0.178222 -0.412890 -0.254201 -0.634877 -0.738182 0.227973
-0.219324 -0.287789 -0.419044 -0.963927 -0.265725 -0.014527
0.219324 -0.287789 -0.419044 0.963927 -0.265725 -0.014527
-0.462316 0.031406 0.578834 -0.501724 -0.459670 0.732749
0.000000 -0.195312 0.671875 0.000000 -0.686544 0.727073
0.000000 0.070312 0.828125 0.000000 -0.310617 0.950530
0.462316 0.031406 0.578834 0.501724 -0.459670 0.732749
0.343750 -0.148438 0.539062 0.531693 -0.639393 0.555376
-0.343750 -0.148438 0.539062 -0.531693 -0.639393 0.555376
0.000000 -0.382812 0.351562 0.000000 -0.940977 0.338450
0.296875 -0.312500 0.265625 0.507736 -0.837336 0.202490
-0.734375 -0.046875 -0.070312 -0.728660 -0.680776 -0.074496
-0.862554 0.286815 0.001710 -0.996582 -0.081545 -0.012207
0.734375 -0.046875 -0.070312 0.728660 -0.680776 -0.074496
0.862554 0.286815 0.001710 0.996582 -0.081545 -0.012207
-0.460938 0.437500 0.703125 -0.481521 0.161321 0.861446
0.000000 0.562500 0.851562 0.000000 0.365032 0.930967
0.460938 0.437500 0.703125 0.481521 0.161321 0.861446
-0.453125 0.851562 -0.234375 -0.444227 0.724418 -0.527085
0.000000 0.984375 0.078125 0.000000 0.999725 -0.022584
0.000000 0.898438 -0.289062 0.000000 0.830622 -0.556810
0.453125 0.851562 -0.234375 0.444227 0.724418 -0.527085
0.453125 0.929688 0.070312 0.409284 0.911649 -0.036439
-0.453125 0.867188 0.382812 -0.396558 0.814753 0.422926
0.000000 0.898438 0.546875 0.000000 0.834223 0.551378
0.453125 0.867188 0.382812 0.396558 0.814753 0.422926
-0.632812 0.453125 -0.281250 -0.433119 0.764092 -0.478042
-0.796875 0.562500 -0.125000 -0.745537 0.521836 -0.414533
-0.640625 0.703125 -0.054688 -0.671377 0.658223 -0.340495
0.796875 0.562500 -0.125000 0.745537 0.521836 -0.414533
0.632812 0.453125 -0.281250 0.433119 0.764092 -0.478042
0.640625 0.703125 -0.054688 0.671377 0.658223 -0.340495
-0.791542 0.618919 0.144582 -0.857448 0.513565 0.031343
-0.796875 0.539062 0.359375 -0.868557 0.303110 0.392010
-0.640625 0.679688 0.445312 -0.608020 0.566759 0.555895
0.796875 0.539062 0.359375 0.868557 0.303110 0.392010
0.791542 0.618919 0.144582 0.857448 0.513565 0.031343
0.640625 0.679688 0.445312 0.608020 0.566759 0.555895
0.769084 0.268946 0.453705 0.675039 -0.025086 0.737327
-0.769084 0.268946 0.453705 -0.675039 -0.025086 0.737327
-0.453125 0.929688 0.070312 -0.409284 0.911649 -0.036439
-0.460938 0.523438 -0.429688 -0.342174 0.885433 -0.314463
0.460938 0.523438 -0.429688 0.342174 0.885433 -0.314463
0.000000 0.570312 -0.570312 0.000000 0.529252 -0.848445
-0.823799 0.290178 0.197792 -0.965331 -0.089541 -0.245094
0.823799 0.290178 0.197792 0.965331 -0.089541 -0.245094
-0.296875 -0.312500 0.265625 -0.507736 -0.837336 0.202490
-0.406250 -0.171875 -0.148438 -0.573382 -0.810450 -0.119877
0.406250 -0.171875 -0.148438 0.573382 -0.810450 -0.119877
0.429688 -0.195312 0.210938 0.563219 -0.817042 0.123051
-0.593750 -0.125000 0.164062 -0.333384 -0.942747 0.004913
0.593750 -0.125000 0.164062 0.333384 -0.942747 0.004913
0.640625 -0.007812 0.429688 0.323130 -0.616108 0.718284
-0.429688 -0.195312 0.210938 -0.563219 -0.817042 0.123051
-0.640625 -0.007812 0.429688 -0.323130 -0.616108 0.718284
1.209045 0.489463 0.397220 0.322031 0.744224 -0.585131
1.362991 0.312056 0.443765 0.957793 0.149998 -0.245155
1.265625 0.289062 0.406250 -0.129154 -0.086245 -0.987854
-1.265625 0.289062 0.406250 0.129154 -0.086245 -0.987854
-1.281250 0.054688 0.429688 -0.648854 -0.480667 -0.589831
-1.362991 0.312056 0.443765 -0.957793 0.149998 -0.245155
1.281250 0.054688 0.429688 0.648854 -0.480667 -0.589831
1.210938 0.078125 0.406250 -0.105258 0.381695 -0.918241
-1.210938 0.078125 0.406250 0.105258 0.381695 -0.918241
-1.044079 -0.075476 0.314684 -0.602252 -0.409253 -0.685385
-0.896213 -0.013587 0.253234 -0.182653 0.735405 -0.652516
-0.812789 -0.105257 0.123260 -0.339335 -0.311075 -0.887722
0.896213 -0.013587 0.253234 0.182653 0.735405 -0.652516
1.044079 -0.075476 0.314684 0.602252 -0.409253 -0.685385
0.812789 -0.105257 0.123260 0.339335 -0.311075 -0.887722
-1.036152 0.006784 0.405449 -0.265572 0.426374 -0.864650
1.036152 0.006784 0.405449 0.265572 0.426374 -0.864650
-1.232862 0.247820 0.457067 0.438978 0.039216 -0.897610
1.232862 0.247820 0.457067 -0.438978 0.039216 -0.897610
1.192274 0.097303 0.460195 -0.299814 0.340495 -0.891140
-1.169932 0.344422 0.460717 -0.057100 -0.191229 -0.979858
-1.209045 0.489463 0.397220 -0.322031 0.744224 -0.585131
1.169932 0.344422 0.460717 0.057100 -0.191229 -0.979858
-0.968548 0.311118 0.337229 -0.587909 -0.378124 -0.715079
-0.935093 0.373437 0.230622 -0.401410 -0.072970 -0.912961
0.968548 0.311118 0.337229 0.587909 -0.378124 -0.715079
-0.711848 -0.001168 0.175937 -0.888241 -0.046541 -0.456984
-0.934663 0.444572 0.262430 0.218177 0.829737 -0.513688
0.935093 0.373437 0.230622 0.401410 -0.072970 -0.912961
0.934663 0.444572 0.262430 -0.218177 0.829737 -0.513688
-0.843352 -0.001119 0.298544 -0.164892 0.632008 -0.757195
0.843352 -0.001119 0.298544 0.164892 0.632008 -0.757195
0.711848 -0.001168 0.175937 0.888241 -0.046541 -0.456984
-0.771466 0.096498 0.304039 -0.699271 -0.059542 -0.712333
-0.823527 0.083038 0.307996 -0.242592 0.587664 -0.771844
0.771466 0.096498 0.304039 0.699271 -0.059542 -0.712333
0.823527 0.083038 0.307996 0.242592 0.587664 -0.771844
-0.872934 0.217689 0.264532 -0.649464 -0.522385 -0.552507
0.872934 0.217689 0.264532 0.649464 -0.522385 -0.552507
-0.935530 0.061028 0.334851 -0.393017 0.228675 -0.890622
-1.068135 0.235192 0.383879 -0.410535 0.080020 -0.908292
1.068135 0.235192 0.383879 0.410535 0.080020 -0.908292
0.935530 0.061028 0.334851 0.393017 0.228675 -0.890622
-1.192274 0.097303 0.460195 0.299814 0.340495 -0.891140
-1.039062 0.328125 0.414062 -0.523789 -0.532426 -0.664937
1.039062 0.328125 0.414062 0.523789 -0.532426 -0.664937
-0.789062 -0.125000 0.328125 0.042787 -0.882962 0.467452
-1.039062 -0.085938 0.492188 0.020600 -0.719321 0.694327
0.789062 -0.125000 0.328125 -0.042787 -0.882962 0.467452
1.039062 -0.085938 0.492188 -0.020600 -0.719321 0.694327
-1.312500 0.054688 0.531250 -0.639454 -0.490829 0.591754
1.312500 0.054688 0.531250 0.639454 -0.490829 0.591754
-1.250000 0.468750 0.546875 -0.318827 0.640889 0.698264
-1.023438 0.437500 0.484375 0.396496 0.589679 0.703574
1.023438 0.437500 0.484375 -0.396496 0.589679 0.703574
1.250000 0.468750 0.546875 0.318827 0.640889 0.698264
0.859375 0.382812 0.382812 -0.685842 0.575243 0.445692
-0.859375 0.382812 0.382812 0.685842 0.575243 0.445692
-0.577659 -0.086733 -0.540999 -0.500656 -0.854549 -0.137944
0.156250 0.718750 -0.757812 -0.618183 0.757836 -0.208594
-0.335938 0.687500 -0.593750 -0.144963 0.676260 0.722221
3 0 1 2
3 3 4 5
3 0 6 1
3 7 4 3
3 8 9 6
3 10 11 7
3 6 12 13
3 14 7 15
3 16 12 9
3 17 10 18
3 19 20 16
3 21 17 18
3 21 18 22
3 23 24 20
3 25 22 26
3 27 28 23
3 29 26 30
3 2 31 27
3 4 29 5
3 8 0 32
3 33 4 11
3 32 9 8
3 11 10 33
3 32 19 9
3 10 17 33
3 32 20 19
3 17 21 33
3 32 23 20
3 21 25 33
3 32 27 23
3 25 29 33
3 32 0 27
3 29 4 33
3 34 35 36
3 37 34 36
3 38 39 40
3 41 34 37
3 38 42 39
3 43 44 45
3 46 47 48
3 49 46 50
3 51 52 53
3 54 50 55
3 56 57 51
3 58 57 56
3 59 55 60
3 61 62 58
3 63 62 61
3 64 60 65
3 66 67 63
3 66 65 68
3 69 67 70
3 71 65 60
3 57 69 72
3 55 71 60
3 52 72 73
3 50 74 55
3 52 73 44
3 75 44 76
3 46 77 78
3 75 79 45
3 79 77 48
3 65 80 68
3 70 79 75
3 79 80 77
3 81 35 34
3 35 82 38
3 81 34 83
3 84 83 34
3 85 86 38
3 87 88 83
3 89 88 90
3 91 92 87
3 93 94 89
3 95 94 93
3 96 97 98
3 99 98 100
3 99 98 101
3 89 90 93
3 92 96 102
3 93 101 95
3 98 45 79
3 48 98 79
3 97 91 45
3 94 95 48
3 89 94 86
3 43 84 41
3 47 86 94
3 81 103 104
3 82 103 105
3 81 106 107
3 108 82 105
3 88 106 83
3 88 108 109
3 109 107 106
3 105 109 108
3 44 73 110
3 111 46 112
3 71 74 113
3 69 114 115
3 116 71 113
3 69 117 114
3 118 71 116
3 114 119 120
3 121 116 122
3 114 120 123
3 122 116 124
3 116 113 124
3 115 125 72
3 74 111 126
3 76 127 75
3 75 127 128
3 129 77 130
3 117 131 119
3 132 118 121
3 117 128 131
3 130 118 132
3 66 133 134
3 135 66 134
3 63 136 133
3 137 64 135
3 58 136 61
3 59 137 138
3 59 138 139
3 56 140 58
3 141 139 142
3 53 143 51
3 144 142 145
3 53 146 147
3 148 144 145
3 149 150 151
3 149 152 153
3 149 154 150
3 153 152 155
3 36 155 152
3 155 40 154
3 36 152 156
3 154 40 157
3 37 156 158
3 157 39 150
3 158 159 160
3 41 158 160
3 150 42 161
3 160 43 41
3 47 49 148
3 162 163 164
3 165 163 166
3 167 168 163
3 166 168 169
3 168 159 149
3 151 168 149
3 147 170 171
3 172 145 173
3 174 164 175
3 176 164 165
3 177 178 179
3 180 178 181
3 178 182 183
3 184 178 183
3 183 174 175
3 176 183 175
3 185 186 187
3 188 189 190
3 191 192 193
3 194 195 196
3 197 194 196
3 174 193 198
3 196 176 197
3 182 191 193
3 195 184 196
3 199 187 191
3 190 181 195
3 177 185 187
3 189 180 190
3 143 200 140
3 142 201 189
3 200 179 202
3 201 179 180
3 136 140 133
3 137 139 138
3 133 200 202
3 201 135 202
3 134 133 202
3 202 135 134
3 145 142 173
3 171 186 143
3 188 173 142
3 171 191 186
3 195 173 188
3 192 203 198
3 194 204 195
3 205 206 159
3 169 207 208
3 206 209 170
3 207 210 208
3 146 206 170
3 207 148 172
3 146 160 206
3 161 148 207
3 160 159 206
3 207 151 161
3 211 197 165
3 198 162 174
3 212 213 209
3 208 211 165
3 167 212 205
3 166 208 165
3 214 215 216
3 217 218 219
3 216 220 221
3 222 223 218
3 223 224 225
3 226 227 228
3 222 229 223
3 230 221 227
3 231 222 217
3 232 221 233
3 234 217 235
3 236 216 232
3 237 235 238
3 239 214 236
3 209 240 170
3 225 240 209
3 203 238 241
3 242 204 243
3 225 244 240
3 245 228 246
3 247 244 248
3 245 249 250
3 203 247 251
3 204 249 246
3 203 237 238
3 204 239 252
3 240 203 171
3 252 239 249
3 244 253 248
3 247 254 237
3 249 255 256
3 226 245 256
3 229 253 224
3 256 230 226
3 254 229 257
3 254 257 231
3 234 254 231
3 255 236 232
3 258 254 234
3 236 255 259
3 223 260 261
3 262 227 263
3 218 261 264
3 263 220 265
3 220 215 265
3 219 266 235
3 235 267 241
3 214 268 269
3 243 270 268
3 261 271 267
3 263 270 262
3 267 264 261
3 265 268 263
3 266 219 264
3 265 215 269
3 203 271 198
3 204 270 243
3 198 260 213
3 262 197 211
3 209 260 225
3 262 210 228
3 1 6 13
3 15 7 3
3 0 8 6
3 7 11 4
3 6 9 12
3 14 10 7
3 18 10 14
3 19 16 9
3 20 24 16
3 23 28 24
3 25 21 22
3 27 31 28
3 29 25 26
3 5 29 30
3 0 2 27
3 38 40 35
3 41 84 34
3 38 86 42
3 43 272 44
3 46 49 47
3 272 52 44
3 272 53 52
3 50 144 49
3 51 57 52
3 54 144 50
3 141 54 55
3 58 62 57
3 59 141 55
3 273 59 60
3 63 67 62
3 64 273 60
3 66 68 67
3 66 64 65
3 69 62 67
3 71 80 65
3 57 62 69
3 55 74 71
3 52 57 72
3 50 111 74
3 50 46 111
3 75 45 44
3 46 48 77
3 67 68 70
3 70 68 79
3 79 68 80
3 81 104 35
3 35 104 82
3 82 85 38
3 84 87 83
3 85 89 86
3 87 90 88
3 89 85 88
3 97 92 91
3 101 98 95
3 99 96 98
3 87 92 90
3 99 102 96
3 101 102 99
3 92 97 96
3 93 102 101
3 102 90 92
3 93 90 102
3 98 97 45
3 48 95 98
3 87 84 91
3 43 91 84
3 47 42 86
3 43 45 91
3 94 48 47
3 81 107 103
3 82 104 103
3 81 83 106
3 108 85 82
3 88 109 106
3 88 85 108
3 109 103 107
3 105 103 109
3 70 75 117
3 118 77 80
3 76 44 110
3 112 46 78
3 69 115 72
3 69 70 117
3 118 80 71
3 114 117 119
3 121 118 116
3 114 123 115
3 113 74 126
3 72 125 73
3 78 77 129
3 117 75 128
3 130 77 118
3 66 63 133
3 135 64 66
3 63 61 136
3 137 273 64
3 58 274 136
3 59 273 137
3 58 140 274
3 56 143 140
3 141 59 139
3 56 51 143
3 142 54 141
3 53 147 143
3 144 54 142
3 53 272 146
3 148 49 144
3 149 159 158
3 149 158 152
3 149 153 154
3 153 155 154
3 36 35 155
3 155 35 40
3 37 36 156
3 157 40 39
3 156 152 158
3 150 154 157
3 150 161 151
3 41 37 158
3 150 39 42
3 161 42 47
3 43 146 272
3 162 167 163
3 165 164 163
3 167 205 168
3 166 163 168
3 168 205 159
3 151 169 168
3 147 146 170
3 172 148 145
3 174 162 164
3 176 175 164
3 177 199 178
3 180 179 178
3 178 199 182
3 184 181 178
3 183 182 174
3 176 184 183
3 185 143 186
3 188 142 189
3 187 186 191
3 195 188 190
3 198 193 192
3 174 182 193
3 196 184 176
3 182 199 191
3 195 181 184
3 199 177 187
3 190 180 181
3 177 200 185
3 189 201 180
3 143 185 200
3 142 139 201
3 200 177 179
3 201 202 179
3 136 274 140
3 137 135 139
3 133 140 200
3 201 139 135
3 147 171 143
3 171 203 191
3 195 204 173
3 192 191 203
3 194 197 204
3 205 212 206
3 169 151 207
3 206 212 209
3 207 172 210
3 146 43 160
3 161 47 148
3 213 162 198
3 197 176 165
3 212 162 213
3 208 210 211
3 167 162 212
3 166 169 208
3 241 238 235
3 214 242 243
3 235 217 219
3 217 222 218
3 216 215 220
3 221 220 227
3 223 229 224
3 226 230 227
3 222 257 229
3 230 233 221
3 231 257 222
3 232 216 221
3 234 231 217
3 236 214 216
3 237 234 235
3 239 242 214
3 210 172 246
3 228 210 246
3 171 170 240
3 246 172 173
3 225 224 244
3 245 226 228
3 247 240 244
3 245 246 249
3 203 240 247
3 204 252 249
3 203 251 237
3 204 242 239
3 246 173 204
3 251 247 237
3 234 237 258
3 259 239 236
3 245 250 256
3 258 237 254
3 255 239 259
3 247 253 254
3 249 239 255
3 248 253 247
3 249 256 250
3 224 253 244
3 229 254 253
3 256 255 230
3 255 233 230
3 255 232 233
3 223 225 260
3 262 228 227
3 218 223 261
3 263 227 220
3 218 264 219
3 215 214 269
3 235 266 267
3 214 243 268
3 241 267 271
3 261 260 271
3 263 268 270
3 267 266 264
3 265 269 268
3 203 241 271
3 204 197 270
3 198 271 260
3 262 270 197
3 209 213 260
3 262 211 210
