ply
format ascii 1.0
comment Created by Blender 2.79 (sub 0) - www.blender.org, source file: ''
element vertex 385
property float x
property float y
property float z
property float nx
property float ny
property float nz
property float s
property float t
element face 704
property list uchar uint vertex_indices
end_header
1.009050 3.056280 -1.510150 0.000000 -1.000000 0.000000 0.352479 0.912442
1.316533 3.056280 -1.604203 0.000000 -1.000000 0.000000 0.286060 0.952472
1.152197 3.056280 -1.403958 0.000000 -1.000000 0.000000 0.312765 0.895992
1.284274 3.056280 -1.284279 0.000000 -1.000000 0.000000 0.274851 0.875737
1.095020 3.056280 -1.095024 0.000000 -1.000000 0.000000 0.308029 0.820368
0.982405 3.056280 -1.197066 0.000000 -1.000000 0.000000 0.340357 0.837637
0.860353 3.056280 -1.287609 0.000000 -1.000000 0.000000 0.374218 0.851663
1.781341 3.056280 0.354333 0.000000 -1.000000 0.000000 0.062500 0.521543
1.985904 3.056280 0.602419 0.000000 -1.000000 0.000000 0.000100 0.475499
1.738014 3.056280 0.527222 0.000000 -1.000000 0.000000 0.062500 0.478557
1.677989 3.056280 0.695046 0.000000 -1.000000 0.000000 0.066703 0.435777
1.430715 3.056280 0.592622 0.000000 -1.000000 0.000000 0.130555 0.445241
1.481895 3.056280 0.449528 0.000000 -1.000000 0.000000 0.126971 0.481717
1.518837 3.056280 0.302116 0.000000 -1.000000 0.000000 0.126971 0.518368
-0.695047 3.056280 -1.677989 0.000000 -1.000000 0.000000 0.760975 0.851800
-0.602420 3.056280 -1.985904 0.000000 -1.000000 0.000000 0.757358 0.929264
-0.527223 3.056280 -1.738014 0.000000 -1.000000 0.000000 0.725233 0.875681
-0.354334 3.056280 -1.781341 0.000000 -1.000000 0.000000 0.687328 0.895953
-0.302118 3.056280 -1.518836 0.000000 -1.000000 0.000000 0.659723 0.837604
-0.449530 3.056280 -1.481894 0.000000 -1.000000 0.000000 0.692042 0.820320
-0.592622 3.056280 -1.430714 0.000000 -1.000000 0.000000 0.722517 0.799958
-1.781341 3.056280 0.354333 0.000000 -1.000000 0.000000 0.895953 0.312672
-2.065269 3.056280 0.203413 0.000000 -0.999969 0.000000 0.971223 0.331333
-1.807472 3.056280 0.178022 0.000000 -1.000000 0.000000 0.912403 0.352387
-1.816239 3.056280 -0.000000 0.000000 -1.000000 0.000000 0.924891 0.393519
-1.548592 3.056280 -0.000000 0.000000 -0.999969 0.000000 0.862277 0.409211
-1.541117 3.056280 0.151788 0.000000 -0.999969 0.000000 0.851630 0.374140
-1.518837 3.056280 0.302117 0.000000 -1.000000 0.000000 0.837604 0.340278
-0.354334 3.056280 1.781340 0.000000 -1.000000 0.000000 0.478458 0.062500
-0.602421 3.056280 1.985904 0.000000 -0.999969 0.000000 0.524502 0.000100
-0.527224 3.056280 1.738014 0.000000 -1.000000 0.000000 0.521444 0.062500
-0.695048 3.056280 1.677988 0.000000 -1.000000 0.000000 0.564224 0.066703
-0.592623 3.056280 1.430714 0.000000 -1.000000 0.000000 0.554759 0.130555
-0.449530 3.056280 1.481894 0.000000 -1.000000 0.000000 0.518284 0.126972
-0.302118 3.056280 1.518836 0.000000 -0.999969 0.000000 0.481632 0.126972
1.830221 3.056280 0.978274 0.000000 -1.000000 0.000000 0.014485 0.378444
1.601764 3.056280 0.856161 0.000000 -0.999969 0.000000 0.075089 0.393617
1.510150 3.056280 1.009050 0.000000 -1.000000 0.000000 0.087558 0.352479
1.287609 3.056280 0.860354 0.000000 -1.000000 0.000000 0.148337 0.374218
1.365723 3.056280 0.729995 0.000000 -1.000000 0.000000 0.137706 0.409294
1.604199 3.056280 -1.316537 0.000000 -1.000000 0.000000 0.201899 0.902040
1.403955 3.056280 -1.152202 0.000000 -1.000000 0.000000 0.239109 0.851856
1.510148 3.056280 -1.009054 0.000000 -1.000000 0.000000 0.205874 0.824594
1.287608 3.056280 -0.860356 0.000000 -1.000000 0.000000 0.249218 0.776761
1.197064 3.056280 -0.982409 0.000000 -1.000000 0.000000 0.277555 0.800005
-2.065269 3.056280 -0.203414 0.000000 -1.000000 0.000000 0.995074 0.426506
-1.807472 3.056280 -0.178023 0.000000 -1.000000 0.000000 0.933277 0.435680
-1.781341 3.056280 -0.354335 0.000000 -1.000000 0.000000 0.937500 0.478458
-1.518837 3.056280 -0.302119 0.000000 -1.000000 0.000000 0.873029 0.481633
-1.541117 3.056280 -0.151789 0.000000 -1.000000 0.000000 0.869428 0.445158
-0.203414 3.056280 -2.065269 0.000000 -1.000000 0.000000 0.668668 0.971223
-0.178023 3.056280 -1.807472 0.000000 -1.000000 0.000000 0.647614 0.912403
0.000000 3.056280 -1.816239 0.000000 -1.000000 0.000000 0.606481 0.924891
0.000000 3.056280 -1.548592 0.000000 -1.000000 0.000000 0.590790 0.862278
-0.151789 3.056280 -1.541117 0.000000 -1.000000 0.000000 0.625861 0.851630
1.604201 3.056280 1.316534 0.000000 -1.000000 0.000000 0.047529 0.286060
1.403957 3.056280 1.152197 0.000000 -1.000000 0.000000 0.104008 0.312766
1.284277 3.056280 1.284275 0.000000 -1.000000 0.000000 0.124263 0.274851
1.095022 3.056280 1.095020 0.000000 -1.000000 0.000000 0.179633 0.308030
1.197066 3.056280 0.982406 0.000000 -1.000000 0.000000 0.162363 0.340357
-0.978275 3.056280 1.830220 0.000000 -1.000000 0.000000 0.621557 0.014485
-0.856162 3.056280 1.601763 0.000000 -1.000000 0.000000 0.606384 0.075090
-1.009052 3.056280 1.510149 0.000000 -1.000000 0.000000 0.647522 0.087558
-0.860355 3.056280 1.287609 0.000000 -1.000000 0.000000 0.625782 0.148337
-0.729996 3.056280 1.365721 0.000000 -1.000000 0.000000 0.590707 0.137706
-1.985903 3.056280 -0.602420 0.000000 -1.000000 0.000000 0.999900 0.524502
-1.738013 3.056280 -0.527223 0.000000 -1.000000 0.000000 0.937500 0.521444
-1.677988 3.056280 -0.695047 0.000000 -1.000000 0.000000 0.933297 0.564224
-1.430714 3.056280 -0.592623 0.000000 -1.000000 0.000000 0.869445 0.554760
-1.481894 3.056280 -0.449531 0.000000 -1.000000 0.000000 0.873029 0.518284
1.830220 3.056280 -0.978278 0.000000 -1.000000 0.000000 0.129192 0.836159
1.601763 3.056280 -0.856164 0.000000 -1.000000 0.000000 0.175478 0.794198
1.677988 3.056280 -0.695048 0.000000 -1.000000 0.000000 0.148201 0.760975
1.430715 3.056280 -0.592624 0.000000 -1.000000 0.000000 0.200043 0.722517
1.365722 3.056280 -0.729997 0.000000 -1.000000 0.000000 0.223301 0.750844
1.316536 3.056280 1.604200 0.000000 -1.000000 0.000000 0.097960 0.201899
1.152200 3.056280 1.403956 0.000000 -1.000000 0.000000 0.148145 0.239109
1.009053 3.056280 1.510149 0.000000 -1.000000 0.000000 0.175406 0.205874
0.860355 3.056280 1.287608 0.000000 -1.000000 0.000000 0.223240 0.249218
0.982408 3.056280 1.197064 0.000000 -1.000000 0.000000 0.199995 0.277555
-1.316535 3.056280 1.604200 0.000000 -1.000000 0.000000 0.713940 0.047529
-1.152199 3.056280 1.403957 0.000000 -1.000000 0.000000 0.687235 0.104009
-1.284276 3.056280 1.284276 0.000000 -1.000000 0.000000 0.725150 0.124263
-1.095021 3.056280 1.095021 0.000000 -0.999969 0.000000 0.691971 0.179633
-0.982407 3.056280 1.197065 0.000000 -1.000000 0.000000 0.659644 0.162363
0.354332 3.056280 -1.781341 0.000000 -1.000000 0.000000 0.521543 0.937500
0.602418 3.056280 -1.985901 0.000000 -1.000000 0.000000 0.475498 0.999900
0.527221 3.056280 -1.738012 0.000000 -1.000000 0.000000 0.478557 0.937500
0.695045 3.056280 -1.677987 0.000000 -1.000000 0.000000 0.435777 0.933297
0.592621 3.056280 -1.430712 0.000000 -0.999969 0.000000 0.445241 0.869445
0.449528 3.056280 -1.481893 0.000000 -1.000000 0.000000 0.481717 0.873029
0.302116 3.056280 -1.518837 0.000000 -1.000000 0.000000 0.518368 0.873029
-1.830220 3.056280 -0.978275 0.000000 -1.000000 0.000000 0.985515 0.621557
-1.601763 3.056280 -0.856162 0.000000 -1.000000 0.000000 0.924911 0.606384
-1.510149 3.056280 -1.009053 0.000000 -1.000000 0.000000 0.912442 0.647522
-1.287609 3.056280 -0.860355 0.000000 -1.000000 0.000000 0.851663 0.625783
-1.365722 3.056280 -0.729995 0.000000 -1.000000 0.000000 0.862294 0.590707
1.985903 3.056280 -0.602420 0.000000 -1.000000 0.000000 0.070736 0.757358
1.738014 3.056280 -0.527223 0.000000 -1.000000 0.000000 0.124319 0.725234
1.781341 3.056280 -0.354334 0.000000 -1.000000 0.000000 0.104047 0.687328
1.518836 3.056280 -0.302117 0.000000 -0.999969 0.000000 0.162396 0.659723
1.481894 3.056280 -0.449531 0.000000 -1.000000 0.000000 0.179681 0.692043
-1.284276 3.056280 -1.284276 0.000000 -1.000000 0.000000 0.875737 0.725150
-1.316535 3.056280 -1.604200 0.000000 -1.000000 0.000000 0.902040 0.798102
-1.152199 3.056280 -1.403957 0.000000 -1.000000 0.000000 0.851855 0.760891
-1.009052 3.056280 -1.510149 0.000000 -1.000000 0.000000 0.824593 0.794126
-0.860355 3.056280 -1.287609 0.000000 -1.000000 0.000000 0.776760 0.750783
-0.982407 3.056280 -1.197065 0.000000 -1.000000 0.000000 0.800005 0.722446
-1.095021 3.056280 -1.095021 0.000000 -0.999969 0.000000 0.820367 0.691971
0.978276 3.056280 1.830219 0.000000 -1.000000 0.000000 0.163842 0.129193
0.856163 3.056280 1.601763 0.000000 -1.000000 0.000000 0.205802 0.175479
0.695048 3.056280 1.677988 0.000000 -0.999969 0.000000 0.239025 0.148201
0.592623 3.056280 1.430714 0.000000 -1.000000 0.000000 0.277483 0.200043
0.729996 3.056280 1.365721 0.000000 -1.000000 0.000000 0.249156 0.223301
-1.604200 3.056280 1.316535 0.000000 -1.000000 0.000000 0.798102 0.097961
-1.403957 3.056280 1.152199 0.000000 -1.000000 0.000000 0.760891 0.148145
-1.510149 3.056280 1.009052 0.000000 -1.000000 0.000000 0.794126 0.175407
-1.287609 3.056280 0.860355 0.000000 -1.000000 0.000000 0.750783 0.223240
-1.197065 3.056280 0.982406 0.000000 -1.000000 0.000000 0.722445 0.199996
0.354335 3.056280 1.781340 0.000000 -1.000000 0.000000 0.312672 0.104047
0.203415 3.056280 2.065269 0.000000 -1.000000 0.000000 0.331332 0.028777
0.178023 3.056280 1.807472 0.000000 -1.000000 0.000000 0.352386 0.087598
0.000001 3.056280 1.816239 0.000000 -1.000000 0.000000 0.393519 0.075110
0.000001 3.056280 1.548591 0.000000 -1.000000 0.000000 0.409210 0.137723
0.151789 3.056280 1.541116 0.000000 -1.000000 0.000000 0.374139 0.148371
0.302119 3.056280 1.518836 0.000000 -1.000000 0.000000 0.340277 0.162396
0.203412 3.056280 -2.065269 0.000000 -1.000000 0.000000 0.573495 0.995074
0.178021 3.056280 -1.807473 0.000000 -1.000000 0.000000 0.564321 0.933277
0.151787 3.056280 -1.541119 0.000000 -0.999969 0.000000 0.554843 0.869428
2.065269 3.056280 -0.203413 0.000000 -0.999969 0.000000 0.028777 0.668668
1.807472 3.056280 -0.178022 0.000000 -1.000000 0.000000 0.087597 0.647614
1.816239 3.056280 -0.000001 0.000000 -1.000000 0.000000 0.075110 0.606482
1.548592 3.056280 -0.000001 0.000000 -1.000000 0.000000 0.137723 0.590790
1.541117 3.056280 -0.151789 0.000000 -1.000000 0.000000 0.148370 0.625861
0.978273 3.056280 -1.830220 0.000000 -1.000000 0.000000 0.378444 0.985515
0.856160 3.056280 -1.601763 0.000000 -1.000000 0.000000 0.393617 0.924910
0.729994 3.056280 -1.365721 0.000000 -1.000000 0.000000 0.409294 0.862294
-1.604200 3.056280 -1.316535 0.000000 -1.000000 0.000000 0.952471 0.713941
-1.403957 3.056280 -1.152200 0.000000 -1.000000 0.000000 0.895992 0.687236
-1.197065 3.056280 -0.982407 0.000000 -1.000000 0.000000 0.837637 0.659644
-1.830220 3.056280 0.978276 0.000000 -1.000000 0.000000 0.870808 0.163842
-1.601763 3.056280 0.856163 0.000000 -1.000000 0.000000 0.824522 0.205803
-1.677988 3.056280 0.695047 0.000000 -1.000000 0.000000 0.851800 0.239025
-1.430714 3.056280 0.592623 0.000000 -1.000000 0.000000 0.799957 0.277483
-1.365722 3.056280 0.729996 0.000000 -1.000000 0.000000 0.776699 0.249157
-0.978275 3.056280 -1.830220 0.000000 -1.000000 0.000000 0.836158 0.870808
-0.856162 3.056280 -1.601763 0.000000 -1.000000 0.000000 0.794197 0.824522
-0.729995 3.056280 -1.365722 0.000000 -1.000000 0.000000 0.750843 0.776699
0.602421 3.056280 1.985903 0.000000 -0.999969 0.000000 0.242642 0.070737
0.527224 3.056280 1.738013 0.000000 -1.000000 0.000000 0.274766 0.124320
0.449531 3.056280 1.481894 0.000000 -1.000000 0.000000 0.307958 0.179681
2.065269 3.056280 0.203412 0.000000 -1.000000 0.000000 0.004926 0.573495
1.807473 3.056280 0.178021 0.000000 -1.000000 0.000000 0.066723 0.564321
1.541118 3.056280 0.151787 0.000000 -1.000000 0.000000 0.130572 0.554843
-0.203413 3.056280 2.065269 0.000000 -1.000000 0.000000 0.426505 0.004926
-0.178022 3.056280 1.807472 0.000000 -1.000000 0.000000 0.435679 0.066723
-0.151788 3.056280 1.541118 0.000000 -1.000000 0.000000 0.445158 0.130573
-1.985903 3.056280 0.602421 0.000000 -1.000000 0.000000 0.929264 0.242642
-1.738013 3.056280 0.527224 0.000000 -1.000000 0.000000 0.875681 0.274767
-1.481894 3.056280 0.449529 0.000000 -1.000000 0.000000 0.820319 0.307958
-0.893604 3.056280 -0.893604 0.000000 -1.000000 0.000000 0.761439 0.656660
-0.801704 3.056280 -0.976878 0.000000 -1.000000 0.000000 0.744822 0.681529
-0.702102 3.056280 -1.050767 0.000000 -1.000000 0.000000 0.725853 0.704654
-0.610790 3.056280 -0.744249 0.000000 -1.000000 0.000000 0.686521 0.638301
0.702103 3.056280 1.050766 0.000000 -0.999969 0.000000 0.274147 0.295346
0.595721 3.056280 1.114511 0.000000 -1.000000 0.000000 0.295296 0.274197
0.483617 3.056280 1.167549 0.000000 -1.000000 0.000000 0.318413 0.255217
0.453859 3.056280 0.849107 0.000000 -1.000000 0.000000 0.344044 0.327969
-0.893604 3.056280 0.893604 0.000000 -1.000000 0.000000 0.656660 0.238561
-0.976878 3.056280 0.801704 0.000000 -1.000000 0.000000 0.681529 0.255178
-1.050768 3.056280 0.702102 0.000000 -1.000000 0.000000 0.704654 0.274147
-0.744249 3.056280 0.610790 0.000000 -1.000000 0.000000 0.638301 0.313479
0.246548 3.056280 1.239464 0.000000 -1.000000 0.000000 0.369656 0.224495
0.123869 3.056280 1.257645 0.000000 -1.000000 0.000000 0.397290 0.213049
0.000000 3.056280 1.263746 0.000000 -1.000000 0.000000 0.425910 0.204360
0.094372 3.056280 0.958156 0.000000 -1.000000 0.000000 0.421749 0.281382
0.000000 3.056280 -1.263747 0.000000 -1.000000 0.000000 0.574090 0.795641
0.123868 3.056280 -1.257646 0.000000 -1.000000 0.000000 0.544755 0.801476
0.246545 3.056280 -1.239465 0.000000 -1.000000 0.000000 0.514990 0.804415
0.094370 3.056280 -0.958156 0.000000 -1.000000 0.000000 0.534097 0.729684
1.239463 3.056280 -0.246546 0.000000 -1.000000 0.000000 0.224495 0.630343
1.257646 3.056280 -0.123870 0.000000 -1.000000 0.000000 0.213049 0.602710
1.263746 3.056280 -0.000001 0.000000 -1.000000 0.000000 0.204360 0.574090
0.958156 3.056280 -0.094371 0.000000 -1.000000 0.000000 0.281382 0.578251
0.483615 3.056280 -1.167549 0.000000 -1.000000 0.000000 0.455313 0.801490
0.595720 3.056280 -1.114512 0.000000 -1.000000 0.000000 0.425978 0.795654
0.702101 3.056280 -1.050768 0.000000 -1.000000 0.000000 0.397354 0.786979
0.453858 3.056280 -0.849108 0.000000 -1.000000 0.000000 0.443605 0.725249
-1.050768 3.056280 -0.702102 0.000000 -1.000000 0.000000 0.786979 0.602646
-0.976878 3.056280 -0.801704 0.000000 -1.000000 0.000000 0.775532 0.630279
-0.744249 3.056280 -0.610790 0.000000 -1.000000 0.000000 0.709918 0.599255
-1.114513 3.056280 0.595721 0.000000 -1.000000 0.000000 0.725804 0.295297
-1.167550 3.056280 0.483617 0.000000 -0.999969 0.000000 0.744783 0.318413
-0.849108 3.056280 0.453858 0.000000 -1.000000 0.000000 0.672032 0.344044
-0.595721 3.056280 -1.114514 0.000000 -1.000000 0.000000 0.704704 0.725804
-0.483616 3.056280 -1.167550 0.000000 -1.000000 0.000000 0.681587 0.744784
-0.453858 3.056280 -0.849108 0.000000 -1.000000 0.000000 0.655956 0.672032
0.366845 3.056280 1.209316 0.000000 -1.000000 0.000000 0.343282 0.238600
0.279486 3.056280 0.921335 0.000000 -1.000000 0.000000 0.380602 0.300849
1.257646 3.056280 0.123866 0.000000 -1.000000 0.000000 0.198525 0.544755
1.239464 3.056280 0.246546 0.000000 -1.000000 0.000000 0.195586 0.514990
0.958156 3.056280 0.094370 0.000000 -1.000000 0.000000 0.270317 0.534097
-0.123868 3.056280 1.257645 0.000000 -1.000000 0.000000 0.455245 0.198525
-0.246547 3.056280 1.239464 0.000000 -1.000000 0.000000 0.485011 0.195586
-0.094371 3.056280 0.958156 0.000000 -1.000000 0.000000 0.465903 0.270317
-1.209316 3.056280 0.366843 0.000000 -1.000000 0.000000 0.761400 0.343282
-1.239464 3.056280 0.246547 0.000000 -1.000000 0.000000 0.775506 0.369657
-0.921335 3.056280 0.279484 0.000000 -0.999969 0.000000 0.699152 0.380602
0.801703 3.056280 -0.976879 0.000000 -1.000000 0.000000 0.369722 0.775533
0.893603 3.056280 -0.893606 0.000000 -1.000000 0.000000 0.343340 0.761440
0.610789 3.056280 -0.744250 0.000000 -1.000000 0.000000 0.400746 0.709919
1.209316 3.056280 0.366842 0.000000 -1.000000 0.000000 0.195586 0.485080
1.167551 3.056280 0.483615 0.000000 -1.000000 0.000000 0.198510 0.455314
0.921335 3.056280 0.279484 0.000000 -1.000000 0.000000 0.268078 0.488633
-0.366844 3.056280 -1.209316 0.000000 -1.000000 0.000000 0.656718 0.761400
-0.246547 3.056280 -1.239465 0.000000 -1.000000 0.000000 0.630343 0.775506
-0.279485 3.056280 -0.921335 0.000000 -0.999969 0.000000 0.619398 0.699152
-1.257646 3.056280 0.123869 0.000000 -1.000000 0.000000 0.786951 0.397290
-1.263746 3.056280 -0.000000 0.000000 -1.000000 0.000000 0.795641 0.425910
-0.958156 3.056280 0.094370 0.000000 -1.000000 0.000000 0.718618 0.421749
-0.366844 3.056280 1.209316 0.000000 -1.000000 0.000000 0.514921 0.195586
-0.483617 3.056280 1.167549 0.000000 -0.999969 0.000000 0.544687 0.198511
-0.279486 3.056280 0.921335 0.000000 -1.000000 0.000000 0.511368 0.268078
1.114513 3.056280 0.595720 0.000000 -1.000000 0.000000 0.204346 0.425979
1.050768 3.056280 0.702101 0.000000 -1.000000 0.000000 0.213021 0.397355
0.849108 3.056280 0.453857 0.000000 -1.000000 0.000000 0.274751 0.443606
0.976877 3.056280 -0.801706 0.000000 -1.000000 0.000000 0.318471 0.744823
1.050767 3.056280 -0.702103 0.000000 -0.999969 0.000000 0.295346 0.725854
0.744248 3.056280 -0.610792 0.000000 -1.000000 0.000000 0.361700 0.686522
-1.257646 3.056280 -0.123870 0.000000 -1.000000 0.000000 0.801476 0.455246
-1.239464 3.056280 -0.246547 0.000000 -1.000000 0.000000 0.804414 0.485011
-0.958156 3.056280 -0.094371 0.000000 -1.000000 0.000000 0.729684 0.465903
-0.123869 3.056280 -1.257646 0.000000 -1.000000 0.000000 0.602710 0.786952
-0.094371 3.056280 -0.958156 0.000000 -1.000000 0.000000 0.578251 0.718618
0.976879 3.056280 0.801702 0.000000 -1.000000 0.000000 0.224468 0.369722
0.893605 3.056280 0.893603 0.000000 -1.000000 0.000000 0.238561 0.343341
0.744249 3.056280 0.610789 0.000000 -1.000000 0.000000 0.290082 0.400746
-0.595721 3.056280 1.114513 0.000000 -1.000000 0.000000 0.574022 0.204346
-0.702102 3.056280 1.050766 0.000000 -1.000000 0.000000 0.602646 0.213022
-0.453859 3.056280 0.849108 0.000000 -1.000000 0.000000 0.556395 0.274752
-1.209316 3.056280 -0.366845 0.000000 -1.000000 0.000000 0.804414 0.514921
-1.167550 3.056280 -0.483617 0.000000 -1.000000 0.000000 0.801490 0.544687
-0.921335 3.056280 -0.279485 0.000000 -1.000000 0.000000 0.731922 0.511368
1.114513 3.056280 -0.595722 0.000000 -1.000000 0.000000 0.274197 0.704704
1.167551 3.056280 -0.483618 0.000000 -0.999969 0.000000 0.255217 0.681588
0.849107 3.056280 -0.453861 0.000000 -1.000000 0.000000 0.327969 0.655957
0.801705 3.056280 0.976878 0.000000 -1.000000 0.000000 0.255178 0.318471
0.610790 3.056280 0.744247 0.000000 -1.000000 0.000000 0.313479 0.361700
-0.801704 3.056280 0.976878 0.000000 -1.000000 0.000000 0.630279 0.224468
-0.610790 3.056280 0.744249 0.000000 -1.000000 0.000000 0.599255 0.290082
0.366842 3.056280 -1.209315 0.000000 -1.000000 0.000000 0.485080 0.804414
0.279484 3.056280 -0.921335 0.000000 -1.000000 0.000000 0.488633 0.731922
-1.114513 3.056280 -0.595721 0.000000 -1.000000 0.000000 0.795655 0.574022
-0.849108 3.056280 -0.453860 0.000000 -0.999969 0.000000 0.725249 0.556395
1.209316 3.056280 -0.366845 0.000000 -1.000000 0.000000 0.238600 0.656719
0.921335 3.056280 -0.279485 0.000000 -1.000000 0.000000 0.300849 0.619398
-0.304928 3.056280 -0.570480 0.000000 -1.000000 0.000000 0.604780 0.615581
-0.523622 3.056280 -0.783653 0.000000 -1.000000 0.000000 0.668440 0.652630
-0.360677 3.056280 -0.870749 0.000000 -1.000000 0.000000 0.635426 0.682558
-0.216453 3.056280 -0.522564 0.000000 -1.000000 0.000000 0.581274 0.609559
-0.314242 3.056280 -0.470296 0.000000 -1.000000 0.000000 0.601086 0.591598
0.187775 3.056280 0.619006 0.000000 -1.000000 0.000000 0.419781 0.366199
0.360677 3.056280 0.870749 0.000000 -1.000000 0.000000 0.364574 0.317443
0.183873 3.056280 0.924381 0.000000 -1.000000 0.000000 0.402791 0.294531
0.110348 3.056280 0.554750 0.000000 -1.000000 0.000000 0.441662 0.376692
0.216454 3.056280 0.522563 0.000000 -1.000000 0.000000 0.418726 0.390442
0.643744 3.056280 0.063403 0.000000 -1.000000 0.000000 0.345686 0.522909
0.942491 3.056280 -0.000001 0.000000 -0.999969 0.000000 0.279514 0.555256
0.924382 3.056280 0.183872 0.000000 -1.000000 0.000000 0.272970 0.511179
0.554750 3.056280 0.110347 0.000000 -1.000000 0.000000 0.363753 0.506709
0.565618 3.056280 -0.000001 0.000000 -1.000000 0.000000 0.367680 0.533161
-0.063404 3.056280 0.643744 0.000000 -1.000000 0.000000 0.477092 0.345686
0.000000 3.056280 0.942491 0.000000 -1.000000 0.000000 0.444744 0.279514
-0.183873 3.056280 0.924381 0.000000 -1.000000 0.000000 0.488821 0.272971
-0.110348 3.056280 0.554750 0.000000 -1.000000 0.000000 0.493291 0.363753
0.000000 3.056280 0.565618 0.000000 -1.000000 0.000000 0.466839 0.367680
-0.619006 3.056280 0.187774 0.000000 -1.000000 0.000000 0.633802 0.419782
-0.870749 3.056280 0.360676 0.000000 -1.000000 0.000000 0.682557 0.364574
-0.924381 3.056280 0.183872 0.000000 -1.000000 0.000000 0.705470 0.402791
-0.554750 3.056280 0.110347 0.000000 -1.000000 0.000000 0.623309 0.441662
-0.522564 3.056280 0.216453 0.000000 -1.000000 0.000000 0.609559 0.418727
0.410363 3.056280 -0.500030 0.000000 -1.000000 0.000000 0.433315 0.641036
0.523621 3.056280 -0.783654 0.000000 -1.000000 0.000000 0.423448 0.714027
0.666442 3.056280 -0.666443 0.000000 -1.000000 0.000000 0.383164 0.694979
0.399952 3.056280 -0.399954 0.000000 -1.000000 0.000000 0.429884 0.617013
0.314241 3.056280 -0.470296 0.000000 -1.000000 0.000000 0.454059 0.628444
0.619006 3.056280 0.187774 0.000000 -1.000000 0.000000 0.344181 0.492363
0.870749 3.056280 0.360676 0.000000 -1.000000 0.000000 0.275152 0.466673
0.522564 3.056280 0.216453 0.000000 -1.000000 0.000000 0.365061 0.480000
-0.187774 3.056280 -0.619006 0.000000 -1.000000 0.000000 0.580218 0.633802
-0.183873 3.056280 -0.924381 0.000000 -1.000000 0.000000 0.597209 0.705470
-0.110348 3.056280 -0.554751 0.000000 -1.000000 0.000000 0.558338 0.623309
-0.643744 3.056280 0.063404 0.000000 -1.000000 0.000000 0.646880 0.447427
-0.942491 3.056280 -0.000000 0.000000 -0.999969 0.000000 0.720486 0.444745
-0.565618 3.056280 -0.000000 0.000000 -1.000000 0.000000 0.632321 0.466840
-0.187775 3.056280 0.619006 0.000000 -1.000000 0.000000 0.507638 0.344181
-0.360677 3.056280 0.870749 0.000000 -1.000000 0.000000 0.533327 0.275152
-0.216454 3.056280 0.522563 0.000000 -1.000000 0.000000 0.520001 0.365062
0.570480 3.056280 0.304927 0.000000 -1.000000 0.000000 0.348665 0.462111
0.783654 3.056280 0.523621 0.000000 -1.000000 0.000000 0.285974 0.423448
0.470295 3.056280 0.314240 0.000000 -1.000000 0.000000 0.371556 0.454059
0.500029 3.056280 -0.410365 0.000000 -0.999969 0.000000 0.407082 0.625316
0.783653 3.056280 -0.523623 0.000000 -1.000000 0.000000 0.347371 0.668440
0.470294 3.056280 -0.314243 0.000000 -1.000000 0.000000 0.408403 0.601086
-0.643744 3.056280 -0.063405 0.000000 -1.000000 0.000000 0.654315 0.477092
-0.924381 3.056280 -0.183873 0.000000 -1.000000 0.000000 0.727030 0.488822
-0.554750 3.056280 -0.110349 0.000000 -1.000000 0.000000 0.636248 0.493292
-0.063404 3.056280 -0.643744 0.000000 -1.000000 0.000000 0.552574 0.646880
0.000000 3.056280 -0.942491 0.000000 -1.000000 0.000000 0.555256 0.720487
0.000000 3.056280 -0.565618 0.000000 -1.000000 0.000000 0.533161 0.632321
0.500030 3.056280 0.410362 0.000000 -1.000000 0.000000 0.358965 0.433315
0.666443 3.056280 0.666442 0.000000 -1.000000 0.000000 0.305021 0.383165
0.399953 3.056280 0.399951 0.000000 -1.000000 0.000000 0.382987 0.429884
-0.304928 3.056280 0.570478 0.000000 -1.000000 0.000000 0.537889 0.348665
-0.523622 3.056280 0.783653 0.000000 -1.000000 0.000000 0.576553 0.285974
-0.314242 3.056280 0.470293 0.000000 -1.000000 0.000000 0.545942 0.371557
-0.619006 3.056280 -0.187775 0.000000 -1.000000 0.000000 0.655819 0.507638
-0.870749 3.056280 -0.360678 0.000000 -1.000000 0.000000 0.724848 0.533327
-0.522564 3.056280 -0.216454 0.000000 -0.999969 0.000000 0.634939 0.520001
0.570479 3.056280 -0.304929 0.000000 -1.000000 0.000000 0.384420 0.604781
0.870749 3.056280 -0.360678 0.000000 -0.999969 0.000000 0.317443 0.635427
0.522563 3.056280 -0.216454 0.000000 -1.000000 0.000000 0.390442 0.581274
0.410364 3.056280 0.500029 0.000000 -1.000000 0.000000 0.374684 0.407082
0.523622 3.056280 0.783653 0.000000 -1.000000 0.000000 0.331561 0.347371
0.314242 3.056280 0.470293 0.000000 -1.000000 0.000000 0.398914 0.408403
-0.410364 3.056280 0.500029 0.000000 -1.000000 0.000000 0.566685 0.358965
-0.666442 3.056280 0.666442 0.000000 -1.000000 0.000000 0.616836 0.305021
-0.399953 3.056280 0.399953 0.000000 -1.000000 0.000000 0.570117 0.382987
0.187774 3.056280 -0.619006 0.000000 -1.000000 0.000000 0.492363 0.655819
0.183871 3.056280 -0.924382 0.000000 -1.000000 0.000000 0.511179 0.727030
0.360676 3.056280 -0.870748 0.000000 -0.999969 0.000000 0.466673 0.724848
0.216453 3.056280 -0.522563 0.000000 -1.000000 0.000000 0.479999 0.634939
0.110347 3.056280 -0.554751 0.000000 -1.000000 0.000000 0.506709 0.636248
-0.570480 3.056280 -0.304929 0.000000 -1.000000 0.000000 0.651335 0.537890
-0.783653 3.056280 -0.523622 0.000000 -1.000000 0.000000 0.714026 0.576553
-0.470295 3.056280 -0.314243 0.000000 -1.000000 0.000000 0.628444 0.545942
0.619006 3.056280 -0.187774 0.000000 -1.000000 0.000000 0.366199 0.580219
0.924381 3.056280 -0.183872 0.000000 -1.000000 0.000000 0.294530 0.597209
0.554750 3.056280 -0.110348 0.000000 -0.999969 0.000000 0.376691 0.558338
-0.410364 3.056280 -0.500030 0.000000 -1.000000 0.000000 0.625316 0.592919
-0.666442 3.056280 -0.666442 0.000000 -1.000000 0.000000 0.694979 0.616836
-0.399953 3.056280 -0.399954 0.000000 -1.000000 0.000000 0.617013 0.570117
0.304929 3.056280 0.570478 0.000000 -1.000000 0.000000 0.395219 0.384420
-0.500029 3.056280 0.410363 0.000000 -1.000000 0.000000 0.592918 0.374685
-0.783653 3.056280 0.523621 0.000000 -1.000000 0.000000 0.652629 0.331561
-0.470295 3.056280 0.314240 0.000000 -1.000000 0.000000 0.591598 0.398915
0.063404 3.056280 0.643744 0.000000 -1.000000 0.000000 0.447426 0.353120
0.063403 3.056280 -0.643745 0.000000 -1.000000 0.000000 0.522909 0.654315
0.643744 3.056280 -0.063405 0.000000 -0.999969 0.000000 0.353120 0.552574
0.304928 3.056280 -0.570479 0.000000 -1.000000 0.000000 0.462111 0.651335
-0.500029 3.056280 -0.410365 0.000000 -1.000000 0.000000 0.641035 0.566685
-0.570480 3.056280 0.304927 0.000000 -1.000000 0.000000 0.615581 0.395220
1.152969 3.056280 -1.725541 0.000000 -0.999969 0.000000 0.331438 0.971268
1.467448 3.056280 -1.467453 0.000000 -1.000000 0.000000 0.242738 0.929328
2.035411 3.056280 0.404869 0.000000 -1.000000 0.000000 0.000100 0.524616
1.917317 3.056280 0.794179 0.000000 -1.000000 0.000000 0.004903 0.426617
-0.794180 3.056280 -1.917316 0.000000 -1.000000 0.000000 0.798197 0.901976
-0.404872 3.056280 -2.035410 0.000000 -1.000000 0.000000 0.714046 0.952427
-2.035410 3.056280 0.404871 0.000000 -1.000000 0.000000 0.952427 0.285954
-2.075286 3.056280 -0.000000 0.000000 -0.999969 0.000000 0.985492 0.378332
-0.404872 3.056280 2.035410 0.000000 -0.999969 0.000000 0.475385 0.000100
-0.794181 3.056280 1.917317 0.000000 -1.000000 0.000000 0.573384 0.004903
1.725540 3.056280 1.152969 0.000000 -1.000000 0.000000 0.028732 0.331438
1.725538 3.056280 -1.152974 0.000000 -1.000000 0.000000 0.163924 0.870890
-2.035410 3.056280 -0.404873 0.000000 -1.000000 0.000000 0.999900 0.475386
0.000000 3.056280 -2.075286 0.000000 -1.000000 0.000000 0.621668 0.985492
1.467451 3.056280 1.467448 0.000000 -1.000000 0.000000 0.070672 0.242738
-1.152971 3.056280 1.725538 0.000000 -1.000000 0.000000 0.668562 0.028732
-1.917316 3.056280 -0.794180 0.000000 -1.000000 0.000000 0.995097 0.573384
1.917317 3.056280 -0.794182 0.000000 -1.000000 0.000000 0.098024 0.798198
1.152972 3.056280 1.725538 0.000000 -1.000000 0.000000 0.129110 0.163924
-1.467450 3.056280 1.467450 0.000000 -0.999969 0.000000 0.757263 0.070673
0.404869 3.056280 -2.035410 0.000000 -0.999969 0.000000 0.524615 0.999900
0.794179 3.056280 -1.917315 0.000000 -1.000000 0.000000 0.426617 0.995097
-1.725539 3.056280 -1.152972 0.000000 -1.000000 0.000000 0.971268 0.668563
2.035410 3.056280 -0.404871 0.000000 -1.000000 0.000000 0.047573 0.714046
-1.467450 3.056280 -1.467450 0.000000 -1.000000 0.000000 0.929327 0.757263
-1.152971 3.056280 -1.725539 0.000000 -1.000000 0.000000 0.870889 0.836077
0.794181 3.056280 1.917315 0.000000 -1.000000 0.000000 0.201802 0.098024
-1.725539 3.056280 1.152971 0.000000 -1.000000 0.000000 0.836077 0.129111
0.404873 3.056280 2.035410 0.000000 -1.000000 0.000000 0.285954 0.047573
0.000001 3.056280 2.075285 0.000000 -1.000000 0.000000 0.378332 0.014508
2.075286 3.056280 -0.000002 0.000000 -1.000000 0.000000 0.014508 0.621669
-1.917317 3.056280 0.794181 0.000000 -1.000000 0.000000 0.901976 0.201803
0.000000 3.056280 -0.000000 0.000000 -1.000000 0.000000 0.500000 0.500000
3 0 1 2
3 1 3 2
3 2 4 5
3 2 6 0
3 7 8 9
3 8 10 9
3 9 11 12
3 9 13 7
3 14 15 16
3 15 17 16
3 16 18 19
3 16 20 14
3 21 22 23
3 22 24 23
3 23 25 26
3 23 27 21
3 28 29 30
3 29 31 30
3 30 32 33
3 30 34 28
3 10 35 36
3 35 37 36
3 36 38 39
3 36 11 10
3 3 40 41
3 40 42 41
3 41 43 44
3 41 4 3
3 24 45 46
3 45 47 46
3 46 48 49
3 46 25 24
3 17 50 51
3 50 52 51
3 51 53 54
3 51 18 17
3 37 55 56
3 55 57 56
3 56 58 59
3 56 38 37
3 31 60 61
3 60 62 61
3 61 63 64
3 61 32 31
3 47 65 66
3 65 67 66
3 66 68 69
3 66 48 47
3 42 70 71
3 70 72 71
3 71 73 74
3 71 43 42
3 57 75 76
3 75 77 76
3 76 78 79
3 76 58 57
3 62 80 81
3 80 82 81
3 81 83 84
3 81 63 62
3 85 86 87
3 86 88 87
3 87 89 90
3 87 91 85
3 67 92 93
3 92 94 93
3 93 95 96
3 93 68 67
3 72 97 98
3 97 99 98
3 98 100 101
3 98 73 72
3 102 103 104
3 103 105 104
3 104 106 107
3 104 108 102
3 77 109 110
3 109 111 110
3 110 112 113
3 110 78 77
3 82 114 115
3 114 116 115
3 115 117 118
3 115 83 82
3 119 120 121
3 120 122 121
3 121 123 124
3 121 125 119
3 52 126 127
3 126 85 127
3 127 91 128
3 127 53 52
3 99 129 130
3 129 131 130
3 130 132 133
3 130 100 99
3 88 134 135
3 134 0 135
3 135 6 136
3 135 89 88
3 94 137 138
3 137 102 138
3 138 108 139
3 138 95 94
3 116 140 141
3 140 142 141
3 141 143 144
3 141 117 116
3 105 145 146
3 145 14 146
3 146 20 147
3 146 106 105
3 111 148 149
3 148 119 149
3 149 125 150
3 149 112 111
3 131 151 152
3 151 7 152
3 152 13 153
3 152 132 131
3 122 154 155
3 154 28 155
3 155 34 156
3 155 123 122
3 142 157 158
3 157 21 158
3 158 27 159
3 158 143 142
3 160 107 161
3 107 162 161
3 162 163 161
3 163 160 161
3 164 113 165
3 113 166 165
3 166 167 165
3 167 164 165
3 168 118 169
3 118 170 169
3 170 171 169
3 171 168 169
3 172 124 173
3 124 174 173
3 174 175 173
3 175 172 173
3 176 128 177
3 128 178 177
3 178 179 177
3 179 176 177
3 180 133 181
3 133 182 181
3 182 183 181
3 183 180 181
3 184 136 185
3 136 186 185
3 186 187 185
3 187 184 185
3 188 139 189
3 139 160 189
3 160 190 189
3 190 188 189
3 170 144 191
3 144 192 191
3 192 193 191
3 193 170 191
3 162 147 194
3 147 195 194
3 195 196 194
3 196 162 194
3 166 150 197
3 150 172 197
3 172 198 197
3 198 166 197
3 182 153 199
3 153 200 199
3 200 201 199
3 201 182 199
3 174 156 202
3 156 203 202
3 203 204 202
3 204 174 202
3 192 159 205
3 159 206 205
3 206 207 205
3 207 192 205
3 186 5 208
3 5 209 208
3 209 210 208
3 210 186 208
3 200 12 211
3 12 212 211
3 212 213 211
3 213 200 211
3 195 19 214
3 19 215 214
3 215 216 214
3 216 195 214
3 206 26 217
3 26 218 217
3 218 219 217
3 219 206 217
3 203 33 220
3 33 221 220
3 221 222 220
3 222 203 220
3 212 39 223
3 39 224 223
3 224 225 223
3 225 212 223
3 209 44 226
3 44 227 226
3 227 228 226
3 228 209 226
3 218 49 229
3 49 230 229
3 230 231 229
3 231 218 229
3 215 54 232
3 54 176 232
3 176 233 232
3 233 215 232
3 224 59 234
3 59 235 234
3 235 236 234
3 236 224 234
3 221 64 237
3 64 238 237
3 238 239 237
3 239 221 237
3 230 69 240
3 69 241 240
3 241 242 240
3 242 230 240
3 227 74 243
3 74 244 243
3 244 245 243
3 245 227 243
3 235 79 246
3 79 164 246
3 164 247 246
3 247 235 246
3 238 84 248
3 84 168 248
3 168 249 248
3 249 238 248
3 178 90 250
3 90 184 250
3 184 251 250
3 251 178 250
3 241 96 252
3 96 188 252
3 188 253 252
3 253 241 252
3 244 101 254
3 101 180 254
3 180 255 254
3 255 244 254
3 256 257 196
3 256 258 259
3 259 260 256
3 261 262 198
3 261 263 264
3 264 265 261
3 266 267 201
3 266 268 269
3 269 270 266
3 271 272 204
3 271 273 274
3 274 275 271
3 276 277 207
3 276 278 279
3 279 280 276
3 281 282 210
3 281 283 284
3 284 285 281
3 286 268 213
3 286 287 288
3 288 269 286
3 289 258 216
3 289 290 291
3 291 259 289
3 292 278 219
3 292 293 294
3 294 279 292
3 295 273 222
3 295 296 297
3 297 274 295
3 298 287 225
3 298 299 300
3 300 288 298
3 301 283 228
3 301 302 303
3 303 284 301
3 304 293 231
3 304 305 306
3 306 294 304
3 307 290 233
3 307 308 309
3 309 291 307
3 310 299 236
3 310 311 312
3 312 300 310
3 313 296 239
3 313 314 315
3 315 297 313
3 316 305 242
3 316 317 318
3 318 306 316
3 319 302 245
3 319 320 321
3 321 303 319
3 322 311 247
3 322 323 324
3 324 312 322
3 325 314 249
3 325 326 327
3 327 315 325
3 328 329 251
3 328 330 331
3 331 332 328
3 333 317 253
3 333 334 335
3 335 318 333
3 336 320 255
3 336 337 338
3 338 321 336
3 339 340 163
3 339 257 260
3 260 341 339
3 342 323 167
3 342 262 265
3 265 324 342
3 343 326 171
3 343 344 345
3 345 327 343
3 346 263 175
3 346 272 275
3 275 264 346
3 347 308 179
3 347 329 332
3 332 309 347
3 348 337 183
3 348 267 270
3 270 338 348
3 349 330 187
3 349 282 285
3 285 331 349
3 350 334 190
3 350 340 341
3 341 335 350
3 351 344 193
3 351 277 280
3 280 345 351
3 0 352 1
3 1 353 3
3 2 3 4
3 2 5 6
3 7 354 8
3 8 355 10
3 9 10 11
3 9 12 13
3 14 356 15
3 15 357 17
3 16 17 18
3 16 19 20
3 21 358 22
3 22 359 24
3 23 24 25
3 23 26 27
3 28 360 29
3 29 361 31
3 30 31 32
3 30 33 34
3 10 355 35
3 35 362 37
3 36 37 38
3 36 39 11
3 3 353 40
3 40 363 42
3 41 42 43
3 41 44 4
3 24 359 45
3 45 364 47
3 46 47 48
3 46 49 25
3 17 357 50
3 50 365 52
3 51 52 53
3 51 54 18
3 37 362 55
3 55 366 57
3 56 57 58
3 56 59 38
3 31 361 60
3 60 367 62
3 61 62 63
3 61 64 32
3 47 364 65
3 65 368 67
3 66 67 68
3 66 69 48
3 42 363 70
3 70 369 72
3 71 72 73
3 71 74 43
3 57 366 75
3 75 370 77
3 76 77 78
3 76 79 58
3 62 367 80
3 80 371 82
3 81 82 83
3 81 84 63
3 85 372 86
3 86 373 88
3 87 88 89
3 87 90 91
3 67 368 92
3 92 374 94
3 93 94 95
3 93 96 68
3 72 369 97
3 97 375 99
3 98 99 100
3 98 101 73
3 102 376 103
3 103 377 105
3 104 105 106
3 104 107 108
3 77 370 109
3 109 378 111
3 110 111 112
3 110 113 78
3 82 371 114
3 114 379 116
3 115 116 117
3 115 118 83
3 119 380 120
3 120 381 122
3 121 122 123
3 121 124 125
3 52 365 126
3 126 372 85
3 127 85 91
3 127 128 53
3 99 375 129
3 129 382 131
3 130 131 132
3 130 133 100
3 88 373 134
3 134 352 0
3 135 0 6
3 135 136 89
3 94 374 137
3 137 376 102
3 138 102 108
3 138 139 95
3 116 379 140
3 140 383 142
3 141 142 143
3 141 144 117
3 105 377 145
3 145 356 14
3 146 14 20
3 146 147 106
3 111 378 148
3 148 380 119
3 149 119 125
3 149 150 112
3 131 382 151
3 151 354 7
3 152 7 13
3 152 153 132
3 122 381 154
3 154 360 28
3 155 28 34
3 155 156 123
3 142 383 157
3 157 358 21
3 158 21 27
3 158 159 143
3 160 108 107
3 107 106 162
3 162 257 163
3 163 340 160
3 164 78 113
3 113 112 166
3 166 262 167
3 167 323 164
3 168 83 118
3 118 117 170
3 170 344 171
3 171 326 168
3 172 125 124
3 124 123 174
3 174 272 175
3 175 263 172
3 176 53 128
3 128 91 178
3 178 329 179
3 179 308 176
3 180 100 133
3 133 132 182
3 182 267 183
3 183 337 180
3 184 89 136
3 136 6 186
3 186 282 187
3 187 330 184
3 188 95 139
3 139 108 160
3 160 340 190
3 190 334 188
3 170 117 144
3 144 143 192
3 192 277 193
3 193 344 170
3 162 106 147
3 147 20 195
3 195 258 196
3 196 257 162
3 166 112 150
3 150 125 172
3 172 263 198
3 198 262 166
3 182 132 153
3 153 13 200
3 200 268 201
3 201 267 182
3 174 123 156
3 156 34 203
3 203 273 204
3 204 272 174
3 192 143 159
3 159 27 206
3 206 278 207
3 207 277 192
3 186 6 5
3 5 4 209
3 209 283 210
3 210 282 186
3 200 13 12
3 12 11 212
3 212 287 213
3 213 268 200
3 195 20 19
3 19 18 215
3 215 290 216
3 216 258 195
3 206 27 26
3 26 25 218
3 218 293 219
3 219 278 206
3 203 34 33
3 33 32 221
3 221 296 222
3 222 273 203
3 212 11 39
3 39 38 224
3 224 299 225
3 225 287 212
3 209 4 44
3 44 43 227
3 227 302 228
3 228 283 209
3 218 25 49
3 49 48 230
3 230 305 231
3 231 293 218
3 215 18 54
3 54 53 176
3 176 308 233
3 233 290 215
3 224 38 59
3 59 58 235
3 235 311 236
3 236 299 224
3 221 32 64
3 64 63 238
3 238 314 239
3 239 296 221
3 230 48 69
3 69 68 241
3 241 317 242
3 242 305 230
3 227 43 74
3 74 73 244
3 244 320 245
3 245 302 227
3 235 58 79
3 79 78 164
3 164 323 247
3 247 311 235
3 238 63 84
3 84 83 168
3 168 326 249
3 249 314 238
3 178 91 90
3 90 89 184
3 184 330 251
3 251 329 178
3 241 68 96
3 96 95 188
3 188 334 253
3 253 317 241
3 244 73 101
3 101 100 180
3 180 337 255
3 255 320 244
3 256 260 257
3 256 196 258
3 259 384 260
3 261 265 262
3 261 198 263
3 264 384 265
3 266 270 267
3 266 201 268
3 269 384 270
3 271 275 272
3 271 204 273
3 274 384 275
3 276 280 277
3 276 207 278
3 279 384 280
3 281 285 282
3 281 210 283
3 284 384 285
3 286 269 268
3 286 213 287
3 288 384 269
3 289 259 258
3 289 216 290
3 291 384 259
3 292 279 278
3 292 219 293
3 294 384 279
3 295 274 273
3 295 222 296
3 297 384 274
3 298 288 287
3 298 225 299
3 300 384 288
3 301 284 283
3 301 228 302
3 303 384 284
3 304 294 293
3 304 231 305
3 306 384 294
3 307 291 290
3 307 233 308
3 309 384 291
3 310 300 299
3 310 236 311
3 312 384 300
3 313 297 296
3 313 239 314
3 315 384 297
3 316 306 305
3 316 242 317
3 318 384 306
3 319 303 302
3 319 245 320
3 321 384 303
3 322 312 311
3 322 247 323
3 324 384 312
3 325 315 314
3 325 249 326
3 327 384 315
3 328 332 329
3 328 251 330
3 331 384 332
3 333 318 317
3 333 253 334
3 335 384 318
3 336 321 320
3 336 255 337
3 338 384 321
3 339 341 340
3 339 163 257
3 260 384 341
3 342 324 323
3 342 167 262
3 265 384 324
3 343 327 326
3 343 171 344
3 345 384 327
3 346 264 263
3 346 175 272
3 275 384 264
3 347 309 308
3 347 179 329
3 332 384 309
3 348 338 337
3 348 183 267
3 270 384 338
3 349 331 330
3 349 187 282
3 285 384 331
3 350 335 334
3 350 190 340
3 341 384 335
3 351 345 344
3 351 193 277
3 280 384 345
